<svg width="200" height="147" viewBox="0 0 200 147" fill="none" xmlns="http://www.w3.org/2000/svg">
<path d="M194.658 87.9436H182.189C184.708 73.9483 183.328 60.3292 178.008 45.9158C183.348 34.5123 185.307 21.8166 183.652 9.33369C183.35 7.11976 182.331 5.06565 180.751 3.4857C179.172 1.90575 177.117 0.886988 174.904 0.585312C171.997 0.196885 169.067 0.00135461 166.134 0C155.719 0.021628 145.46 2.53 136.21 7.31643C112.336 0.850065 87.1709 0.850065 63.2965 7.31643C51.3978 1.16995 37.8968 -1.16901 24.6239 0.616667C22.408 0.913334 20.3511 1.93049 18.7702 3.51136C17.1893 5.09224 16.1722 7.14912 15.8756 9.36504C14.2106 21.847 16.166 34.5445 21.5092 45.9472C16.2205 60.3606 14.8303 73.9796 17.3284 87.9749H4.87997C3.56579 88.0344 2.32515 88.5983 1.4162 89.5493C0.507251 90.5003 0 91.7652 0 93.0807C0 94.3963 0.507251 95.6611 1.4162 96.6121C2.32515 97.5632 3.56579 98.1271 4.87997 98.1866H19.8787C20.8403 101.301 21.99 104.437 23.3278 107.593H14.5899C13.9 107.562 13.2109 107.671 12.5642 107.914C11.9175 108.156 11.3267 108.527 10.8274 109.004C10.3282 109.482 9.93078 110.055 9.65928 110.69C9.38778 111.325 9.24781 112.009 9.24781 112.699C9.24781 113.39 9.38778 114.073 9.65928 114.708C9.93078 115.343 10.3282 115.917 10.8274 116.394C11.3267 116.871 11.9175 117.242 12.5642 117.485C13.2109 117.727 13.9 117.836 14.5899 117.805H28.1776C28.8361 119.059 29.505 120.324 30.2158 121.599C34.3261 128.953 41.0015 134.534 48.9667 137.277C67.2265 143.548 83.3749 146.465 99.7846 146.465C116.194 146.465 132.343 143.538 150.602 137.277C158.567 134.537 165.24 128.955 169.343 121.599C170.064 120.324 170.723 119.059 171.381 117.805H184.969C186.283 117.746 187.524 117.182 188.433 116.231C189.342 115.28 189.849 114.015 189.849 112.699C189.849 111.384 189.342 110.119 188.433 109.168C187.524 108.217 186.283 107.653 184.969 107.593H176.21C177.548 104.409 178.698 101.273 179.659 98.1866H194.658C195.348 98.2178 196.037 98.1089 196.684 97.8663C197.33 97.6238 197.921 97.2528 198.42 96.7756C198.92 96.2984 199.317 95.725 199.589 95.0899C199.86 94.4549 200 93.7714 200 93.0807C200 92.3901 199.86 91.7066 199.589 91.0716C199.317 90.4365 198.92 89.8631 198.42 89.3859C197.921 88.9087 197.33 88.5376 196.684 88.2951C196.037 88.0526 195.348 87.9437 194.658 87.9749V87.9436ZM166.145 10.2535C168.62 10.2533 171.092 10.4209 173.545 10.7552C174.527 18.0485 174.044 25.4645 172.123 32.5686C171.224 30.8336 170.315 29.0776 169.322 27.3426C165.422 20.4275 159.241 15.0816 151.836 12.2184C156.498 10.9367 161.309 10.276 166.145 10.2535ZM25.9722 10.7552C33.2403 9.7799 40.6303 10.2775 47.702 12.2184C40.2866 15.0795 34.0998 20.4348 30.2053 27.3635C29.2124 29.1403 28.2926 30.8858 27.4042 32.5895C25.4834 25.4783 25.0001 18.0554 25.9827 10.7552H25.9722ZM70.5398 82.8743C69.7276 82.8743 68.9486 82.5517 68.3743 81.9773C67.8 81.403 67.4773 80.6241 67.4773 79.8119C67.5153 78.784 67.3457 77.7591 66.9786 76.7983C66.6115 75.8375 66.0544 74.9606 65.3407 74.22C64.627 73.4794 63.7713 72.8903 62.8247 72.488C61.8782 72.0856 60.8602 71.8782 59.8316 71.8782C58.8031 71.8782 57.7851 72.0856 56.8386 72.488C55.892 72.8903 55.0363 73.4794 54.3226 74.22C53.6089 74.9606 53.0518 75.8375 52.6847 76.7983C52.3176 77.7591 52.148 78.784 52.186 79.8119C52.186 80.6241 51.8633 81.403 51.289 81.9773C50.7147 82.5517 49.9357 82.8743 49.1235 82.8743C48.3113 82.8743 47.5323 82.5517 46.958 81.9773C46.3837 81.403 46.061 80.6241 46.061 79.8119C46.0103 77.9716 46.329 76.1398 46.9983 74.4247C47.6675 72.7096 48.6737 71.1462 49.9574 69.8266C51.2412 68.507 52.7764 67.4581 54.4724 66.7419C56.1683 66.0256 57.9906 65.6566 59.8316 65.6566C61.6726 65.6566 63.495 66.0256 65.1909 66.7419C66.8869 67.4581 68.4221 68.507 69.7058 69.8266C70.9896 71.1462 71.9958 72.7096 72.665 74.4247C73.3342 76.1398 73.6529 77.9716 73.6022 79.8119C73.6036 80.214 73.5257 80.6125 73.3731 80.9846C73.2205 81.3567 72.996 81.6951 72.7126 81.9804C72.4292 82.2657 72.0924 82.4925 71.7214 82.6477C71.3503 82.8028 70.9524 82.8834 70.5502 82.8847L70.5398 82.8743ZM113.581 120.094H108.355C106.728 120.094 105.119 119.755 103.631 119.098C102.143 118.441 100.808 117.481 99.7114 116.279C98.618 117.482 97.2851 118.443 95.7982 119.1C94.3114 119.757 92.7036 120.095 91.078 120.094H85.852C82.7482 120.091 79.7722 118.857 77.5775 116.662C75.3827 114.468 74.1485 111.492 74.1457 108.388C74.1457 107.576 74.4684 106.797 75.0427 106.222C75.617 105.648 76.396 105.325 77.2082 105.325C78.0204 105.325 78.7993 105.648 79.3736 106.222C79.948 106.797 80.2706 107.576 80.2706 108.388C80.2706 109.868 80.8587 111.288 81.9054 112.334C82.9521 113.381 84.3717 113.969 85.852 113.969H91.078C92.5565 113.966 93.9735 113.377 95.0179 112.331C96.0624 111.284 96.649 109.866 96.649 108.388C96.649 107.576 96.9716 106.797 97.5459 106.222C98.1203 105.648 98.8992 105.325 99.7114 105.325C100.524 105.325 101.303 105.648 101.877 106.222C102.451 106.797 102.774 107.576 102.774 108.388C102.777 109.867 103.366 111.285 104.412 112.331C105.458 113.377 106.876 113.966 108.355 113.969H113.581C115.061 113.966 116.479 113.377 117.525 112.331C118.571 111.285 119.16 109.867 119.163 108.388C119.163 107.576 119.485 106.797 120.06 106.222C120.634 105.648 121.413 105.325 122.225 105.325C123.037 105.325 123.816 105.648 124.391 106.222C124.965 106.797 125.288 107.576 125.288 108.388C125.288 111.492 124.056 114.469 121.863 116.665C119.67 118.862 116.696 120.099 113.592 120.105L113.581 120.094ZM147.331 79.8223C147.331 77.7932 146.525 75.8471 145.09 74.4123C143.655 72.9775 141.709 72.1714 139.68 72.1714C137.651 72.1714 135.705 72.9775 134.27 74.4123C132.835 75.8471 132.029 77.7932 132.029 79.8223C132.029 80.6345 131.707 81.4135 131.132 81.9878C130.558 82.5621 129.779 82.8847 128.967 82.8847C128.155 82.8847 127.376 82.5621 126.801 81.9878C126.227 81.4135 125.904 80.6345 125.904 79.8223C125.904 76.1687 127.356 72.6648 129.939 70.0813C132.523 67.4979 136.027 66.0465 139.68 66.0465C143.334 66.0465 146.838 67.4979 149.421 70.0813C152.005 72.6648 153.456 76.1687 153.456 79.8223C153.456 80.6345 153.133 81.4135 152.559 81.9878C151.985 82.5621 151.206 82.8847 150.393 82.8847C149.581 82.8847 148.802 82.5621 148.228 81.9878C147.654 81.4135 147.331 80.6345 147.331 79.8223Z" fill="#F95936"/>
</svg>
