<svg width="324" height="55" viewBox="0 0 324 55" fill="none" xmlns="http://www.w3.org/2000/svg">
<path d="M69.3925 32.7443H64.9474C65.8454 27.7552 65.3536 22.9002 63.457 17.7621C65.3608 13.6969 66.0591 9.17107 65.4691 4.72112C65.3615 3.93189 64.9984 3.19963 64.4351 2.6364C63.8719 2.07317 63.1396 1.71 62.3504 1.60245C61.3141 1.46399 60.2698 1.39428 59.2243 1.3938C55.5115 1.40151 51.8543 2.29571 48.5568 4.002C40.0459 1.69683 31.0751 1.69683 22.5642 4.002C18.3225 1.81087 13.5096 0.977066 8.77805 1.61363C7.9881 1.71939 7.25485 2.08199 6.69129 2.64555C6.12774 3.2091 5.76515 3.94235 5.65939 4.73229C5.06587 9.18192 5.76294 13.7084 7.6677 17.7733C5.78234 22.9114 5.28679 27.7664 6.1773 32.7555H1.73964C1.27115 32.7767 0.828881 32.9777 0.504854 33.3168C0.180827 33.6558 0 34.1067 0 34.5756C0 35.0446 0.180827 35.4955 0.504854 35.8345C0.828881 36.1736 1.27115 36.3746 1.73964 36.3958H7.08644C7.42923 37.5061 7.83909 38.6239 8.31602 39.7492H5.20109C4.95514 39.7381 4.70948 39.7769 4.47895 39.8633C4.24842 39.9498 4.0378 40.0821 3.85982 40.2522C3.68183 40.4223 3.54017 40.6267 3.44339 40.8531C3.3466 41.0795 3.2967 41.3231 3.2967 41.5694C3.2967 41.8156 3.3466 42.0592 3.44339 42.2856C3.54017 42.512 3.68183 42.7164 3.85982 42.8865C4.0378 43.0566 4.24842 43.1889 4.47895 43.2753C4.70948 43.3618 4.95514 43.4006 5.20109 43.3895H10.0449C10.2796 43.8366 10.5181 44.2875 10.7715 44.742C12.2367 47.3635 14.6164 49.3532 17.4559 50.331C23.9652 52.5666 29.7219 53.6062 35.5717 53.6062C41.4215 53.6062 47.1782 52.5629 53.6875 50.331C56.5266 49.3542 58.9055 47.3641 60.3682 44.742C60.6253 44.2875 60.86 43.8366 61.0948 43.3895H65.9386C66.407 43.3683 66.8493 43.1673 67.1733 42.8282C67.4974 42.4892 67.6782 42.0383 67.6782 41.5694C67.6782 41.1004 67.4974 40.6495 67.1733 40.3105C66.8493 39.9714 66.407 39.7704 65.9386 39.7492H62.8162C63.2931 38.614 63.7029 37.4962 64.0457 36.3958H69.3925C69.6385 36.4069 69.8842 36.3681 70.1147 36.2817C70.3452 36.1952 70.5558 36.0629 70.7338 35.8928C70.9118 35.7227 71.0535 35.5183 71.1503 35.2919C71.247 35.0655 71.2969 34.8219 71.2969 34.5756C71.2969 34.3294 71.247 34.0858 71.1503 33.8594C71.0535 33.633 70.9118 33.4286 70.7338 33.2585C70.5558 33.0884 70.3452 32.9561 70.1147 32.8697C69.8842 32.7832 69.6385 32.7444 69.3925 32.7555V32.7443ZM59.228 5.049C60.1104 5.04895 60.9917 5.10871 61.866 5.22785C62.2163 7.8278 62.044 10.4715 61.3593 13.004C61.0389 12.3855 60.7147 11.7595 60.3607 11.141C58.9703 8.67588 56.7669 6.77015 54.1271 5.74949C55.7892 5.29257 57.5043 5.05704 59.228 5.049ZM9.2587 5.22785C11.8497 4.88018 14.4841 5.05758 17.005 5.74949C14.3616 6.76941 12.156 8.67849 10.7677 11.1485C10.4138 11.7819 10.0859 12.4041 9.76916 13.0115C9.08443 10.4764 8.91216 7.83027 9.26242 5.22785H9.2587ZM25.1463 30.9372C24.8568 30.9372 24.5791 30.8222 24.3744 30.6175C24.1697 30.4127 24.0546 30.135 24.0546 29.8455C24.0682 29.4791 24.0077 29.1137 23.8768 28.7712C23.746 28.4287 23.5474 28.1161 23.293 27.8521C23.0385 27.5881 22.7335 27.3781 22.396 27.2346C22.0586 27.0912 21.6957 27.0173 21.3291 27.0173C20.9624 27.0173 20.5995 27.0912 20.2621 27.2346C19.9246 27.3781 19.6196 27.5881 19.3652 27.8521C19.1107 28.1161 18.9121 28.4287 18.7813 28.7712C18.6504 29.1137 18.5899 29.4791 18.6035 29.8455C18.6035 30.135 18.4885 30.4127 18.2837 30.6175C18.079 30.8222 17.8013 30.9372 17.5118 30.9372C17.2222 30.9372 16.9446 30.8222 16.7398 30.6175C16.5351 30.4127 16.4201 30.135 16.4201 29.8455C16.402 29.1895 16.5156 28.5365 16.7542 27.9251C16.9927 27.3137 17.3514 26.7563 17.8091 26.2859C18.2667 25.8155 18.814 25.4416 19.4186 25.1863C20.0231 24.9309 20.6728 24.7994 21.3291 24.7994C21.9854 24.7994 22.635 24.9309 23.2396 25.1863C23.8442 25.4416 24.3914 25.8155 24.8491 26.2859C25.3067 26.7563 25.6654 27.3137 25.904 27.9251C26.1425 28.5365 26.2561 29.1895 26.2381 29.8455C26.2386 29.9889 26.2108 30.1309 26.1564 30.2636C26.102 30.3962 26.022 30.5168 25.9209 30.6186C25.8199 30.7203 25.6998 30.8011 25.5676 30.8564C25.4353 30.9117 25.2934 30.9405 25.1501 30.9409L25.1463 30.9372ZM40.49 44.2055H38.627C38.047 44.2056 37.4734 44.0847 36.9429 43.8505C36.4123 43.6163 35.9364 43.274 35.5456 42.8455C35.1558 43.2743 34.6806 43.6168 34.1506 43.851C33.6206 44.0852 33.0474 44.206 32.4679 44.2055H30.6049C29.4985 44.2045 28.4376 43.7645 27.6552 42.9821C26.8728 42.1997 26.4328 41.1389 26.4318 40.0324C26.4318 39.7428 26.5468 39.4651 26.7516 39.2604C26.9563 39.0557 27.234 38.9407 27.5235 38.9407C27.8131 38.9407 28.0908 39.0557 28.2955 39.2604C28.5002 39.4651 28.6152 39.7428 28.6152 40.0324C28.6152 40.5601 28.8249 41.0662 29.198 41.4393C29.5712 41.8124 30.0772 42.0221 30.6049 42.0221H32.4679C32.995 42.0211 33.5001 41.811 33.8724 41.438C34.2448 41.0649 34.4539 40.5594 34.4539 40.0324C34.4539 39.7428 34.5689 39.4651 34.7736 39.2604C34.9784 39.0557 35.2561 38.9407 35.5456 38.9407C35.8351 38.9407 36.1128 39.0557 36.3176 39.2604C36.5223 39.4651 36.6373 39.7428 36.6373 40.0324C36.6383 40.5598 36.8483 41.0653 37.2212 41.4382C37.5941 41.8111 38.0996 42.0211 38.627 42.0221H40.49C41.0174 42.0211 41.5229 41.8111 41.8958 41.4382C42.2688 41.0653 42.4787 40.5598 42.4797 40.0324C42.4797 39.7428 42.5947 39.4651 42.7994 39.2604C43.0042 39.0557 43.2819 38.9407 43.5714 38.9407C43.8609 38.9407 44.1386 39.0557 44.3434 39.2604C44.5481 39.4651 44.6631 39.7428 44.6631 40.0324C44.6631 41.1389 44.2241 42.2001 43.4424 42.9832C42.6607 43.7663 41.6002 44.2072 40.4937 44.2092L40.49 44.2055ZM52.5212 29.8492C52.5212 29.1259 52.2339 28.4321 51.7224 27.9206C51.2109 27.4091 50.5172 27.1218 49.7938 27.1218C49.0704 27.1218 48.3767 27.4091 47.8652 27.9206C47.3537 28.4321 47.0664 29.1259 47.0664 29.8492C47.0664 30.1388 46.9514 30.4165 46.7466 30.6212C46.5419 30.8259 46.2642 30.9409 45.9747 30.9409C45.6851 30.9409 45.4074 30.8259 45.2027 30.6212C44.998 30.4165 44.8829 30.1388 44.8829 29.8492C44.8829 28.5468 45.4003 27.2977 46.3213 26.3767C47.2423 25.4558 48.4914 24.9384 49.7938 24.9384C51.0962 24.9384 52.3453 25.4558 53.2663 26.3767C54.1873 27.2977 54.7047 28.5468 54.7047 29.8492C54.7047 30.1388 54.5897 30.4165 54.3849 30.6212C54.1802 30.8259 53.9025 30.9409 53.613 30.9409C53.3234 30.9409 53.0457 30.8259 52.841 30.6212C52.6363 30.4165 52.5212 30.1388 52.5212 29.8492Z" fill="#F95936"/>
<path d="M92.6634 53.9674C92.6309 53.9701 92.5983 53.9626 92.5702 53.9459C92.5421 53.9292 92.52 53.9041 92.5069 53.8742L90.5731 49.8017C90.5705 49.7899 90.5639 49.7793 90.5544 49.7718C90.5449 49.7644 90.533 49.7604 90.5209 49.7607H88.2853C88.2782 49.7594 88.2708 49.7598 88.2639 49.762C88.257 49.7641 88.2506 49.7679 88.2455 49.773C88.2404 49.7782 88.2366 49.7845 88.2344 49.7914C88.2323 49.7984 88.2318 49.8057 88.2332 49.8129V53.8332C88.2356 53.8514 88.2339 53.8699 88.228 53.8873C88.2221 53.9047 88.2123 53.9205 88.1993 53.9335C88.1863 53.9465 88.1705 53.9563 88.1532 53.9622C88.1358 53.968 88.1172 53.9698 88.099 53.9674H87.4321C87.4139 53.9698 87.3954 53.968 87.378 53.9622C87.3606 53.9563 87.3448 53.9465 87.3318 53.9335C87.3188 53.9205 87.309 53.9047 87.3031 53.8873C87.2973 53.8699 87.2955 53.8514 87.298 53.8332V44.8908C87.2955 44.8726 87.2973 44.8541 87.3031 44.8367C87.309 44.8193 87.3188 44.8035 87.3318 44.7905C87.3448 44.7776 87.3606 44.7678 87.378 44.7619C87.3954 44.756 87.4139 44.7542 87.4321 44.7567H90.8339C91.1703 44.7427 91.5059 44.7979 91.82 44.9191C92.1341 45.0402 92.4199 45.2247 92.6597 45.4609C92.9005 45.7049 93.0884 45.9959 93.2115 46.3159C93.3346 46.6358 93.3903 46.9777 93.375 47.3202C93.3905 47.8833 93.2145 48.435 92.8758 48.8851C92.5397 49.3152 92.0592 49.6091 91.5232 49.7123C91.486 49.7123 91.4785 49.7495 91.4972 49.7756L93.4682 53.822C93.4724 53.8442 93.4724 53.867 93.4682 53.8891C93.4682 53.9487 93.4347 53.9823 93.3639 53.9823H92.6671L92.6634 53.9674ZM88.2891 45.5839C88.2819 45.5825 88.2746 45.583 88.2676 45.5851C88.2607 45.5873 88.2544 45.5911 88.2492 45.5962C88.2441 45.6013 88.2403 45.6077 88.2381 45.6146C88.236 45.6215 88.2356 45.6289 88.2369 45.636V48.9596C88.2369 48.9969 88.2369 49.0118 88.2891 49.0118H90.7333C90.9605 49.0236 91.1877 48.9875 91.4 48.9059C91.6124 48.8243 91.8053 48.699 91.9662 48.5381C92.1271 48.3773 92.2524 48.1844 92.334 47.972C92.4155 47.7596 92.4516 47.5325 92.4398 47.3053C92.4488 47.0767 92.4115 46.8486 92.3302 46.6348C92.2489 46.4209 92.1252 46.2257 91.9666 46.0608C91.8044 45.9015 91.6113 45.777 91.3992 45.695C91.1871 45.613 90.9605 45.5752 90.7333 45.5839H88.2891ZM97.6562 54.0717C97.0754 54.0861 96.5051 53.9151 96.028 53.5836C95.5693 53.2586 95.2354 52.7866 95.0816 52.2459C94.9426 51.7186 94.8798 51.174 94.8953 50.6289C94.8792 50.0886 94.942 49.5489 95.0816 49.0267C95.2294 48.4901 95.5585 48.0214 96.0131 47.7002C96.4987 47.366 97.0781 47.195 97.6674 47.2121C98.2424 47.1983 98.8066 47.3694 99.277 47.7002C99.7254 48.0202 100.052 48.4824 100.205 49.0118C100.346 49.5387 100.407 50.0838 100.387 50.6289C100.408 51.174 100.347 51.7192 100.205 52.2459C100.058 52.785 99.7305 53.2572 99.277 53.5836C98.8029 53.9155 98.2348 54.0866 97.6562 54.0717ZM97.6562 53.2557C98.0419 53.2693 98.4203 53.1485 98.7268 52.9141C99.0333 52.6796 99.2488 52.346 99.3366 51.9702C99.4271 51.5341 99.4672 51.089 99.4559 50.6438C99.468 50.1979 99.433 49.7521 99.3515 49.3136C99.2589 48.94 99.0421 48.6089 98.7368 48.3746C98.4217 48.1379 98.0353 48.0157 97.6413 48.0281C97.2538 48.0119 96.8728 48.1314 96.5639 48.3661C96.2551 48.6008 96.0379 48.9359 95.9497 49.3136C95.8666 49.7519 95.8304 50.1978 95.8417 50.6438C95.8305 51.0885 95.8667 51.5332 95.9497 51.9702C96.0315 52.3437 96.2426 52.6763 96.5459 52.9092C96.8684 53.1481 97.2626 53.2703 97.6637 53.2557H97.6562ZM105.041 47.227C105.347 47.2118 105.653 47.2587 105.941 47.365C106.228 47.4713 106.491 47.6348 106.714 47.8455C106.927 48.0634 107.092 48.3228 107.2 48.6075C107.307 48.8921 107.355 49.1959 107.34 49.4999V53.8332C107.343 53.8514 107.341 53.8699 107.335 53.8873C107.329 53.9047 107.319 53.9205 107.306 53.9335C107.293 53.9465 107.277 53.9563 107.26 53.9622C107.243 53.968 107.224 53.9698 107.206 53.9674H106.539C106.521 53.9698 106.502 53.968 106.485 53.9622C106.468 53.9563 106.452 53.9465 106.439 53.9335C106.426 53.9205 106.416 53.9047 106.41 53.8873C106.404 53.8699 106.402 53.8514 106.405 53.8332V49.6825C106.414 49.4663 106.379 49.2505 106.304 49.0477C106.228 48.845 106.113 48.6592 105.965 48.5013C105.822 48.3505 105.648 48.2314 105.455 48.1518C105.263 48.0722 105.056 48.0339 104.847 48.0393C104.632 48.0274 104.416 48.0612 104.215 48.1382C104.013 48.2153 103.83 48.334 103.678 48.4866C103.525 48.6392 103.406 48.8222 103.329 49.0238C103.252 49.2254 103.218 49.4409 103.23 49.6564V53.8332C103.23 53.9227 103.189 53.9674 103.1 53.9674H102.429C102.411 53.9692 102.393 53.967 102.376 53.9608C102.359 53.9547 102.344 53.9448 102.332 53.9319C102.319 53.919 102.31 53.9034 102.304 53.8863C102.298 53.8692 102.296 53.8511 102.299 53.8332V47.4506C102.296 47.4327 102.298 47.4146 102.304 47.3975C102.31 47.3804 102.319 47.3649 102.332 47.352C102.344 47.339 102.359 47.3291 102.376 47.323C102.393 47.3169 102.411 47.3146 102.429 47.3165H103.1C103.189 47.3165 103.23 47.3612 103.23 47.4506V48.0132C103.23 48.021 103.231 48.0289 103.235 48.036C103.238 48.0431 103.243 48.0494 103.249 48.0542C103.249 48.0542 103.275 48.0542 103.286 48.0542C103.49 47.7808 103.759 47.5631 104.069 47.4212C104.379 47.2792 104.72 47.2176 105.06 47.2419L105.041 47.227ZM112.039 47.2531C112.298 47.246 112.554 47.305 112.784 47.4245C112.817 47.4371 112.843 47.4621 112.858 47.4942C112.873 47.5262 112.874 47.5628 112.862 47.5959L112.72 48.2368C112.718 48.2554 112.711 48.273 112.699 48.288C112.688 48.3031 112.673 48.3151 112.656 48.3229C112.639 48.3306 112.62 48.334 112.602 48.3327C112.583 48.3313 112.565 48.3252 112.549 48.315C112.385 48.2528 112.21 48.2224 112.035 48.2256H111.863C111.653 48.2306 111.445 48.278 111.253 48.3651C111.061 48.4522 110.888 48.5771 110.746 48.7323C110.444 49.0632 110.283 49.4992 110.299 49.947V53.822C110.299 53.9115 110.258 53.9562 110.168 53.9562H109.497C109.48 53.958 109.461 53.9558 109.445 53.9496C109.428 53.9435 109.412 53.9336 109.4 53.9207C109.387 53.9078 109.378 53.8922 109.372 53.8751C109.366 53.858 109.365 53.8399 109.367 53.822V47.4506C109.365 47.4327 109.366 47.4146 109.372 47.3975C109.378 47.3804 109.387 47.3649 109.4 47.352C109.412 47.339 109.428 47.3291 109.445 47.323C109.461 47.3169 109.48 47.3146 109.497 47.3165H110.168C110.258 47.3165 110.299 47.3612 110.299 47.4506V48.2517C110.299 48.279 110.306 48.2939 110.321 48.2964C110.321 48.2964 110.343 48.2964 110.351 48.2778C110.521 47.9756 110.763 47.7197 111.055 47.5326C111.353 47.3504 111.697 47.2573 112.046 47.2643L112.039 47.2531ZM116.61 54.0717C116.03 54.0861 115.459 53.9151 114.982 53.5836C114.524 53.2575 114.191 52.786 114.036 52.2459C113.898 51.7184 113.837 51.1738 113.853 50.6289C113.836 50.0888 113.898 49.5491 114.036 49.0267C114.187 48.4848 114.523 48.0129 114.986 47.6928C115.471 47.3585 116.051 47.1876 116.64 47.2047C117.215 47.1909 117.779 47.362 118.25 47.6928C118.698 48.0119 119.024 48.4746 119.174 49.0043C119.316 49.531 119.379 50.0761 119.36 50.6214C119.38 51.1668 119.317 51.712 119.174 52.2385C119.03 52.7778 118.703 53.2505 118.25 53.5761C117.775 53.9086 117.205 54.0797 116.625 54.0642L116.61 54.0717ZM116.61 53.2557C116.997 53.2701 117.376 53.1498 117.683 52.9153C117.99 52.6807 118.207 52.3466 118.295 51.9702C118.385 51.5341 118.425 51.089 118.414 50.6438C118.425 50.1978 118.389 49.7519 118.306 49.3136C118.214 48.9414 118 48.6107 117.698 48.3746C117.381 48.1395 116.994 48.0175 116.599 48.0281C116.211 48.011 115.829 48.1301 115.52 48.3649C115.21 48.5996 114.992 48.9352 114.904 49.3136C114.822 49.7521 114.787 50.1979 114.8 50.6438C114.788 51.0884 114.823 51.533 114.904 51.9702C114.987 52.344 115.2 52.6765 115.504 52.9092C115.826 53.1484 116.22 53.2706 116.622 53.2557H116.61ZM123.995 47.227C124.302 47.2113 124.608 47.2581 124.895 47.3644C125.183 47.4707 125.446 47.6344 125.668 47.8455C125.881 48.0634 126.046 48.3228 126.154 48.6075C126.261 48.8921 126.309 49.1959 126.294 49.4999V53.8332C126.297 53.8511 126.295 53.8692 126.289 53.8863C126.283 53.9034 126.274 53.919 126.261 53.9319C126.249 53.9448 126.234 53.9547 126.217 53.9608C126.2 53.967 126.182 53.9692 126.164 53.9674H125.493C125.475 53.9692 125.457 53.967 125.44 53.9608C125.423 53.9547 125.408 53.9448 125.395 53.9319C125.383 53.919 125.373 53.9034 125.368 53.8863C125.362 53.8692 125.36 53.8511 125.363 53.8332V49.6825C125.371 49.466 125.336 49.2502 125.259 49.0474C125.183 48.8447 125.068 48.659 124.919 48.5013C124.776 48.3505 124.602 48.2314 124.409 48.1518C124.217 48.0722 124.01 48.0339 123.802 48.0393C123.586 48.0274 123.371 48.0612 123.169 48.1382C122.967 48.2153 122.784 48.334 122.632 48.4866C122.479 48.6392 122.36 48.8222 122.283 49.0238C122.206 49.2254 122.173 49.4409 122.184 49.6564V53.8332C122.187 53.8511 122.185 53.8692 122.179 53.8863C122.174 53.9034 122.164 53.919 122.152 53.9319C122.139 53.9448 122.124 53.9547 122.107 53.9608C122.09 53.967 122.072 53.9692 122.054 53.9674H121.383C121.294 53.9674 121.253 53.9227 121.253 53.8332V47.4506C121.253 47.3612 121.294 47.3165 121.383 47.3165H122.054C122.072 47.3146 122.09 47.3169 122.107 47.323C122.124 47.3291 122.139 47.339 122.152 47.352C122.164 47.3649 122.174 47.3804 122.179 47.3975C122.185 47.4146 122.187 47.4327 122.184 47.4506V48.0132C122.184 48.021 122.185 48.0289 122.189 48.036C122.192 48.0431 122.197 48.0494 122.203 48.0542C122.203 48.0542 122.229 48.0542 122.237 48.0542C122.441 47.7811 122.71 47.5636 123.02 47.4216C123.33 47.2797 123.67 47.2179 124.01 47.2419L123.995 47.227ZM133.31 49.526C133.348 49.8313 133.365 50.1387 133.362 50.4463V50.8673C133.365 50.885 133.363 50.9031 133.358 50.92C133.352 50.937 133.342 50.9524 133.33 50.965C133.317 50.9777 133.302 50.9872 133.285 50.9929C133.268 50.9986 133.25 51.0002 133.232 50.9977H129.003C128.966 50.9977 128.947 51.0164 128.947 51.0499C128.948 51.3622 128.976 51.6738 129.029 51.9814C129.112 52.3583 129.331 52.6913 129.644 52.9166C130.001 53.1554 130.425 53.2742 130.855 53.2557C131.196 53.263 131.532 53.1767 131.827 53.0061C132.11 52.8384 132.338 52.5925 132.483 52.2981C132.535 52.2199 132.599 52.2012 132.666 52.2459L133.18 52.5478C133.196 52.5559 133.21 52.5672 133.221 52.581C133.232 52.5948 133.24 52.6107 133.245 52.6278C133.25 52.6449 133.252 52.6628 133.249 52.6804C133.247 52.6981 133.241 52.715 133.232 52.7303C133.012 53.1524 132.669 53.4979 132.248 53.7214C131.784 53.9733 131.263 54.1016 130.736 54.094C130.181 54.1058 129.636 53.9514 129.171 53.6506C128.747 53.3545 128.429 52.93 128.265 52.4397C128.085 51.8537 128.006 51.2414 128.031 50.6289C128.031 50.2563 128.031 49.9582 128.031 49.7272C128.039 49.5167 128.072 49.308 128.127 49.1049C128.261 48.5585 128.579 48.0752 129.029 47.7375C129.501 47.3867 130.077 47.2055 130.665 47.2233C131.333 47.1808 131.992 47.3969 132.505 47.8269C132.961 48.2884 133.243 48.8921 133.307 49.5372L133.31 49.526ZM130.669 48.0356C130.284 48.0225 129.906 48.1393 129.595 48.3672C129.311 48.5941 129.115 48.9129 129.04 49.2689C128.973 49.5624 128.937 49.8621 128.932 50.1631C128.932 50.2004 128.932 50.2153 128.988 50.2153H132.39C132.397 50.2166 132.404 50.2162 132.411 50.214C132.418 50.2119 132.425 50.2081 132.43 50.203C132.435 50.1978 132.439 50.1915 132.441 50.1846C132.443 50.1776 132.443 50.1703 132.442 50.1631C132.435 49.881 132.409 49.5997 132.364 49.321C132.281 48.9509 132.074 48.6199 131.779 48.3821C131.457 48.141 131.063 48.0186 130.661 48.0356H130.669ZM137.748 54.0791C137.167 54.0935 136.597 53.9226 136.12 53.591C135.661 53.266 135.327 52.7941 135.173 52.2534C135.034 51.726 134.972 51.1815 134.987 50.6363C134.971 50.096 135.034 49.5563 135.173 49.0341C135.321 48.4976 135.65 48.0289 136.105 47.7077C136.59 47.3734 137.17 47.2025 137.759 47.2196C138.335 47.2063 138.9 47.3773 139.372 47.7077C139.819 48.0291 140.144 48.4909 140.297 49.0192C140.437 49.5462 140.499 50.0912 140.479 50.6363C140.5 51.1815 140.438 51.7266 140.297 52.2534C140.15 52.7914 139.824 53.2632 139.372 53.591C138.897 53.9225 138.328 54.0935 137.748 54.0791ZM137.748 53.2632C138.134 53.2767 138.512 53.156 138.818 52.9215C139.125 52.6871 139.341 52.3534 139.428 51.9777C139.519 51.5416 139.559 51.0965 139.548 50.6512C139.558 50.2054 139.523 49.7598 139.443 49.321C139.349 48.9491 139.134 48.619 138.832 48.3821C138.515 48.1464 138.128 48.0243 137.733 48.0356C137.341 48.0239 136.958 48.1462 136.645 48.3821C136.345 48.6203 136.132 48.9501 136.038 49.321C135.958 49.7598 135.923 50.2054 135.933 50.6512C135.923 51.0958 135.958 51.5402 136.038 51.9777C136.122 52.3509 136.335 52.6828 136.638 52.9166C136.96 53.1555 137.354 53.2777 137.755 53.2632H137.748ZM144.567 54.027C144.121 54.0349 143.678 53.9551 143.262 53.7922C142.919 53.6631 142.616 53.4459 142.383 53.1625C142.18 52.9133 142.069 52.6012 142.07 52.2795V52.123C142.068 52.1051 142.07 52.087 142.077 52.0701C142.083 52.0532 142.093 52.0379 142.106 52.0253C142.118 52.0128 142.134 52.0033 142.151 51.9976C142.168 51.992 142.186 51.9902 142.204 51.9926H142.834C142.852 51.9901 142.87 51.9918 142.887 51.9974C142.904 52.0031 142.919 52.0127 142.932 52.0253C142.944 52.0379 142.954 52.0533 142.959 52.0703C142.965 52.0872 142.967 52.1053 142.964 52.123V52.2273C142.973 52.3794 143.019 52.527 143.098 52.657C143.177 52.787 143.288 52.8954 143.419 52.9725C143.755 53.1954 144.152 53.3075 144.555 53.293C144.952 53.316 145.345 53.2073 145.673 52.9837C145.802 52.8988 145.908 52.7832 145.982 52.6473C146.055 52.5114 146.094 52.3594 146.094 52.205C146.098 52.1048 146.08 52.005 146.043 51.912C146.006 51.819 145.95 51.7347 145.878 51.6647C145.729 51.5234 145.555 51.4121 145.364 51.3368C145.166 51.2586 144.865 51.158 144.451 51.035C144.039 50.9229 143.636 50.7822 143.244 50.614C142.938 50.4815 142.667 50.2814 142.45 50.029C142.228 49.7632 142.113 49.4247 142.126 49.0789C142.118 48.8188 142.173 48.5607 142.288 48.3269C142.402 48.0931 142.572 47.8908 142.782 47.7375C143.29 47.3844 143.9 47.2089 144.518 47.2382C144.957 47.2302 145.392 47.31 145.8 47.4729C146.14 47.6082 146.436 47.8337 146.657 48.125C146.858 48.3909 146.965 48.7158 146.962 49.049V49.09C146.962 49.1795 146.918 49.2204 146.828 49.2204H146.213C146.124 49.2204 146.079 49.1795 146.079 49.09V49.049C146.076 48.8993 146.035 48.7528 145.961 48.6227C145.887 48.4926 145.782 48.383 145.654 48.3039C145.311 48.087 144.909 47.9816 144.503 48.002C144.126 47.9841 143.751 48.0774 143.426 48.2703C143.299 48.348 143.195 48.4578 143.124 48.5886C143.052 48.7194 143.017 48.8666 143.02 49.0155C143.016 49.1547 143.05 49.2924 143.12 49.4129C143.19 49.5334 143.292 49.632 143.415 49.6974C143.799 49.9064 144.209 50.0654 144.634 50.1706C145.053 50.2894 145.466 50.4299 145.871 50.5916C146.181 50.7191 146.46 50.9138 146.687 51.1617C146.928 51.438 147.051 51.7979 147.029 52.164C147.037 52.4292 146.98 52.6923 146.863 52.9305C146.746 53.1687 146.573 53.375 146.359 53.5314C145.841 53.8949 145.217 54.0746 144.585 54.0419L144.567 54.027ZM153.963 45.5801C153.785 45.5586 153.605 45.5761 153.434 45.6314C153.264 45.6868 153.107 45.7786 152.976 45.9006C152.771 46.2286 152.68 46.6147 152.715 46.9998V47.2606C152.715 47.2978 152.715 47.3127 152.767 47.3127H154.258C154.276 47.3109 154.294 47.3131 154.311 47.3193C154.328 47.3254 154.343 47.3353 154.356 47.3482C154.368 47.3611 154.378 47.3767 154.383 47.3938C154.389 47.4109 154.391 47.429 154.388 47.4469V48.0356C154.391 48.0534 154.389 48.0716 154.383 48.0886C154.378 48.1057 154.368 48.1213 154.356 48.1342C154.343 48.1471 154.328 48.157 154.311 48.1632C154.294 48.1693 154.276 48.1715 154.258 48.1697H152.767C152.73 48.1697 152.715 48.1697 152.715 48.2219V53.8295C152.718 53.8477 152.716 53.8662 152.71 53.8836C152.704 53.901 152.694 53.9168 152.681 53.9298C152.668 53.9428 152.653 53.9526 152.635 53.9584C152.618 53.9643 152.599 53.9661 152.581 53.9636H151.925C151.836 53.9636 151.795 53.9189 151.795 53.8295V48.2256C151.796 48.2185 151.796 48.2111 151.794 48.2042C151.792 48.1972 151.788 48.1909 151.783 48.1858C151.777 48.1806 151.771 48.1768 151.764 48.1747C151.757 48.1725 151.75 48.1721 151.743 48.1734H150.86C150.842 48.1753 150.824 48.173 150.807 48.1669C150.79 48.1607 150.775 48.1508 150.762 48.1379C150.749 48.125 150.74 48.1095 150.734 48.0924C150.729 48.0753 150.727 48.0571 150.729 48.0393V47.4506C150.727 47.4327 150.729 47.4146 150.734 47.3975C150.74 47.3804 150.749 47.3649 150.762 47.352C150.775 47.339 150.79 47.3291 150.807 47.323C150.824 47.3169 150.842 47.3146 150.86 47.3165H151.743C151.75 47.3178 151.757 47.3174 151.764 47.3152C151.771 47.3131 151.777 47.3093 151.783 47.3041C151.788 47.299 151.792 47.2927 151.794 47.2857C151.796 47.2788 151.796 47.2714 151.795 47.2643V46.9476C151.777 46.5128 151.839 46.0785 151.978 45.6658C152.092 45.3627 152.321 45.1165 152.615 44.9803C153.017 44.8191 153.449 44.7454 153.882 44.7642H154.254C154.272 44.7623 154.29 44.7645 154.307 44.7707C154.324 44.7768 154.339 44.7867 154.352 44.7996C154.364 44.8125 154.374 44.8281 154.379 44.8452C154.385 44.8623 154.387 44.8804 154.385 44.8983V45.4572C154.387 45.4749 154.385 45.4929 154.38 45.5099C154.374 45.5268 154.364 45.5422 154.352 45.5549C154.339 45.5675 154.324 45.5771 154.307 45.5827C154.29 45.5884 154.272 45.5901 154.254 45.5876H153.952L153.963 45.5801ZM160.488 49.5222C160.527 49.8274 160.545 50.1349 160.54 50.4426V50.8636C160.542 50.8813 160.541 50.8993 160.535 50.9163C160.529 50.9333 160.52 50.9487 160.507 50.9613C160.494 50.9739 160.479 50.9835 160.462 50.9892C160.445 50.9948 160.427 50.9965 160.409 50.994H156.166C156.159 50.9934 156.151 50.9944 156.145 50.9968C156.138 50.9993 156.132 51.0031 156.127 51.008C156.122 51.013 156.119 51.019 156.116 51.0256C156.114 51.0322 156.113 51.0392 156.113 51.0462C156.116 51.3582 156.142 51.6696 156.192 51.9777C156.276 52.3548 156.496 52.6878 156.81 52.9129C157.166 53.1512 157.589 53.2699 158.017 53.252C158.358 53.2593 158.695 53.173 158.99 53.0023C159.273 52.8349 159.502 52.5891 159.649 52.2944C159.701 52.2161 159.761 52.1975 159.832 52.2422L160.346 52.544C160.362 52.5526 160.375 52.5641 160.386 52.5779C160.397 52.5917 160.405 52.6075 160.41 52.6245C160.415 52.6415 160.416 52.6592 160.414 52.6767C160.412 52.6942 160.407 52.7112 160.398 52.7266C160.178 53.1498 159.833 53.4956 159.411 53.7177C158.948 53.9695 158.429 54.0978 157.902 54.0903C157.351 54.1028 156.809 53.9511 156.344 53.6544C155.92 53.3592 155.602 52.9344 155.439 52.4434C155.256 51.8581 155.175 51.2454 155.201 50.6326C155.201 50.26 155.2 49.9619 155.223 49.7309C155.231 49.5205 155.264 49.3117 155.32 49.1087C155.453 48.5622 155.772 48.0789 156.221 47.7412C156.693 47.3904 157.27 47.2092 157.857 47.227C158.524 47.1831 159.183 47.3995 159.694 47.8306C160.15 48.2912 160.433 48.8954 160.495 49.5409L160.488 49.5222ZM157.85 48.0318C157.466 48.0175 157.089 48.1345 156.78 48.3635C156.494 48.5896 156.295 48.9084 156.218 49.2652C156.153 49.5589 156.118 49.8585 156.113 50.1594C156.112 50.1665 156.112 50.1739 156.115 50.1808C156.117 50.1878 156.121 50.1941 156.126 50.1992C156.131 50.2044 156.137 50.2082 156.144 50.2103C156.151 50.2125 156.158 50.2129 156.166 50.2116H159.567C159.605 50.2116 159.623 50.2116 159.623 50.1594C159.617 49.877 159.59 49.5956 159.541 49.3173C159.46 48.9474 159.255 48.6163 158.96 48.3784C158.638 48.1378 158.244 48.0155 157.842 48.0318H157.85ZM162.526 53.9711C162.436 53.9711 162.395 53.9264 162.395 53.8369V44.8946C162.395 44.8051 162.436 44.7604 162.526 44.7604H163.196C163.214 44.7586 163.232 44.7608 163.249 44.767C163.266 44.7731 163.282 44.783 163.294 44.7959C163.307 44.8088 163.316 44.8244 163.322 44.8415C163.328 44.8586 163.329 44.8767 163.327 44.8946V53.8369C163.329 53.8548 163.328 53.8729 163.322 53.89C163.316 53.9071 163.307 53.9227 163.294 53.9356C163.282 53.9485 163.266 53.9584 163.249 53.9645C163.232 53.9707 163.214 53.9729 163.196 53.9711H162.526ZM166.032 46.1092C165.933 46.1129 165.835 46.0961 165.743 46.06C165.65 46.0238 165.567 45.969 165.497 45.8991C165.427 45.8292 165.372 45.7455 165.336 45.6535C165.3 45.5614 165.283 45.4629 165.287 45.364C165.281 45.2648 165.297 45.1655 165.333 45.0726C165.368 44.9798 165.423 44.8954 165.493 44.8251C165.563 44.7548 165.648 44.7001 165.741 44.6646C165.833 44.629 165.933 44.6135 166.032 44.6188C166.227 44.6147 166.415 44.6869 166.557 44.82C166.628 44.89 166.682 44.9739 166.718 45.0663C166.754 45.1587 166.77 45.2576 166.766 45.3566C166.769 45.4538 166.752 45.5505 166.716 45.6409C166.68 45.7312 166.626 45.8133 166.557 45.882C166.416 46.0178 166.228 46.0928 166.032 46.0906V46.1092ZM165.659 53.9524C165.642 53.9549 165.624 53.9533 165.607 53.9476C165.59 53.9419 165.574 53.9324 165.562 53.9197C165.549 53.9071 165.539 53.8917 165.534 53.8747C165.528 53.8578 165.526 53.8398 165.529 53.822V47.4357C165.526 47.418 165.528 47.3999 165.534 47.383C165.539 47.366 165.549 47.3506 165.562 47.338C165.574 47.3253 165.59 47.3158 165.607 47.3101C165.624 47.3045 165.642 47.3028 165.659 47.3053H166.33C166.348 47.3028 166.366 47.3045 166.383 47.3101C166.4 47.3158 166.415 47.3253 166.428 47.338C166.44 47.3506 166.45 47.366 166.456 47.383C166.461 47.3999 166.463 47.418 166.46 47.4357V53.822C166.463 53.8398 166.461 53.8578 166.456 53.8747C166.45 53.8917 166.44 53.9071 166.428 53.9197C166.415 53.9324 166.4 53.9419 166.383 53.9476C166.366 53.9533 166.348 53.9549 166.33 53.9524H165.659ZM171.248 54.0717C170.667 54.0871 170.097 53.9131 169.624 53.5761C169.176 53.2482 168.851 52.78 168.7 52.2459C168.57 51.7133 168.512 51.1657 168.528 50.6177C168.519 50.0774 168.577 49.538 168.7 49.0118C168.853 48.4759 169.188 48.0098 169.646 47.6928C170.122 47.3585 170.693 47.1861 171.274 47.2009C171.866 47.1871 172.446 47.3577 172.936 47.6891C173.374 47.9702 173.698 48.3982 173.849 48.8963C173.887 49.0254 173.915 49.1575 173.931 49.2912V49.3173C173.931 49.3769 173.89 49.4179 173.812 49.4365L173.152 49.526H173.111C173.052 49.526 173.011 49.4887 172.996 49.4105L172.955 49.213C172.869 48.8703 172.664 48.5692 172.377 48.3635C172.054 48.1266 171.66 48.0047 171.26 48.0169C170.858 47.999 170.463 48.1215 170.142 48.3635C169.851 48.5983 169.65 48.9258 169.572 49.2912C169.484 49.7278 169.446 50.1726 169.456 50.6177C169.444 51.0677 169.482 51.5178 169.572 51.9591C169.647 52.3287 169.848 52.6607 170.142 52.898C170.463 53.1399 170.858 53.2625 171.26 53.2445C171.658 53.2553 172.05 53.1378 172.377 52.9092C172.675 52.7075 172.884 52.3995 172.962 52.0485V51.9963V51.9441C172.962 51.8584 173.022 51.8212 173.119 51.8398L173.763 51.9441C173.849 51.9628 173.89 52.0112 173.879 52.0895L173.827 52.354C173.693 52.8652 173.369 53.3062 172.921 53.5873C172.426 53.9102 171.844 54.0752 171.252 54.0605L171.248 54.0717ZM180.627 49.526C180.666 49.8311 180.684 50.1387 180.679 50.4463V50.8673C180.681 50.885 180.68 50.9031 180.674 50.92C180.668 50.937 180.659 50.9524 180.646 50.965C180.634 50.9777 180.618 50.9872 180.601 50.9929C180.584 50.9986 180.566 51.0002 180.548 50.9977H176.331C176.324 50.9972 176.317 50.9981 176.31 51.0006C176.303 51.003 176.297 51.0068 176.292 51.0118C176.288 51.0167 176.284 51.0227 176.281 51.0293C176.279 51.0359 176.278 51.0429 176.278 51.0499C176.281 51.3619 176.307 51.6733 176.357 51.9814C176.441 52.3586 176.661 52.6915 176.975 52.9166C177.331 53.1549 177.754 53.2736 178.182 53.2557C178.523 53.263 178.86 53.1767 179.155 53.0061C179.438 52.8375 179.666 52.5919 179.814 52.2981C179.867 52.2199 179.926 52.2012 179.997 52.2459L180.507 52.5478C180.524 52.5556 180.538 52.5667 180.55 52.5803C180.561 52.5939 180.57 52.6097 180.575 52.6269C180.58 52.644 180.582 52.662 180.58 52.6798C180.578 52.6976 180.572 52.7148 180.563 52.7303C180.343 53.1535 179.998 53.4993 179.576 53.7214C179.113 53.9732 178.594 54.1015 178.067 54.094C177.513 54.1058 176.968 53.9514 176.502 53.6506C176.077 53.3555 175.76 52.9306 175.597 52.4397C175.413 51.8543 175.333 51.2417 175.358 50.6289C175.358 50.2563 175.358 49.9582 175.381 49.7272C175.389 49.5167 175.421 49.308 175.477 49.1049C175.611 48.5585 175.929 48.0752 176.379 47.7375C176.85 47.3875 177.425 47.2063 178.011 47.2233C178.679 47.1808 179.338 47.3969 179.852 47.8269C180.308 48.2875 180.591 48.8917 180.653 49.5372L180.627 49.526ZM177.985 48.0356C177.601 48.0224 177.224 48.1393 176.916 48.3672C176.631 48.5948 176.434 48.9131 176.357 49.2689C176.292 49.5626 176.257 49.8623 176.252 50.1631C176.251 50.1703 176.251 50.1776 176.254 50.1846C176.256 50.1915 176.26 50.1978 176.265 50.203C176.27 50.2081 176.276 50.2119 176.283 50.214C176.29 50.2162 176.297 50.2166 176.305 50.2153H179.706C179.744 50.2153 179.759 50.2153 179.759 50.1631C179.755 49.8808 179.729 49.5992 179.68 49.321C179.597 48.9518 179.392 48.6212 179.099 48.3821C178.777 48.1418 178.383 48.0195 177.981 48.0356H177.985ZM184.621 54.027C184.175 54.0353 183.732 53.9555 183.317 53.7922C182.973 53.6631 182.668 53.446 182.434 53.1625C182.233 52.912 182.124 52.6005 182.125 52.2795V52.123C182.122 52.1053 182.124 52.0872 182.129 52.0703C182.135 52.0533 182.145 52.0379 182.157 52.0253C182.17 52.0127 182.185 52.0031 182.202 51.9974C182.219 51.9918 182.237 51.9901 182.255 51.9926H182.888C182.906 51.9901 182.924 51.9918 182.941 51.9974C182.958 52.0031 182.973 52.0127 182.986 52.0253C182.999 52.0379 183.008 52.0533 183.014 52.0703C183.02 52.0872 183.021 52.1053 183.019 52.123V52.2273C183.027 52.3794 183.073 52.527 183.153 52.657C183.232 52.787 183.342 52.8954 183.473 52.9725C183.809 53.1959 184.207 53.308 184.61 53.293C185.006 53.316 185.399 53.2073 185.728 52.9837C185.857 52.8988 185.963 52.7832 186.036 52.6473C186.11 52.5114 186.148 52.3594 186.149 52.205C186.151 52.105 186.133 52.0057 186.095 51.9129C186.058 51.82 186.003 51.7356 185.933 51.6647C185.784 51.5234 185.609 51.4121 185.418 51.3368C185.221 51.2586 184.915 51.158 184.505 51.035C184.093 50.9222 183.688 50.7816 183.295 50.614C182.99 50.4795 182.719 50.2798 182.501 50.029C182.282 49.762 182.168 49.424 182.18 49.0789C182.172 48.8187 182.227 48.5603 182.341 48.3265C182.456 48.0926 182.626 47.8904 182.836 47.7375C183.343 47.385 183.952 47.2095 184.569 47.2382C185.009 47.2302 185.446 47.31 185.854 47.4729C186.193 47.6092 186.489 47.8345 186.711 48.125C186.91 48.3921 187.015 48.7164 187.013 49.049V49.09C187.016 49.1079 187.015 49.1263 187.01 49.1436C187.005 49.161 186.995 49.1768 186.982 49.1896C186.969 49.2024 186.954 49.212 186.936 49.2173C186.919 49.2227 186.901 49.2238 186.883 49.2204H186.264C186.246 49.2229 186.228 49.2213 186.211 49.2156C186.194 49.2099 186.179 49.2004 186.166 49.1877C186.154 49.1751 186.144 49.1597 186.139 49.1427C186.133 49.1258 186.131 49.1077 186.134 49.09V49.049C186.13 48.8993 186.09 48.7528 186.016 48.6227C185.941 48.4926 185.836 48.383 185.709 48.3039C185.365 48.087 184.963 47.9816 184.558 48.002C184.18 47.9841 183.806 48.0774 183.481 48.2703C183.353 48.3478 183.248 48.4574 183.176 48.5882C183.105 48.719 183.068 48.8663 183.071 49.0155C183.066 49.1547 183.101 49.2924 183.171 49.4129C183.241 49.5334 183.343 49.632 183.466 49.6974C183.852 49.9056 184.262 50.0646 184.688 50.1706C185.107 50.2894 185.52 50.4299 185.925 50.5916C186.235 50.7192 186.512 50.9139 186.737 51.1617C186.973 51.4324 187.096 51.7831 187.08 52.1416C187.088 52.4069 187.03 52.6699 186.914 52.9082C186.797 53.1464 186.624 53.3526 186.409 53.5091C185.892 53.8725 185.267 54.0522 184.636 54.0195L184.621 54.027ZM188.72 54.9995C188.701 55.0012 188.682 54.9988 188.665 54.9924C188.648 54.9859 188.632 54.9756 188.619 54.9622C188.608 54.9467 188.601 54.929 188.597 54.9103C188.594 54.8916 188.595 54.8724 188.6 54.8541L189.178 52.0447C189.183 52.0102 189.2 51.9787 189.227 51.9565C189.254 51.9344 189.288 51.9233 189.323 51.9255H189.878C189.897 51.9239 189.915 51.9268 189.932 51.9339C189.949 51.941 189.964 51.9522 189.975 51.9665C189.987 51.981 189.995 51.9979 189.999 52.016C190.003 52.0341 190.002 52.0529 189.998 52.0708L189.252 54.8839C189.249 54.9179 189.232 54.9491 189.205 54.9707C189.179 54.9923 189.145 55.0026 189.111 54.9995H188.69H188.72ZM197.375 54.068C196.795 54.0853 196.225 53.9111 195.754 53.5724C195.302 53.2479 194.975 52.7785 194.826 52.2422C194.695 51.7099 194.637 51.162 194.655 50.614C194.644 50.0736 194.702 49.534 194.826 49.0081C194.974 48.4794 195.299 48.0177 195.747 47.7002C196.223 47.3655 196.794 47.193 197.375 47.2084C197.966 47.195 198.547 47.3656 199.037 47.6965C199.474 47.9789 199.797 48.4064 199.95 48.9037C199.989 49.0325 200.015 49.1648 200.028 49.2987V49.3248C200.028 49.3844 199.987 49.4254 199.909 49.444L199.253 49.5334H199.227C199.164 49.5334 199.126 49.4962 199.108 49.4179L199.07 49.2204C198.984 48.8772 198.778 48.5761 198.489 48.3709C198.166 48.1338 197.772 48.0119 197.371 48.0244C196.977 48.0098 196.59 48.1323 196.276 48.3709C195.982 48.6033 195.779 48.9317 195.702 49.2987C195.613 49.735 195.573 50.1799 195.583 50.6251C195.571 51.0753 195.611 51.5254 195.702 51.9665C195.776 52.3378 195.979 52.6707 196.276 52.9054C196.59 53.1441 196.977 53.2666 197.371 53.252C197.77 53.2628 198.162 53.1452 198.489 52.9166C198.784 52.7125 198.993 52.4056 199.074 52.0559V52.0038V51.9516C199.074 51.8659 199.137 51.8286 199.231 51.8473L199.875 51.9516C199.965 51.9702 200.002 52.0187 199.994 52.0969L199.942 52.3615C199.808 52.8727 199.484 53.3137 199.037 53.5948C198.541 53.917 197.959 54.082 197.368 54.068H197.375ZM205.718 47.4469C205.715 47.429 205.717 47.4109 205.723 47.3938C205.728 47.3767 205.738 47.3611 205.75 47.3482C205.763 47.3353 205.778 47.3254 205.795 47.3193C205.812 47.3131 205.83 47.3109 205.848 47.3127H206.519C206.537 47.3109 206.555 47.3131 206.572 47.3193C206.588 47.3254 206.604 47.3353 206.616 47.3482C206.629 47.3611 206.638 47.3767 206.644 47.3938C206.65 47.4109 206.651 47.429 206.649 47.4469V53.8295C206.651 53.8473 206.65 53.8655 206.644 53.8826C206.638 53.8997 206.629 53.9152 206.616 53.9281C206.604 53.941 206.588 53.9509 206.572 53.9571C206.555 53.9632 206.537 53.9655 206.519 53.9636H205.848C205.83 53.9655 205.812 53.9632 205.795 53.9571C205.778 53.9509 205.763 53.941 205.75 53.9281C205.738 53.9152 205.728 53.8997 205.723 53.8826C205.717 53.8655 205.715 53.8473 205.718 53.8295V53.2818C205.717 53.2733 205.714 53.2652 205.71 53.2581C205.705 53.2509 205.699 53.245 205.691 53.2408C205.686 53.2356 205.679 53.2326 205.671 53.2326C205.663 53.2326 205.656 53.2356 205.65 53.2408C205.454 53.5155 205.19 53.7347 204.884 53.877C204.577 54.0194 204.24 54.08 203.903 54.0531C203.502 54.0576 203.106 53.9696 202.744 53.796C202.397 53.635 202.104 53.3759 201.902 53.0508C201.687 52.7005 201.58 52.2951 201.593 51.8845V47.4506C201.593 47.3612 201.634 47.3165 201.723 47.3165H202.394C202.412 47.3146 202.43 47.3169 202.447 47.323C202.464 47.3291 202.479 47.339 202.492 47.352C202.504 47.3649 202.514 47.3804 202.519 47.3975C202.525 47.4146 202.527 47.4327 202.524 47.4506V51.6163C202.502 52.0525 202.654 52.4798 202.945 52.8048C203.094 52.955 203.273 53.0719 203.47 53.1477C203.667 53.2235 203.878 53.2565 204.089 53.2445C204.307 53.2594 204.525 53.2275 204.73 53.1509C204.934 53.0743 205.119 52.9549 205.274 52.8006C205.428 52.6464 205.547 52.4608 205.624 52.2565C205.701 52.0522 205.732 51.8339 205.718 51.6163V47.4469ZM209.369 46.1055C209.173 46.1076 208.985 46.0327 208.844 45.8968C208.775 45.8282 208.721 45.7461 208.685 45.6558C208.649 45.5654 208.632 45.4687 208.635 45.3715C208.631 45.2724 208.647 45.1736 208.683 45.0812C208.719 44.9888 208.773 44.9049 208.844 44.8349C208.986 44.7018 209.174 44.6296 209.369 44.6337C209.468 44.6284 209.568 44.644 209.66 44.6795C209.753 44.715 209.838 44.7698 209.908 44.8401C209.978 44.9104 210.033 44.9947 210.068 45.0875C210.104 45.1804 210.12 45.2797 210.114 45.3789C210.118 45.4778 210.101 45.5763 210.065 45.6684C210.029 45.7605 209.974 45.8441 209.904 45.914C209.834 45.9839 209.751 46.0387 209.658 46.0749C209.566 46.111 209.468 46.1278 209.369 46.1241V46.1055ZM208.996 53.9487C208.979 53.9512 208.961 53.9495 208.944 53.9439C208.927 53.9382 208.911 53.9287 208.899 53.916C208.886 53.9034 208.877 53.888 208.871 53.871C208.865 53.8541 208.864 53.836 208.866 53.8183V47.4357C208.864 47.418 208.865 47.3999 208.871 47.383C208.877 47.366 208.886 47.3506 208.899 47.338C208.911 47.3253 208.927 47.3158 208.944 47.3101C208.961 47.3045 208.979 47.3028 208.996 47.3053H209.667C209.685 47.3028 209.703 47.3045 209.72 47.3101C209.737 47.3158 209.752 47.3253 209.765 47.338C209.777 47.3506 209.787 47.366 209.793 47.383C209.798 47.3999 209.8 47.418 209.798 47.4357V53.822C209.8 53.8398 209.798 53.8578 209.793 53.8747C209.787 53.8917 209.777 53.9071 209.765 53.9197C209.752 53.9324 209.737 53.9419 209.72 53.9476C209.703 53.9533 209.685 53.9549 209.667 53.9524H208.996V53.9487ZM216.21 44.8983C216.208 44.8804 216.209 44.8623 216.215 44.8452C216.221 44.8281 216.23 44.8125 216.243 44.7996C216.255 44.7867 216.271 44.7768 216.287 44.7707C216.304 44.7645 216.322 44.7623 216.34 44.7642H217.011C217.029 44.7617 217.048 44.7635 217.065 44.7693C217.083 44.7752 217.098 44.785 217.111 44.798C217.124 44.811 217.134 44.8268 217.14 44.8442C217.146 44.8616 217.148 44.8801 217.145 44.8983V53.8407C217.148 53.8589 217.146 53.8774 217.14 53.8948C217.134 53.9122 217.124 53.928 217.111 53.941C217.098 53.9539 217.083 53.9638 217.065 53.9696C217.048 53.9755 217.029 53.9773 217.011 53.9748H216.333C216.315 53.9766 216.297 53.9744 216.28 53.9683C216.263 53.9621 216.248 53.9522 216.235 53.9393C216.223 53.9264 216.213 53.9108 216.208 53.8938C216.202 53.8767 216.2 53.8585 216.203 53.8407V53.2818C216.205 53.2765 216.206 53.2708 216.206 53.265C216.206 53.2592 216.205 53.2535 216.203 53.2482C216.203 53.2482 216.173 53.2482 216.158 53.2706C215.968 53.5215 215.721 53.7244 215.439 53.863C215.142 54.0045 214.817 54.0759 214.489 54.0717C213.935 54.091 213.39 53.9244 212.942 53.5985C212.523 53.2737 212.221 52.8211 212.082 52.3093C211.943 51.7654 211.882 51.2048 211.899 50.6438C211.88 50.0953 211.932 49.5466 212.055 49.0118C212.186 48.4907 212.485 48.0272 212.905 47.6928C213.358 47.362 213.909 47.1928 214.47 47.2121C214.797 47.2087 215.12 47.2788 215.416 47.4171C215.701 47.5504 215.949 47.7511 216.139 48.002C216.144 48.0095 216.15 48.0153 216.158 48.0187C216.167 48.022 216.175 48.0227 216.184 48.0207C216.184 48.0207 216.184 48.0207 216.184 47.9871L216.21 44.8983ZM215.96 52.2459C216.044 52.0482 216.102 51.8403 216.132 51.6274C216.171 51.3011 216.188 50.9725 216.184 50.6438C216.188 50.3114 216.171 49.979 216.132 49.6489C216.101 49.4286 216.038 49.2139 215.945 49.0118C215.849 48.7265 215.668 48.4771 215.428 48.2964C215.178 48.1151 214.875 48.0208 214.567 48.0281C214.245 48.019 213.929 48.1102 213.661 48.2889C213.411 48.4597 213.219 48.7028 213.11 48.9857C213 49.1898 212.922 49.4097 212.879 49.6378C212.822 49.97 212.797 50.3068 212.804 50.6438C212.799 50.9664 212.818 51.289 212.86 51.6088C212.888 51.8244 212.95 52.0344 213.043 52.231C213.14 52.5344 213.335 52.7967 213.598 52.9762C213.88 53.165 214.213 53.2614 214.552 53.252C214.869 53.2636 215.181 53.1663 215.435 52.9762C215.677 52.7824 215.859 52.524 215.96 52.231V52.2459ZM221.549 47.2121C222.213 47.1696 222.867 47.3859 223.375 47.8157C223.59 48.0226 223.759 48.2727 223.87 48.5495C223.981 48.8264 224.032 49.1236 224.02 49.4216V53.8332C224.022 53.8514 224.02 53.8699 224.014 53.8873C224.009 53.9047 223.999 53.9205 223.986 53.9335C223.973 53.9465 223.957 53.9563 223.94 53.9622C223.922 53.968 223.904 53.9698 223.886 53.9674H223.215C223.197 53.9692 223.179 53.967 223.162 53.9608C223.145 53.9547 223.13 53.9448 223.117 53.9319C223.105 53.919 223.095 53.9034 223.089 53.8863C223.084 53.8692 223.082 53.8511 223.084 53.8332V53.2818C223.088 53.2754 223.089 53.2684 223.089 53.2613C223.089 53.2542 223.088 53.2471 223.084 53.2408C223.084 53.2408 223.055 53.2408 223.04 53.2408C222.81 53.5095 222.515 53.7148 222.183 53.8369C221.81 53.9782 221.415 54.0478 221.016 54.0419C220.457 54.0617 219.906 53.8953 219.452 53.5687C219.237 53.397 219.068 53.1756 218.958 52.9237C218.848 52.6718 218.802 52.397 218.822 52.123C218.81 51.8254 218.868 51.5291 218.993 51.2585C219.117 50.9878 219.304 50.7503 219.537 50.5655C220.116 50.1543 220.818 49.9531 221.527 49.9954H223.04C223.047 49.9968 223.054 49.9964 223.061 49.9942C223.068 49.9921 223.074 49.9882 223.08 49.9831C223.085 49.978 223.088 49.9717 223.091 49.9647C223.093 49.9578 223.093 49.9504 223.092 49.9433V49.444C223.103 49.2518 223.075 49.0592 223.012 48.8776C222.948 48.696 222.848 48.5288 222.719 48.3858C222.561 48.2479 222.376 48.1437 222.176 48.0796C221.977 48.0156 221.766 47.993 221.557 48.0132C221.199 47.998 220.845 48.0818 220.532 48.2554C220.408 48.3278 220.3 48.4256 220.216 48.5425C220.132 48.6593 220.073 48.7926 220.044 48.9335C220.018 49.0192 219.966 49.0602 219.888 49.049L219.176 48.9596C219.083 48.941 219.042 48.9075 219.06 48.8553C219.095 48.6103 219.184 48.3761 219.32 48.1694C219.456 47.9626 219.636 47.7884 219.847 47.6592C220.357 47.3355 220.953 47.1744 221.557 47.1972L221.549 47.2121ZM221.177 53.2818C221.654 53.2939 222.122 53.1572 222.518 52.8906C222.694 52.7803 222.839 52.6261 222.937 52.4432C223.036 52.2604 223.085 52.055 223.081 51.8473V50.8226C223.082 50.8155 223.082 50.8081 223.079 50.8012C223.077 50.7942 223.074 50.7879 223.068 50.7828C223.063 50.7776 223.057 50.7738 223.05 50.7717C223.043 50.7695 223.036 50.7691 223.029 50.7705H221.65C221.158 50.7512 220.673 50.8811 220.256 51.1431C220.09 51.2467 219.954 51.3921 219.862 51.5647C219.77 51.7373 219.725 51.9311 219.731 52.1267C219.721 52.294 219.752 52.4612 219.822 52.6133C219.893 52.7655 220 52.8979 220.133 52.9986C220.44 53.2088 220.806 53.3135 221.177 53.2967V53.2818ZM230.086 44.9132C230.086 44.8238 230.127 44.779 230.216 44.779H230.887C230.905 44.7772 230.923 44.7795 230.94 44.7856C230.956 44.7917 230.972 44.8016 230.984 44.8145C230.997 44.8275 231.006 44.843 231.012 44.8601C231.018 44.8772 231.019 44.8953 231.017 44.9132V53.8556C231.019 53.8734 231.018 53.8916 231.012 53.9086C231.006 53.9257 230.997 53.9413 230.984 53.9542C230.972 53.9671 230.956 53.977 230.94 53.9832C230.923 53.9893 230.905 53.9916 230.887 53.9897H230.216C230.127 53.9897 230.086 53.945 230.086 53.8556V53.2818C230.085 53.2746 230.083 53.2677 230.079 53.2617C230.075 53.2558 230.07 53.2511 230.063 53.2482C230.063 53.2482 230.037 53.2482 230.018 53.2706C229.829 53.5206 229.584 53.7234 229.303 53.863C229.005 54.0046 228.679 54.0759 228.349 54.0717C227.797 54.0905 227.254 53.9239 226.807 53.5985C226.385 53.276 226.082 52.8225 225.946 52.3093C225.806 51.7657 225.744 51.2048 225.763 50.6438C225.744 50.0953 225.797 49.5466 225.92 49.0118C226.054 48.4876 226.36 48.0233 226.788 47.6928C227.24 47.3615 227.79 47.1921 228.349 47.2121C228.676 47.2084 229 47.2784 229.296 47.4171C229.581 47.5493 229.83 47.7503 230.018 48.002C230.018 48.0207 230.052 48.0244 230.063 48.0207C230.07 48.0189 230.077 48.0145 230.081 48.0083C230.085 48.002 230.087 47.9945 230.086 47.9871V44.9132ZM229.847 52.2571C229.933 52.06 229.991 51.8518 230.018 51.6386C230.058 51.3123 230.075 50.9836 230.071 50.655C230.075 50.3226 230.058 49.9902 230.018 49.6601C229.989 49.44 229.928 49.2253 229.836 49.023C229.739 48.7372 229.557 48.4877 229.314 48.3076C229.065 48.1252 228.762 48.0309 228.454 48.0393C228.132 48.0302 227.816 48.1213 227.548 48.3001C227.299 48.4721 227.107 48.7148 226.997 48.9969C226.887 49.201 226.811 49.421 226.769 49.6489C226.711 49.9809 226.686 50.318 226.695 50.655C226.69 50.9774 226.708 51.2999 226.747 51.62C226.777 51.8352 226.839 52.0449 226.93 52.2422C227.029 52.5461 227.227 52.8083 227.492 52.9874C227.772 53.177 228.105 53.2735 228.442 53.2632C228.759 53.2754 229.069 53.178 229.322 52.9874C229.566 52.7957 229.749 52.5367 229.847 52.2422V52.2571ZM235.667 54.0829C235.086 54.0972 234.516 53.9263 234.039 53.5948C233.581 53.2687 233.248 52.7972 233.092 52.2571C232.955 51.7295 232.893 51.185 232.91 50.64C232.893 50.1 232.954 49.5603 233.092 49.0379C233.242 48.502 233.571 48.0337 234.024 47.7114C234.511 47.3776 235.092 47.2067 235.682 47.2233C236.256 47.2087 236.819 47.3799 237.288 47.7114C237.738 48.0292 238.066 48.4923 238.216 49.023C238.358 49.5497 238.421 50.0947 238.402 50.64C238.422 51.1854 238.359 51.7306 238.216 52.2571C238.072 52.7975 237.744 53.2706 237.288 53.5948C236.814 53.9274 236.246 54.0985 235.667 54.0829ZM235.667 53.2669C236.055 53.2774 236.435 53.1552 236.744 52.9204C237.044 52.6829 237.258 52.3528 237.351 51.9814C237.44 51.5451 237.479 51.1001 237.467 50.655C237.479 50.2091 237.444 49.7633 237.362 49.3248C237.27 48.9522 237.054 48.6215 236.751 48.3858C236.436 48.1501 236.05 48.028 235.656 48.0393C235.268 48.0222 234.886 48.1413 234.576 48.3761C234.267 48.6108 234.049 48.9464 233.961 49.3248C233.879 49.7633 233.844 50.2091 233.856 50.655C233.844 51.0995 233.879 51.5441 233.961 51.9814C234.044 52.3543 234.255 52.6864 234.557 52.9204C234.88 53.1587 235.274 53.2809 235.675 53.2669H235.667ZM242.97 47.2643C243.229 47.2572 243.485 47.3162 243.715 47.4357C243.748 47.4482 243.775 47.4733 243.79 47.5053C243.804 47.5374 243.806 47.574 243.794 47.6071L243.648 48.248C243.646 48.2665 243.64 48.2841 243.629 48.2993C243.618 48.3144 243.603 48.3265 243.586 48.3344C243.57 48.3423 243.551 48.3457 243.532 48.3442C243.514 48.3428 243.496 48.3366 243.481 48.3262C243.316 48.2639 243.142 48.2336 242.966 48.2368H242.795C242.584 48.2418 242.376 48.2892 242.184 48.3763C241.992 48.4633 241.82 48.5883 241.677 48.7435C241.375 49.0744 241.215 49.5104 241.23 49.9582V53.8332C241.232 53.8511 241.231 53.8692 241.225 53.8863C241.219 53.9034 241.21 53.919 241.197 53.9319C241.185 53.9448 241.169 53.9547 241.153 53.9608C241.136 53.967 241.118 53.9692 241.1 53.9674H240.429C240.34 53.9674 240.299 53.9227 240.299 53.8332V47.4506C240.299 47.3612 240.34 47.3165 240.429 47.3165H241.1C241.118 47.3146 241.136 47.3169 241.153 47.323C241.169 47.3291 241.185 47.339 241.197 47.352C241.21 47.3649 241.219 47.3804 241.225 47.3975C241.231 47.4146 241.232 47.4327 241.23 47.4506V48.2517C241.23 48.279 241.237 48.2939 241.252 48.2964C241.252 48.2964 241.275 48.2964 241.282 48.2778C241.453 47.9756 241.694 47.7197 241.986 47.5326C242.284 47.3498 242.628 47.2566 242.978 47.2643H242.97ZM250.105 49.5372C250.143 49.8424 250.161 50.1499 250.158 50.4575V50.8785C250.16 50.8962 250.158 50.9143 250.153 50.9312C250.147 50.9482 250.137 50.9636 250.125 50.9762C250.112 50.9888 250.097 50.9984 250.08 51.0041C250.063 51.0097 250.045 51.0114 250.027 51.0089H245.787C245.78 51.0076 245.772 51.008 245.765 51.0102C245.759 51.0123 245.752 51.0161 245.747 51.0213C245.742 51.0264 245.738 51.0327 245.736 51.0396C245.734 51.0466 245.733 51.0539 245.735 51.0611C245.733 51.3733 245.76 51.685 245.813 51.9926C245.897 52.3688 246.116 52.7013 246.428 52.9278C246.785 53.1666 247.209 53.2853 247.639 53.2669C247.98 53.2742 248.316 53.1879 248.611 53.0172C248.894 52.8496 249.121 52.6037 249.267 52.3093C249.319 52.2311 249.383 52.2124 249.45 52.2571L249.964 52.5589C249.98 52.5671 249.994 52.5784 250.005 52.5922C250.016 52.6059 250.024 52.6219 250.029 52.639C250.034 52.6561 250.035 52.674 250.033 52.6916C250.031 52.7092 250.025 52.7262 250.016 52.7415C249.796 53.1636 249.453 53.5091 249.032 53.7326C248.568 53.9845 248.047 54.1128 247.52 54.1052C246.965 54.117 246.42 53.9626 245.955 53.6618C245.532 53.3646 245.215 52.9404 245.049 52.4509C244.869 51.8648 244.79 51.2526 244.814 50.64C244.814 50.2674 244.814 49.9694 244.814 49.7383C244.825 49.5281 244.857 49.3195 244.911 49.1161C245.045 48.5697 245.363 48.0864 245.813 47.7487C246.285 47.3978 246.861 47.2166 247.449 47.2345C248.117 47.1919 248.776 47.4081 249.289 47.8381C249.746 48.2987 250.029 48.9029 250.09 49.5483L250.105 49.5372ZM247.464 48.0468C247.08 48.033 246.703 48.1499 246.394 48.3784C246.108 48.6038 245.91 48.9231 245.835 49.2801C245.768 49.5735 245.733 49.8733 245.731 50.1743C245.731 50.2116 245.731 50.2265 245.783 50.2265H249.185C249.192 50.2278 249.2 50.2274 249.206 50.2252C249.213 50.2231 249.22 50.2193 249.225 50.2141C249.23 50.209 249.234 50.2027 249.236 50.1957C249.238 50.1888 249.239 50.1814 249.237 50.1743C249.23 49.8922 249.204 49.6109 249.159 49.3322C249.076 48.9621 248.87 48.6311 248.574 48.3933C248.253 48.1522 247.858 48.0297 247.456 48.0468H247.464ZM254.077 54.027C253.629 54.0348 253.183 53.955 252.766 53.7922C252.424 53.661 252.121 53.4442 251.886 53.1625C251.687 52.9117 251.579 52.6001 251.581 52.2795V52.123C251.578 52.1053 251.58 52.0872 251.586 52.0703C251.591 52.0533 251.601 52.0379 251.614 52.0253C251.626 52.0127 251.642 52.0031 251.659 51.9974C251.676 51.9918 251.694 51.9901 251.711 51.9926H252.341C252.359 51.9901 252.377 51.9918 252.394 51.9974C252.411 52.0031 252.426 52.0127 252.439 52.0253C252.451 52.0379 252.461 52.0533 252.466 52.0703C252.472 52.0872 252.474 52.1053 252.471 52.123V52.2273C252.48 52.3794 252.526 52.527 252.605 52.657C252.684 52.787 252.795 52.8954 252.926 52.9725C253.257 53.1917 253.647 53.3036 254.044 53.293C254.44 53.316 254.833 53.2073 255.162 52.9837C255.291 52.8995 255.398 52.7841 255.471 52.648C255.545 52.512 255.583 52.3596 255.583 52.205C255.586 52.1048 255.569 52.005 255.532 51.912C255.494 51.819 255.438 51.7347 255.366 51.6647C255.218 51.5234 255.043 51.4121 254.852 51.3368C254.655 51.2586 254.353 51.158 253.939 51.035C253.528 50.9217 253.125 50.781 252.732 50.614C252.426 50.4809 252.154 50.281 251.935 50.029C251.716 49.762 251.602 49.424 251.614 49.0789C251.606 48.8184 251.662 48.56 251.777 48.3261C251.892 48.0923 252.063 47.8902 252.274 47.7375C252.78 47.3839 253.39 47.2083 254.006 47.2382C254.444 47.2298 254.879 47.3096 255.284 47.4729C255.627 47.6071 255.926 47.8326 256.149 48.125C256.347 48.3921 256.453 48.7164 256.451 49.049V49.09C256.453 49.1077 256.452 49.1258 256.446 49.1427C256.44 49.1597 256.431 49.1751 256.418 49.1877C256.405 49.2004 256.39 49.2099 256.373 49.2156C256.356 49.2213 256.338 49.2229 256.32 49.2204H255.702C255.684 49.2238 255.666 49.2227 255.648 49.2173C255.631 49.212 255.615 49.2024 255.602 49.1896C255.589 49.1768 255.58 49.161 255.574 49.1436C255.569 49.1263 255.568 49.1079 255.571 49.09V49.049C255.567 48.8991 255.526 48.7526 255.451 48.6226C255.376 48.4926 255.27 48.3831 255.143 48.3039C254.8 48.0859 254.397 47.9804 253.992 48.002C253.614 47.9846 253.24 48.0778 252.915 48.2703C252.788 48.348 252.683 48.4578 252.612 48.5886C252.541 48.7194 252.505 48.8666 252.509 49.0155C252.504 49.1547 252.539 49.2924 252.609 49.4129C252.678 49.5334 252.781 49.632 252.904 49.6974C253.289 49.9063 253.7 50.0653 254.126 50.1706C254.544 50.2893 254.956 50.4298 255.359 50.5916C255.67 50.7179 255.949 50.9127 256.175 51.1617C256.411 51.4324 256.533 51.7831 256.518 52.1416C256.525 52.4069 256.468 52.6699 256.351 52.9082C256.234 53.1464 256.061 53.3526 255.847 53.5091C255.331 53.8738 254.708 54.0561 254.077 54.027ZM263.348 54.068C262.768 54.0839 262.199 53.9099 261.727 53.5724C261.277 53.2458 260.95 52.7773 260.799 52.2422C260.669 51.7096 260.611 51.1619 260.628 50.614C260.619 50.0737 260.676 49.5343 260.799 49.0081C260.949 48.4807 261.274 48.0198 261.719 47.7002C262.195 47.366 262.766 47.1935 263.348 47.2084C263.94 47.1945 264.522 47.3651 265.013 47.6965C265.448 47.9805 265.771 48.4074 265.926 48.9037C265.961 49.0333 265.988 49.1653 266.004 49.2987V49.3248C266.004 49.3844 265.963 49.4254 265.885 49.444L265.229 49.5334H265.203C265.14 49.5334 265.102 49.4962 265.084 49.4179L265.043 49.2204C264.957 48.8778 264.752 48.5767 264.465 48.3709C264.142 48.1341 263.748 48.0122 263.348 48.0244C262.953 48.011 262.567 48.1334 262.252 48.3709C261.959 48.6037 261.757 48.9321 261.682 49.2987C261.591 49.7348 261.551 50.1799 261.563 50.6251C261.549 51.0754 261.589 51.5257 261.682 51.9665C261.754 52.3374 261.956 52.6703 262.252 52.9054C262.567 53.143 262.953 53.2653 263.348 53.252C263.746 53.2628 264.138 53.1452 264.465 52.9166C264.761 52.7134 264.969 52.4059 265.047 52.0559V52.0038V51.9516C265.047 51.8659 265.106 51.8286 265.203 51.8473L265.848 51.9516C265.933 51.9702 265.974 52.0187 265.967 52.0969L265.915 52.3615C265.778 52.8723 265.453 53.3127 265.006 53.5948C264.51 53.9177 263.928 54.0827 263.336 54.068H263.348ZM270.166 54.068C269.585 54.0823 269.015 53.9114 268.538 53.5799C268.08 53.2538 267.747 52.7823 267.591 52.2422C267.454 51.7146 267.392 51.1701 267.409 50.6251C267.392 50.0851 267.453 49.5454 267.591 49.023C267.74 48.486 268.071 48.0173 268.527 47.6965C269.012 47.3623 269.592 47.1913 270.181 47.2084C270.756 47.1946 271.32 47.3657 271.791 47.6965C272.239 48.0165 272.566 48.4787 272.718 49.0081C272.857 49.5354 272.919 50.0801 272.901 50.6251C272.92 51.1702 272.858 51.7151 272.718 52.2422C272.572 52.7813 272.244 53.2535 271.791 53.5799C271.315 53.9123 270.746 54.0834 270.166 54.068ZM270.166 53.252C270.552 53.2664 270.932 53.1461 271.239 52.9115C271.546 52.677 271.762 52.3429 271.85 51.9665C271.941 51.5304 271.981 51.0853 271.969 50.64C271.981 50.1941 271.945 49.7482 271.861 49.3099C271.77 48.9377 271.556 48.607 271.254 48.3709C270.932 48.1317 270.537 48.0095 270.136 48.0244C269.748 48.0073 269.366 48.1264 269.057 48.3611C268.747 48.5959 268.529 48.9315 268.441 49.3099C268.359 49.7483 268.324 50.1942 268.337 50.64C268.325 51.0846 268.36 51.5292 268.441 51.9665C268.526 52.3397 268.738 52.6717 269.041 52.9054C269.363 53.1446 269.757 53.2669 270.159 53.252H270.166ZM277.551 47.2233C277.857 47.2076 278.163 47.2543 278.451 47.3607C278.739 47.467 279.002 47.6307 279.224 47.8418C279.436 48.0597 279.602 48.3191 279.709 48.6037C279.817 48.8884 279.865 49.1922 279.85 49.4962V53.8295C279.852 53.8473 279.851 53.8655 279.845 53.8826C279.839 53.8997 279.83 53.9152 279.817 53.9281C279.805 53.941 279.789 53.9509 279.772 53.9571C279.756 53.9632 279.737 53.9655 279.72 53.9636H279.049C279.031 53.9655 279.013 53.9632 278.996 53.9571C278.979 53.9509 278.964 53.941 278.951 53.9281C278.939 53.9152 278.929 53.8997 278.924 53.8826C278.918 53.8655 278.916 53.8473 278.918 53.8295V49.6825C278.926 49.466 278.891 49.2502 278.815 49.0474C278.739 48.8447 278.624 48.659 278.475 48.5013C278.331 48.3505 278.158 48.2314 277.965 48.1518C277.773 48.0722 277.566 48.0339 277.357 48.0393C277.142 48.0274 276.926 48.0612 276.725 48.1382C276.523 48.2153 276.34 48.334 276.188 48.4866C276.035 48.6392 275.916 48.8222 275.839 49.0238C275.762 49.2254 275.728 49.4409 275.74 49.6564V53.8332C275.743 53.8511 275.741 53.8692 275.735 53.8863C275.729 53.9034 275.72 53.919 275.707 53.9319C275.695 53.9448 275.68 53.9547 275.663 53.9608C275.646 53.967 275.628 53.9692 275.61 53.9674H274.939C274.85 53.9674 274.809 53.9227 274.809 53.8332V47.4506C274.809 47.3612 274.85 47.3165 274.939 47.3165H275.61C275.628 47.3146 275.646 47.3169 275.663 47.323C275.68 47.3291 275.695 47.339 275.707 47.352C275.72 47.3649 275.729 47.3804 275.735 47.3975C275.741 47.4146 275.743 47.4327 275.74 47.4506V48.0132C275.737 48.0196 275.736 48.0266 275.736 48.0337C275.736 48.0408 275.737 48.0478 275.74 48.0542C275.74 48.0542 275.766 48.0542 275.774 48.0542C275.978 47.7811 276.247 47.5636 276.557 47.4216C276.867 47.2797 277.207 47.2179 277.547 47.2419L277.551 47.2233ZM284.5 45.5801C284.323 45.5589 284.143 45.5765 283.973 45.6319C283.803 45.6872 283.647 45.7789 283.516 45.9006C283.31 46.2281 283.217 46.6143 283.252 46.9998V47.2606C283.252 47.2978 283.27 47.3127 283.308 47.3127H284.798C284.816 47.3109 284.834 47.3131 284.851 47.3193C284.868 47.3254 284.883 47.3353 284.896 47.3482C284.908 47.3611 284.918 47.3767 284.923 47.3938C284.929 47.4109 284.931 47.429 284.928 47.4469V48.0356C284.931 48.0534 284.929 48.0716 284.923 48.0886C284.918 48.1057 284.908 48.1213 284.896 48.1342C284.883 48.1471 284.868 48.157 284.851 48.1632C284.834 48.1693 284.816 48.1715 284.798 48.1697H283.308C283.27 48.1697 283.252 48.1697 283.252 48.2219V53.8295C283.252 53.9189 283.211 53.9636 283.121 53.9636H282.466C282.376 53.9636 282.335 53.9189 282.335 53.8295V48.2256C282.337 48.2185 282.336 48.2111 282.334 48.2042C282.332 48.1972 282.328 48.1909 282.323 48.1858C282.318 48.1806 282.311 48.1768 282.304 48.1747C282.298 48.1725 282.29 48.1721 282.283 48.1734H281.4C281.382 48.1753 281.364 48.173 281.347 48.1669C281.33 48.1607 281.315 48.1508 281.302 48.1379C281.29 48.125 281.28 48.1095 281.275 48.0924C281.269 48.0753 281.267 48.0571 281.27 48.0393V47.4506C281.267 47.4327 281.269 47.4146 281.275 47.3975C281.28 47.3804 281.29 47.3649 281.302 47.352C281.315 47.339 281.33 47.3291 281.347 47.323C281.364 47.3169 281.382 47.3146 281.4 47.3165H282.283C282.29 47.3178 282.298 47.3174 282.304 47.3152C282.311 47.3131 282.318 47.3093 282.323 47.3041C282.328 47.299 282.332 47.2927 282.334 47.2857C282.336 47.2788 282.337 47.2714 282.335 47.2643V46.9476C282.318 46.5128 282.38 46.0785 282.518 45.6658C282.632 45.3627 282.861 45.1165 283.155 44.9803C283.557 44.8191 283.989 44.7454 284.422 44.7642H284.794C284.812 44.7623 284.83 44.7645 284.847 44.7707C284.864 44.7768 284.88 44.7867 284.892 44.7996C284.905 44.8125 284.914 44.8281 284.92 44.8452C284.925 44.8623 284.927 44.8804 284.925 44.8983V45.4572C284.927 45.4749 284.926 45.4929 284.92 45.5099C284.914 45.5268 284.905 45.5422 284.892 45.5549C284.879 45.5675 284.864 45.5771 284.847 45.5827C284.83 45.5884 284.812 45.5901 284.794 45.5876H284.519L284.5 45.5801ZM287.179 46.1055C286.983 46.1076 286.795 46.0327 286.654 45.8968C286.585 45.8282 286.531 45.7461 286.495 45.6558C286.459 45.5654 286.442 45.4687 286.445 45.3715C286.44 45.2724 286.457 45.1736 286.493 45.0812C286.529 44.9888 286.583 44.9049 286.654 44.8349C286.796 44.7018 286.984 44.6296 287.179 44.6337C287.278 44.6284 287.378 44.644 287.47 44.6795C287.563 44.715 287.648 44.7698 287.718 44.8401C287.788 44.9104 287.843 44.9947 287.878 45.0875C287.914 45.1804 287.93 45.2797 287.924 45.3789C287.928 45.4778 287.911 45.5763 287.875 45.6684C287.839 45.7605 287.784 45.8441 287.714 45.914C287.644 45.9839 287.561 46.0387 287.468 46.0749C287.376 46.111 287.278 46.1278 287.179 46.1241V46.1055ZM286.806 53.9487C286.789 53.9512 286.771 53.9495 286.754 53.9439C286.737 53.9382 286.721 53.9287 286.709 53.916C286.696 53.9034 286.687 53.888 286.681 53.871C286.675 53.8541 286.674 53.836 286.676 53.8183V47.4357C286.674 47.418 286.675 47.3999 286.681 47.383C286.687 47.366 286.696 47.3506 286.709 47.338C286.721 47.3253 286.737 47.3158 286.754 47.3101C286.771 47.3045 286.789 47.3028 286.806 47.3053H287.477C287.495 47.3028 287.513 47.3045 287.53 47.3101C287.547 47.3158 287.562 47.3253 287.575 47.338C287.587 47.3506 287.597 47.366 287.603 47.383C287.608 47.3999 287.61 47.418 287.607 47.4357V53.822C287.61 53.8398 287.608 53.8578 287.603 53.8747C287.597 53.8917 287.587 53.9071 287.575 53.9197C287.562 53.9324 287.547 53.9419 287.53 53.9476C287.513 53.9533 287.495 53.9549 287.477 53.9524H286.806V53.9487ZM292.194 47.2084C292.858 47.1651 293.513 47.3815 294.02 47.812C294.235 48.0189 294.403 48.269 294.515 48.5458C294.626 48.8226 294.677 49.1199 294.665 49.4179V53.8295C294.667 53.8473 294.665 53.8655 294.659 53.8826C294.654 53.8997 294.644 53.9152 294.632 53.9281C294.619 53.941 294.604 53.9509 294.587 53.9571C294.57 53.9632 294.552 53.9655 294.534 53.9636H293.863C293.774 53.9636 293.733 53.9189 293.733 53.8295V53.2818C293.736 53.2753 293.737 53.2683 293.737 53.2613C293.737 53.2542 293.736 53.2473 293.733 53.2408C293.733 53.2408 293.703 53.2408 293.685 53.2408C293.456 53.5094 293.162 53.7147 292.831 53.8369C292.458 53.9783 292.061 54.0478 291.661 54.0419C291.102 54.0617 290.551 53.8953 290.096 53.5687C289.882 53.3965 289.713 53.1751 289.604 52.9233C289.494 52.6715 289.447 52.3969 289.467 52.123C289.453 51.8248 289.511 51.5276 289.636 51.2566C289.762 50.9855 289.95 50.7485 290.186 50.5655C290.764 50.1537 291.467 49.9525 292.176 49.9954H293.699C293.706 49.996 293.714 49.995 293.72 49.9926C293.727 49.9902 293.733 49.9864 293.738 49.9814C293.743 49.9765 293.746 49.9705 293.749 49.9639C293.751 49.9573 293.752 49.9503 293.752 49.9433V49.444C293.763 49.2518 293.735 49.0592 293.671 48.8776C293.607 48.696 293.508 48.5288 293.379 48.3858C293.221 48.2479 293.036 48.1437 292.836 48.0796C292.636 48.0156 292.425 47.993 292.217 48.0132C291.859 47.9984 291.505 48.0822 291.192 48.2554C291.068 48.328 290.961 48.4259 290.877 48.5428C290.794 48.6596 290.736 48.7928 290.708 48.9335C290.705 48.9517 290.698 48.9692 290.689 48.985C290.679 49.0007 290.667 49.0143 290.652 49.0251C290.637 49.0359 290.62 49.0435 290.602 49.0476C290.584 49.0518 290.565 49.0522 290.547 49.049L289.839 48.9596C289.742 48.941 289.701 48.9075 289.72 48.8553C289.757 48.6187 289.844 48.3927 289.975 48.1922C290.106 47.9918 290.278 47.8215 290.48 47.6928C290.989 47.3697 291.584 47.2087 292.187 47.2308L292.194 47.2084ZM291.822 53.2669C292.298 53.279 292.767 53.1423 293.163 52.8756C293.339 52.7655 293.484 52.6115 293.584 52.4287C293.683 52.2458 293.733 52.0404 293.729 51.8324V50.8077C293.73 50.8007 293.729 50.7937 293.726 50.7871C293.724 50.7805 293.72 50.7745 293.715 50.7696C293.71 50.7646 293.704 50.7608 293.698 50.7584C293.691 50.7559 293.684 50.755 293.677 50.7556H292.295C291.805 50.7363 291.32 50.8662 290.905 51.1282C290.738 51.2313 290.602 51.3765 290.509 51.5492C290.416 51.7218 290.37 51.9158 290.376 52.1118C290.366 52.2791 290.397 52.4463 290.467 52.5984C290.537 52.7506 290.644 52.883 290.778 52.9837C291.085 53.1934 291.451 53.298 291.822 53.2818V53.2669ZM301.718 49.0081C301.837 49.5436 301.889 50.0917 301.874 50.64C301.893 51.2013 301.83 51.7622 301.688 52.3056C301.545 52.8165 301.242 53.2682 300.824 53.5948C300.379 53.9212 299.836 54.0879 299.285 54.068C298.954 54.0717 298.626 54.0004 298.327 53.8593C298.04 53.7198 297.791 53.5111 297.604 53.252C297.6 53.2448 297.594 53.2391 297.587 53.2358C297.58 53.2324 297.571 53.2315 297.563 53.2333C297.556 53.2351 297.549 53.2393 297.544 53.2454C297.54 53.2516 297.537 53.2591 297.537 53.2669V53.8295C297.54 53.8473 297.538 53.8655 297.532 53.8826C297.527 53.8997 297.517 53.9152 297.505 53.9281C297.492 53.941 297.477 53.9509 297.46 53.9571C297.443 53.9632 297.425 53.9655 297.407 53.9636H296.736C296.718 53.9655 296.7 53.9632 296.683 53.9571C296.666 53.9509 296.651 53.941 296.638 53.9281C296.626 53.9152 296.617 53.8997 296.611 53.8826C296.605 53.8655 296.603 53.8473 296.606 53.8295V44.8871C296.603 44.8693 296.605 44.8511 296.611 44.834C296.617 44.8169 296.626 44.8014 296.638 44.7885C296.651 44.7756 296.666 44.7657 296.683 44.7595C296.7 44.7534 296.718 44.7511 296.736 44.753H297.407C297.425 44.7511 297.443 44.7534 297.46 44.7595C297.477 44.7657 297.492 44.7756 297.505 44.7885C297.517 44.8014 297.527 44.8169 297.532 44.834C297.538 44.8511 297.54 44.8693 297.537 44.8871V47.9871C297.537 48.0058 297.537 48.0132 297.537 48.0169C297.537 48.0207 297.567 48.0169 297.586 47.9983C297.775 47.7465 298.024 47.5445 298.309 47.4096C298.607 47.2656 298.935 47.1929 299.266 47.1972C299.827 47.1779 300.378 47.3471 300.831 47.6779C301.258 48.0094 301.564 48.4733 301.699 48.9969L301.718 49.0081ZM300.704 52.2273C300.797 52.0306 300.859 51.8207 300.887 51.6051C300.928 51.2851 300.946 50.9626 300.939 50.64C300.947 50.3032 300.923 49.9664 300.868 49.634C300.826 49.406 300.748 49.186 300.637 48.982C300.529 48.6991 300.336 48.456 300.086 48.2852C299.818 48.1064 299.502 48.0153 299.18 48.0244C298.872 48.0171 298.57 48.1113 298.32 48.2927C298.078 48.4721 297.897 48.722 297.802 49.0081C297.708 49.2092 297.643 49.4224 297.608 49.6415C297.565 49.9725 297.546 50.3063 297.552 50.64C297.546 50.9664 297.565 51.2927 297.608 51.6163C297.644 51.8309 297.704 52.0408 297.787 52.2422C297.888 52.5352 298.07 52.7936 298.312 52.9874C298.566 53.178 298.878 53.2754 299.195 53.2632C299.533 53.2725 299.865 53.1761 300.145 52.9874C300.41 52.8092 300.607 52.5465 300.704 52.2422V52.2273ZM303.909 53.9636C303.891 53.9655 303.873 53.9632 303.856 53.9571C303.839 53.9509 303.824 53.941 303.811 53.9281C303.798 53.9152 303.789 53.8997 303.783 53.8826C303.778 53.8655 303.776 53.8473 303.778 53.8295V44.8871C303.776 44.8693 303.778 44.8511 303.783 44.834C303.789 44.8169 303.798 44.8014 303.811 44.7885C303.824 44.7756 303.839 44.7657 303.856 44.7595C303.873 44.7534 303.891 44.7511 303.909 44.753H304.579C304.669 44.753 304.71 44.7977 304.71 44.8871V53.8295C304.71 53.9189 304.669 53.9636 304.579 53.9636H303.909ZM311.897 49.5222C311.935 49.8275 311.952 50.135 311.949 50.4426V50.8636C311.951 50.8815 311.949 50.8996 311.943 50.9165C311.937 50.9334 311.927 50.9487 311.914 50.9613C311.901 50.9738 311.885 50.9833 311.868 50.989C311.851 50.9946 311.833 50.9964 311.815 50.994H307.571C307.564 50.9934 307.557 50.9944 307.551 50.9968C307.544 50.9993 307.538 51.0031 307.533 51.008C307.528 51.013 307.524 51.019 307.522 51.0256C307.52 51.0322 307.519 51.0392 307.519 51.0462C307.52 51.3584 307.548 51.67 307.601 51.9777C307.684 52.3545 307.903 52.6876 308.216 52.9129C308.573 53.1517 308.997 53.2704 309.427 53.252C309.768 53.2593 310.104 53.173 310.399 53.0023C310.682 52.8347 310.91 52.5888 311.055 52.2944C311.107 52.2161 311.167 52.1975 311.238 52.2422L311.752 52.544C311.768 52.5522 311.782 52.5635 311.793 52.5773C311.804 52.591 311.813 52.607 311.817 52.6241C311.822 52.6412 311.824 52.6591 311.821 52.6767C311.819 52.6943 311.813 52.7113 311.804 52.7266C311.584 53.1498 311.239 53.4956 310.817 53.7177C310.36 53.9668 309.847 54.0951 309.326 54.0903C308.772 54.1021 308.227 53.9477 307.761 53.6469C307.337 53.3518 307.019 52.9269 306.856 52.436C306.676 51.85 306.597 51.2377 306.621 50.6251C306.621 50.2525 306.621 49.9545 306.621 49.7235C306.63 49.513 306.662 49.3042 306.718 49.1012C306.851 48.5548 307.17 48.0715 307.62 47.7338C308.092 47.3829 308.668 47.2017 309.256 47.2196C309.923 47.1753 310.581 47.3917 311.092 47.8232C311.55 48.2834 311.834 48.8876 311.897 49.5334V49.5222ZM309.256 48.0318C308.872 48.0181 308.495 48.135 308.186 48.3635C307.9 48.5889 307.702 48.9082 307.627 49.2652C307.559 49.5584 307.522 49.8582 307.519 50.1594C307.518 50.1665 307.518 50.1739 307.52 50.1808C307.523 50.1878 307.526 50.1941 307.532 50.1992C307.537 50.2044 307.543 50.2082 307.55 50.2103C307.557 50.2125 307.564 50.2129 307.571 50.2116H310.973C310.98 50.2129 310.988 50.2125 310.995 50.2103C311.002 50.2082 311.008 50.2044 311.013 50.1992C311.018 50.1941 311.022 50.1878 311.024 50.1808C311.026 50.1739 311.027 50.1665 311.025 50.1594C311.018 49.8773 310.992 49.596 310.947 49.3173C310.864 48.9472 310.658 48.6162 310.362 48.3784C310.041 48.1373 309.646 48.0148 309.244 48.0318H309.256ZM315.869 54.027C315.423 54.0349 314.98 53.9551 314.565 53.7922C314.222 53.6631 313.919 53.4459 313.686 53.1625C313.483 52.9129 313.374 52.6008 313.376 52.2795V52.123C313.374 52.1053 313.376 52.0872 313.381 52.0703C313.387 52.0533 313.397 52.0379 313.409 52.0253C313.422 52.0127 313.437 52.0031 313.454 51.9974C313.471 51.9918 313.489 51.9901 313.507 51.9926H314.137C314.154 51.9901 314.172 51.9918 314.189 51.9974C314.206 52.0031 314.222 52.0127 314.234 52.0253C314.247 52.0379 314.256 52.0533 314.262 52.0703C314.268 52.0872 314.269 52.1053 314.267 52.123V52.2273C314.275 52.3794 314.321 52.527 314.401 52.657C314.48 52.787 314.59 52.8954 314.722 52.9725C315.052 53.1917 315.443 53.3036 315.839 53.293C316.236 53.316 316.629 53.2073 316.957 52.9837C317.086 52.8988 317.192 52.7832 317.266 52.6473C317.339 52.5114 317.378 52.3594 317.378 52.205C317.382 52.1048 317.364 52.005 317.327 51.912C317.29 51.819 317.234 51.7347 317.162 51.6647C317.014 51.5242 316.841 51.413 316.652 51.3368C316.45 51.2586 316.149 51.158 315.735 51.035C315.324 50.9223 314.92 50.7816 314.528 50.614C314.222 50.4815 313.951 50.2814 313.734 50.029C313.512 49.7632 313.397 49.4247 313.41 49.0789C313.402 48.8188 313.457 48.5607 313.572 48.3269C313.686 48.0931 313.856 47.8908 314.066 47.7375C314.574 47.3844 315.184 47.2089 315.802 47.2382C316.241 47.2302 316.677 47.31 317.084 47.4729C317.425 47.6081 317.722 47.8336 317.945 48.125C318.143 48.3921 318.249 48.7164 318.246 49.049V49.09C318.246 49.1795 318.202 49.2204 318.112 49.2204H317.497C317.408 49.2204 317.363 49.1795 317.363 49.09V49.049C317.36 48.8993 317.319 48.7528 317.245 48.6227C317.171 48.4926 317.066 48.383 316.939 48.3039C316.596 48.0859 316.193 47.9804 315.787 48.002C315.41 47.9841 315.035 48.0774 314.71 48.2703C314.583 48.348 314.479 48.4578 314.408 48.5886C314.336 48.7194 314.301 48.8666 314.304 49.0155C314.3 49.1547 314.334 49.2924 314.404 49.4129C314.474 49.5334 314.576 49.632 314.699 49.6974C315.085 49.9069 315.495 50.0659 315.921 50.1706C316.339 50.2899 316.751 50.4304 317.155 50.5916C317.466 50.7179 317.745 50.9127 317.971 51.1617C318.205 51.4329 318.326 51.7836 318.31 52.1416C318.317 52.4069 318.26 52.6699 318.143 52.9082C318.026 53.1464 317.853 53.3526 317.639 53.5091C317.122 53.873 316.497 54.0528 315.865 54.0195L315.869 54.027Z" fill="#F95936"/>
<path d="M87.3015 38.1356V2.26541C87.5474 2.26541 88.1138 2.26541 88.9968 2.23187C89.8799 2.19834 90.8598 2.21324 91.9776 2.21324C93.0954 2.21324 94.1685 2.21324 95.264 2.17971C96.3594 2.14618 97.2611 2.15735 97.9653 2.15735C102.278 2.15735 105.457 3.11866 107.504 5.04127C109.551 6.96389 110.575 9.60562 110.578 12.9665C110.595 14.4986 110.307 16.0188 109.728 17.4377C109.172 18.7904 108.313 19.9975 107.217 20.9662C106.004 22.0098 104.59 22.7935 103.062 23.2688C101.202 23.852 99.2592 24.1313 97.3095 24.096H93.5835V38.1356H87.3015ZM93.6059 6.70679V19.3752H97.7045C99.9401 19.3752 101.53 18.7927 102.474 17.6277C103.418 16.4627 103.895 14.9785 103.905 13.1751C103.906 12.3697 103.799 11.5676 103.588 10.7905C103.378 10.0214 103.005 9.30612 102.496 8.69275C101.938 8.04082 101.233 7.53014 100.439 7.20235C99.3989 6.80343 98.2892 6.61596 97.1754 6.6509H95.141C94.556 6.6509 94.0493 6.66953 93.6245 6.70307L93.6059 6.70679ZM131.067 24.6698V11.7406H137.107V25.3591C137.08 27.1409 137.212 28.9216 137.502 30.6798C137.703 31.8599 137.997 33.0223 138.381 34.1562C138.68 35.0437 139.108 35.8823 139.652 36.6452L134.935 38.5529C134.475 38.116 134.082 37.6138 133.768 37.0625C133.441 36.4685 133.147 35.8565 132.889 35.2293C132.571 34.4067 132.367 33.544 132.285 32.6658C131.332 34.7499 129.99 36.2328 128.261 37.1146C126.591 37.9829 124.737 38.4377 122.855 38.4411C120.063 38.4411 118.076 37.6276 116.893 36.0006C115.711 34.3736 115.121 32.1491 115.124 29.3273V11.7481H121.163V29.2342C121.163 30.7246 121.428 31.8908 121.957 32.7329C122.486 33.575 123.388 33.9985 124.662 34.0034C125.474 33.9923 126.269 33.7619 126.961 33.3365C127.767 32.8595 128.468 32.226 129.025 31.4735C129.689 30.5864 130.194 29.5903 130.516 28.53C130.906 27.2887 131.096 25.9932 131.078 24.6922L131.067 24.6698ZM156.288 17.2514C155.624 17.2595 154.971 17.4228 154.381 17.7283C153.741 18.0517 153.166 18.49 152.685 19.0212C152.169 19.6117 151.757 20.2858 151.467 21.0146C151.139 21.8445 150.977 22.7306 150.99 23.6228V38.1542H144.95V24.7853C144.978 22.9986 144.836 21.2132 144.525 19.4534C144.309 18.2784 144.009 17.1204 143.627 15.9882C143.311 15.1074 142.883 14.2709 142.353 13.4993L147.122 11.5916C147.494 12.0526 147.836 12.5367 148.147 13.041C148.465 13.6058 148.749 14.1894 148.997 14.7885C149.307 15.5576 149.538 16.3567 149.686 17.1731C150.389 15.1238 151.412 13.6471 152.756 12.7429C154.104 11.8443 155.693 11.3753 157.313 11.3978C158.082 11.3909 158.849 11.4874 159.593 11.6847C160.301 11.8822 160.637 11.9791 160.599 11.9791L158.904 17.8624C158.711 17.7408 158.504 17.6409 158.289 17.5644C157.653 17.3416 156.98 17.2441 156.307 17.2774L156.288 17.2514ZM175.831 17.2514C175.167 17.2589 174.513 17.4223 173.923 17.7283C173.283 18.0507 172.708 18.4891 172.228 19.0212C171.115 20.2889 170.51 21.9244 170.533 23.6116V38.143H164.493V24.7853C164.521 22.9986 164.379 21.2132 164.068 19.4534C163.851 18.2783 163.55 17.1202 163.167 15.9882C162.853 15.1069 162.426 14.2702 161.896 13.4993L166.665 11.5916C167.03 12.0471 167.366 12.525 167.671 13.0224C167.99 13.5865 168.272 14.1702 168.517 14.7699C168.83 15.5384 169.061 16.3377 169.206 17.1545C169.914 15.1052 170.939 13.6284 172.28 12.7243C173.628 11.8252 175.217 11.3562 176.837 11.3792C177.607 11.3725 178.374 11.469 179.117 11.6661C179.822 11.8636 180.157 11.9604 180.124 11.9604L178.428 17.8438C178.237 17.7244 178.035 17.6246 177.825 17.5457C177.184 17.3243 176.508 17.2269 175.831 17.2588V17.2514ZM194.163 1.78103C195.355 1.77601 196.545 1.88959 197.714 2.12009C198.761 2.33185 199.797 2.59674 200.818 2.91373C201.632 3.17139 202.429 3.48257 203.202 3.84523C203.669 4.05995 204.118 4.30903 204.547 4.59043L201.939 9.14732L201.25 8.77472C200.792 8.52881 200.188 8.24563 199.447 7.92519C198.654 7.58999 197.84 7.30744 197.01 7.07939C196.184 6.84035 195.329 6.71499 194.469 6.70679C193.301 6.67681 192.151 6.99034 191.16 7.60848C190.221 8.20837 189.751 9.14732 189.751 10.4179C189.725 11.1371 189.848 11.854 190.112 12.5234C190.376 13.1929 190.776 13.8004 191.287 14.3078C192.312 15.3163 193.92 16.2453 196.108 17.0949C197.421 17.6067 198.7 18.2003 199.938 18.8722C200.983 19.4443 201.936 20.1689 202.766 21.0221C203.542 21.8299 204.148 22.7853 204.547 23.8315C204.977 25.0564 205.182 26.3491 205.151 27.6469C205.148 29.0071 204.889 30.3545 204.387 31.6188C203.877 32.9194 203.102 34.0995 202.111 35.084C201.041 36.1329 199.775 36.9609 198.385 37.5208C196.75 38.1717 195.002 38.4896 193.243 38.456C191.924 38.4623 190.609 38.3198 189.323 38.0312C188.185 37.7764 187.064 37.4466 185.97 37.0439C185.074 36.7353 184.202 36.3617 183.361 35.9261C182.631 35.5386 182.09 35.238 181.737 35.0244L183.972 30.1508L184.926 30.6798C185.56 31.0338 186.338 31.425 187.255 31.8461C188.172 32.2671 189.148 32.6584 190.169 33.0123C191.007 33.3257 191.89 33.5019 192.784 33.534C194.66 33.534 196.056 33.0744 196.972 32.1553C197.889 31.2363 198.349 29.9471 198.351 28.2878C198.364 27.5879 198.237 26.8925 197.978 26.2422C197.735 25.6762 197.374 25.1683 196.92 24.7518C196.417 24.2998 195.857 23.9153 195.255 23.6079C194.599 23.2775 193.865 22.9534 193.053 22.6354C191.463 21.9623 190.042 21.2903 188.79 20.6197C187.615 20.0072 186.533 19.2292 185.578 18.3095C184.709 17.4657 184.024 16.4508 183.566 15.3288C183.078 14.0552 182.843 12.6982 182.877 11.3345C182.87 10.0557 183.161 8.79281 183.727 7.64574C184.295 6.49409 185.086 5.46691 186.055 4.62396C187.105 3.72843 188.308 3.02921 189.606 2.55976C191.067 2.03341 192.61 1.77222 194.163 1.78848V1.78103ZM215.994 38.3405C214.123 38.3405 212.692 37.7828 211.701 36.6675C210.71 35.5522 210.213 34.114 210.211 32.3528V11.7481H216.258V31.8312C216.258 32.6434 216.381 33.1912 216.631 33.4743C216.774 33.6237 216.949 33.7392 217.142 33.8127C217.335 33.8862 217.542 33.9157 217.749 33.8991H218.196C218.349 33.9 218.502 33.8812 218.65 33.8432C218.811 33.8425 218.971 33.8251 219.127 33.7911L219.764 37.6065C219.463 37.7684 219.142 37.8935 218.811 37.9791C218.419 38.1006 218.017 38.1891 217.611 38.2436C217.077 38.3178 216.539 38.3527 216.001 38.348L215.994 38.3405ZM213.352 0C214.47 0 215.349 0.335342 215.96 1.00975C216.583 1.73169 216.906 2.66518 216.862 3.61794C216.894 4.58719 216.56 5.53307 215.927 6.26713C215.312 6.97507 214.406 7.32903 213.203 7.32903C212.719 7.35455 212.235 7.27483 211.785 7.09537C211.335 6.9159 210.928 6.64096 210.595 6.28948C209.979 5.60007 209.65 4.70191 209.674 3.77816C209.635 2.79463 209.963 1.83162 210.595 1.07681C211.191 0.358937 212.11 0 213.352 0ZM221.087 16.0553V11.7481H225.856L226.918 5.55173L231.896 4.43393V11.7443H238.417L237.672 16.0367H231.896V31.7231C231.896 32.6397 232.146 33.2135 232.641 33.493C233.146 33.7636 233.712 33.9021 234.285 33.8954C234.783 33.8951 235.281 33.859 235.775 33.7873C236.222 33.7258 236.665 33.6375 237.101 33.5228C237.56 33.4185 238.003 33.2918 238.428 33.1502L239.434 37.1258L238.957 37.286C238.499 37.4708 238.026 37.619 237.545 37.7294C236.829 37.9139 236.104 38.0595 235.373 38.1654C234.47 38.2899 233.56 38.3497 232.649 38.3442C231.729 38.3529 230.811 38.2466 229.918 38.0275C229.139 37.8389 228.409 37.4885 227.775 36.9991C227.167 36.5081 226.685 35.8799 226.367 35.166C226.01 34.2919 225.839 33.3526 225.868 32.4087V16.0404L221.087 16.0553ZM240.205 16.0553V11.7481H244.974L246.033 5.55173L251.014 4.43393V11.7443H257.531L256.786 16.0367H251.011V31.7231C251.011 32.6397 251.26 33.2135 251.756 33.493C252.261 33.7636 252.826 33.9021 253.399 33.8954C253.898 33.8951 254.396 33.859 254.889 33.7873C255.331 33.7289 255.769 33.6443 256.201 33.534C256.648 33.432 257.089 33.3076 257.524 33.1614L258.533 37.137L258.056 37.2972C257.602 37.4811 257.133 37.6294 256.655 37.7406C255.939 37.9237 255.214 38.0692 254.483 38.1765C253.577 38.3006 252.663 38.3604 251.748 38.3554C250.831 38.3644 249.916 38.258 249.025 38.0387C248.244 37.851 247.511 37.5005 246.875 37.0103C246.268 36.5206 245.789 35.8917 245.477 35.1771C245.113 34.305 244.938 33.3649 244.967 32.4199V16.0404L240.205 16.0553ZM260.657 25.5939C260.619 23.4682 260.953 21.3522 261.645 19.3416C262.222 17.6595 263.141 16.1154 264.346 14.8071C265.475 13.5998 266.859 12.6581 268.396 12.0499C270 11.4262 271.709 11.1139 273.43 11.1295C274.805 11.0979 276.176 11.2943 277.488 11.7108C278.498 12.0414 279.427 12.5838 280.211 13.3018C280.912 13.9644 281.449 14.7808 281.78 15.6864C282.118 16.6433 282.286 17.6523 282.275 18.6672C282.273 19.9515 281.906 21.2087 281.217 22.2926C280.441 23.5124 279.402 24.5435 278.177 25.3107C276.694 26.2476 275.073 26.9455 273.374 27.3786C271.316 27.918 269.197 28.1959 267.07 28.2058C267.169 28.9861 267.34 29.7556 267.58 30.5047C267.787 31.2005 268.129 31.8487 268.586 32.4124C269.045 32.9796 269.634 33.4271 270.304 33.7165C271.144 34.0595 272.046 34.222 272.953 34.1935C273.789 34.1865 274.623 34.0979 275.442 33.9289C276.266 33.7655 277.08 33.5527 277.879 33.2918C278.761 33.0086 279.63 32.6906 280.487 32.3379L282.078 36.1012C281.114 36.5768 280.118 36.984 279.097 37.3196C278.057 37.6697 276.995 37.9522 275.919 38.1654C274.663 38.4198 273.385 38.5447 272.103 38.538C270.31 38.5837 268.525 38.2668 266.857 37.6065C265.477 37.0428 264.257 36.1469 263.306 34.9983C262.354 33.7965 261.668 32.4057 261.294 30.9183C260.852 29.1874 260.638 27.4063 260.657 25.6199V25.5939ZM272.953 15.2617C271.929 15.2201 270.919 15.506 270.069 16.0777C269.299 16.6346 268.672 17.3647 268.236 18.2089C267.759 19.1226 267.429 20.106 267.26 21.1227C267.063 22.1968 266.946 23.284 266.909 24.3755C268.374 24.3408 269.828 24.1166 271.235 23.7085C272.265 23.4122 273.239 22.9462 274.115 22.3299C274.784 21.8705 275.339 21.2654 275.74 20.56C276.058 19.9739 276.228 19.3191 276.236 18.6523C276.257 18.2013 276.189 17.7505 276.034 17.3263C275.879 16.9021 275.641 16.5131 275.334 16.182C275.022 15.8722 274.65 15.6304 274.24 15.472C273.83 15.3136 273.392 15.242 272.953 15.2617ZM299.128 17.2737C298.464 17.2809 297.81 17.4442 297.22 17.7506C296.58 18.0722 296.005 18.5107 295.525 19.0436C294.411 20.3112 293.807 21.9468 293.83 23.634V38.1654H287.786V24.7853C287.813 22.9987 287.672 21.2136 287.365 19.4534C287.148 18.2783 286.847 17.1202 286.463 15.9882C286.15 15.1069 285.723 14.2702 285.193 13.4993L289.958 11.5916C290.326 12.0461 290.663 12.524 290.968 13.0224C291.284 13.5881 291.566 14.1715 291.814 14.7699C292.127 15.5384 292.358 16.3377 292.503 17.1545C293.211 15.1052 294.236 13.6284 295.577 12.7243C296.925 11.8252 298.514 11.3562 300.134 11.3792C300.902 11.3723 301.668 11.4688 302.411 11.6661C303.119 11.8636 303.454 11.9604 303.417 11.9604L301.721 17.8438C301.528 17.7222 301.322 17.6223 301.107 17.5457C300.472 17.3234 299.8 17.226 299.128 17.2588V17.2737ZM314.651 11.1295C315.666 11.128 316.679 11.2342 317.672 11.4463C318.571 11.6343 319.456 11.8833 320.322 12.1915C321.238 12.5082 322.088 12.8435 322.863 13.1975L321.063 17.3333C320.355 17.0129 319.651 16.7297 318.943 16.4838C318.344 16.2727 317.68 16.0677 316.95 15.869C316.252 15.6812 315.533 15.5847 314.811 15.5821C314.069 15.5616 313.338 15.7654 312.713 16.1671C312.428 16.3569 312.198 16.6182 312.046 16.9249C311.893 17.2315 311.824 17.5728 311.845 17.9146C311.845 19.9266 313.31 21.499 316.242 22.6317C317.262 23.0174 318.258 23.4666 319.222 23.9768C320.048 24.4187 320.801 24.9827 321.458 25.6498C322.074 26.2763 322.553 27.0235 322.866 27.8444C323.204 28.7893 323.366 29.7883 323.343 30.7916C323.335 31.8176 323.116 32.8308 322.701 33.769C322.286 34.7072 321.683 35.5503 320.929 36.2465C320.084 37.0227 319.094 37.6241 318.015 38.0163C316.772 38.4798 315.452 38.706 314.125 38.6833C312.967 38.6902 311.812 38.5652 310.682 38.3107C309.651 38.071 308.632 37.7775 307.631 37.4314C306.896 37.1836 306.18 36.8822 305.488 36.5297L304.695 36.1571L306.655 31.7045L307.344 32.0771C307.907 32.4138 308.491 32.715 309.091 32.9788C309.835 33.3097 310.596 33.5996 311.372 33.8469C312.091 34.0993 312.845 34.2352 313.607 34.2494C314.849 34.2494 315.767 34.001 316.361 33.5042C316.653 33.2696 316.886 32.9704 317.042 32.6303C317.199 32.2902 317.274 31.9185 317.263 31.5443C317.257 30.6109 316.907 29.7124 316.279 29.0218C315.469 28.1677 314.46 27.5276 313.343 27.1588C310.61 26.1354 308.657 24.9704 307.482 23.6638C306.307 22.3572 305.717 20.6619 305.712 18.5778C305.712 17.5888 305.949 16.6142 306.401 15.7349C306.866 14.8292 307.498 14.0199 308.264 13.3502C309.104 12.6441 310.066 12.0984 311.103 11.7406C312.239 11.3315 313.436 11.1198 314.643 11.1146L314.651 11.1295Z" fill="#F95936"/>
</svg>
