<svg width="332" height="63" viewBox="0 0 332 63" fill="none" xmlns="http://www.w3.org/2000/svg">
<g filter="url(#filter0_d_46_564)">
<path d="M73.3925 32.7443H68.9474C69.8454 27.7552 69.3536 22.9002 67.457 17.7621C69.3608 13.6969 70.0591 9.17107 69.4691 4.72112C69.3615 3.93189 68.9984 3.19963 68.4351 2.6364C67.8719 2.07317 67.1396 1.71 66.3504 1.60245C65.3141 1.46399 64.2698 1.39428 63.2243 1.3938C59.5115 1.40151 55.8543 2.29571 52.5568 4.002C44.0459 1.69683 35.0751 1.69683 26.5642 4.002C22.3225 1.81087 17.5096 0.977066 12.778 1.61363C11.9881 1.71939 11.2549 2.08199 10.6913 2.64555C10.1277 3.2091 9.76515 3.94235 9.65939 4.73229C9.06587 9.18192 9.76294 13.7084 11.6677 17.7733C9.78234 22.9114 9.28679 27.7664 10.1773 32.7555H5.73964C5.27115 32.7767 4.82888 32.9777 4.50485 33.3168C4.18083 33.6558 4 34.1067 4 34.5756C4 35.0446 4.18083 35.4955 4.50485 35.8345C4.82888 36.1736 5.27115 36.3746 5.73964 36.3958H11.0864C11.4292 37.5061 11.8391 38.6239 12.316 39.7492H9.20109C8.95514 39.7381 8.70948 39.7769 8.47895 39.8633C8.24842 39.9498 8.0378 40.0821 7.85982 40.2522C7.68183 40.4223 7.54017 40.6267 7.44339 40.8531C7.3466 41.0795 7.2967 41.3231 7.2967 41.5694C7.2967 41.8156 7.3466 42.0592 7.44339 42.2856C7.54017 42.512 7.68183 42.7164 7.85982 42.8865C8.0378 43.0566 8.24842 43.1889 8.47895 43.2753C8.70948 43.3618 8.95514 43.4006 9.20109 43.3895H14.0449C14.2796 43.8366 14.5181 44.2875 14.7715 44.742C16.2367 47.3635 18.6164 49.3532 21.4559 50.331C27.9652 52.5666 33.7219 53.6062 39.5717 53.6062C45.4215 53.6062 51.1782 52.5629 57.6875 50.331C60.5266 49.3542 62.9055 47.3641 64.3682 44.742C64.6253 44.2875 64.86 43.8366 65.0948 43.3895H69.9386C70.407 43.3683 70.8493 43.1673 71.1733 42.8282C71.4974 42.4892 71.6782 42.0383 71.6782 41.5694C71.6782 41.1004 71.4974 40.6495 71.1733 40.3105C70.8493 39.9714 70.407 39.7704 69.9386 39.7492H66.8162C67.2931 38.614 67.7029 37.4962 68.0457 36.3958H73.3925C73.6385 36.4069 73.8842 36.3681 74.1147 36.2817C74.3452 36.1952 74.5558 36.0629 74.7338 35.8928C74.9118 35.7227 75.0535 35.5183 75.1503 35.2919C75.247 35.0655 75.2969 34.8219 75.2969 34.5756C75.2969 34.3294 75.247 34.0858 75.1503 33.8594C75.0535 33.633 74.9118 33.4286 74.7338 33.2585C74.5558 33.0884 74.3452 32.9561 74.1147 32.8697C73.8842 32.7832 73.6385 32.7444 73.3925 32.7555V32.7443ZM63.228 5.049C64.1104 5.04895 64.9917 5.10871 65.866 5.22785C66.2163 7.8278 66.044 10.4715 65.3593 13.004C65.0389 12.3855 64.7147 11.7595 64.3607 11.141C62.9703 8.67588 60.7669 6.77015 58.1271 5.74949C59.7892 5.29257 61.5043 5.05704 63.228 5.049ZM13.2587 5.22785C15.8497 4.88018 18.4841 5.05758 21.005 5.74949C18.3616 6.76941 16.156 8.67849 14.7677 11.1485C14.4138 11.7819 14.0859 12.4041 13.7692 13.0115C13.0844 10.4764 12.9122 7.83027 13.2624 5.22785H13.2587ZM29.1463 30.9372C28.8568 30.9372 28.5791 30.8222 28.3744 30.6175C28.1697 30.4127 28.0546 30.135 28.0546 29.8455C28.0682 29.4791 28.0077 29.1137 27.8768 28.7712C27.746 28.4287 27.5474 28.1161 27.293 27.8521C27.0385 27.5881 26.7335 27.3781 26.396 27.2346C26.0586 27.0912 25.6957 27.0173 25.3291 27.0173C24.9624 27.0173 24.5995 27.0912 24.2621 27.2346C23.9246 27.3781 23.6196 27.5881 23.3652 27.8521C23.1107 28.1161 22.9121 28.4287 22.7813 28.7712C22.6504 29.1137 22.5899 29.4791 22.6035 29.8455C22.6035 30.135 22.4885 30.4127 22.2837 30.6175C22.079 30.8222 21.8013 30.9372 21.5118 30.9372C21.2222 30.9372 20.9446 30.8222 20.7398 30.6175C20.5351 30.4127 20.4201 30.135 20.4201 29.8455C20.402 29.1895 20.5156 28.5365 20.7542 27.9251C20.9927 27.3137 21.3514 26.7563 21.8091 26.2859C22.2667 25.8155 22.814 25.4416 23.4186 25.1863C24.0231 24.9309 24.6728 24.7994 25.3291 24.7994C25.9854 24.7994 26.635 24.9309 27.2396 25.1863C27.8442 25.4416 28.3914 25.8155 28.8491 26.2859C29.3067 26.7563 29.6654 27.3137 29.904 27.9251C30.1425 28.5365 30.2561 29.1895 30.2381 29.8455C30.2386 29.9889 30.2108 30.1309 30.1564 30.2636C30.102 30.3962 30.022 30.5168 29.9209 30.6186C29.8199 30.7203 29.6998 30.8011 29.5676 30.8564C29.4353 30.9117 29.2934 30.9405 29.1501 30.9409L29.1463 30.9372ZM44.49 44.2055H42.627C42.047 44.2056 41.4734 44.0847 40.9429 43.8505C40.4123 43.6163 39.9364 43.274 39.5456 42.8455C39.1558 43.2743 38.6806 43.6168 38.1506 43.851C37.6206 44.0852 37.0474 44.206 36.4679 44.2055H34.6049C33.4985 44.2045 32.4376 43.7645 31.6552 42.9821C30.8728 42.1997 30.4328 41.1389 30.4318 40.0324C30.4318 39.7428 30.5468 39.4651 30.7516 39.2604C30.9563 39.0557 31.234 38.9407 31.5235 38.9407C31.8131 38.9407 32.0908 39.0557 32.2955 39.2604C32.5002 39.4651 32.6152 39.7428 32.6152 40.0324C32.6152 40.5601 32.8249 41.0662 33.198 41.4393C33.5712 41.8124 34.0772 42.0221 34.6049 42.0221H36.4679C36.995 42.0211 37.5001 41.811 37.8724 41.438C38.2448 41.0649 38.4539 40.5594 38.4539 40.0324C38.4539 39.7428 38.5689 39.4651 38.7736 39.2604C38.9784 39.0557 39.2561 38.9407 39.5456 38.9407C39.8351 38.9407 40.1128 39.0557 40.3176 39.2604C40.5223 39.4651 40.6373 39.7428 40.6373 40.0324C40.6383 40.5598 40.8483 41.0653 41.2212 41.4382C41.5941 41.8111 42.0996 42.0211 42.627 42.0221H44.49C45.0174 42.0211 45.5229 41.8111 45.8958 41.4382C46.2688 41.0653 46.4787 40.5598 46.4797 40.0324C46.4797 39.7428 46.5947 39.4651 46.7994 39.2604C47.0042 39.0557 47.2819 38.9407 47.5714 38.9407C47.8609 38.9407 48.1386 39.0557 48.3434 39.2604C48.5481 39.4651 48.6631 39.7428 48.6631 40.0324C48.6631 41.1389 48.2241 42.2001 47.4424 42.9832C46.6607 43.7663 45.6002 44.2072 44.4937 44.2092L44.49 44.2055ZM56.5212 29.8492C56.5212 29.1259 56.2339 28.4321 55.7224 27.9206C55.2109 27.4091 54.5172 27.1218 53.7938 27.1218C53.0704 27.1218 52.3767 27.4091 51.8652 27.9206C51.3537 28.4321 51.0664 29.1259 51.0664 29.8492C51.0664 30.1388 50.9514 30.4165 50.7466 30.6212C50.5419 30.8259 50.2642 30.9409 49.9747 30.9409C49.6851 30.9409 49.4074 30.8259 49.2027 30.6212C48.998 30.4165 48.8829 30.1388 48.8829 29.8492C48.8829 28.5468 49.4003 27.2977 50.3213 26.3767C51.2423 25.4558 52.4914 24.9384 53.7938 24.9384C55.0962 24.9384 56.3453 25.4558 57.2663 26.3767C58.1873 27.2977 58.7047 28.5468 58.7047 29.8492C58.7047 30.1388 58.5897 30.4165 58.3849 30.6212C58.1802 30.8259 57.9025 30.9409 57.613 30.9409C57.3234 30.9409 57.0457 30.8259 56.841 30.6212C56.6363 30.4165 56.5212 30.1388 56.5212 29.8492Z" fill="#F95936"/>
<path d="M96.6634 53.9674C96.6309 53.9701 96.5983 53.9626 96.5702 53.9459C96.5421 53.9292 96.52 53.9041 96.5069 53.8742L94.5731 49.8017C94.5705 49.7899 94.5639 49.7793 94.5544 49.7718C94.5449 49.7644 94.533 49.7604 94.5209 49.7607H92.2853C92.2782 49.7594 92.2708 49.7598 92.2639 49.762C92.257 49.7641 92.2506 49.7679 92.2455 49.773C92.2404 49.7782 92.2366 49.7845 92.2344 49.7914C92.2323 49.7984 92.2318 49.8057 92.2332 49.8129V53.8332C92.2356 53.8514 92.2339 53.8699 92.228 53.8873C92.2221 53.9047 92.2123 53.9205 92.1993 53.9335C92.1863 53.9465 92.1705 53.9563 92.1532 53.9622C92.1358 53.968 92.1172 53.9698 92.099 53.9674H91.4321C91.4139 53.9698 91.3954 53.968 91.378 53.9622C91.3606 53.9563 91.3448 53.9465 91.3318 53.9335C91.3188 53.9205 91.309 53.9047 91.3031 53.8873C91.2973 53.8699 91.2955 53.8514 91.298 53.8332V44.8908C91.2955 44.8726 91.2973 44.8541 91.3031 44.8367C91.309 44.8193 91.3188 44.8035 91.3318 44.7905C91.3448 44.7776 91.3606 44.7678 91.378 44.7619C91.3954 44.756 91.4139 44.7542 91.4321 44.7567H94.8339C95.1703 44.7427 95.5059 44.7979 95.82 44.9191C96.1341 45.0402 96.4199 45.2247 96.6597 45.4609C96.9005 45.7049 97.0884 45.9959 97.2115 46.3159C97.3346 46.6358 97.3903 46.9777 97.375 47.3202C97.3905 47.8833 97.2145 48.435 96.8758 48.8851C96.5397 49.3152 96.0592 49.6091 95.5232 49.7123C95.486 49.7123 95.4785 49.7495 95.4972 49.7756L97.4682 53.822C97.4724 53.8442 97.4724 53.867 97.4682 53.8891C97.4682 53.9487 97.4347 53.9823 97.3639 53.9823H96.6671L96.6634 53.9674ZM92.2891 45.5839C92.2819 45.5825 92.2746 45.583 92.2676 45.5851C92.2607 45.5873 92.2544 45.5911 92.2492 45.5962C92.2441 45.6013 92.2403 45.6077 92.2381 45.6146C92.236 45.6215 92.2356 45.6289 92.2369 45.636V48.9596C92.2369 48.9969 92.2369 49.0118 92.2891 49.0118H94.7333C94.9605 49.0236 95.1877 48.9875 95.4 48.9059C95.6124 48.8243 95.8053 48.699 95.9662 48.5381C96.1271 48.3773 96.2524 48.1844 96.334 47.972C96.4155 47.7596 96.4516 47.5325 96.4398 47.3053C96.4488 47.0767 96.4115 46.8486 96.3302 46.6348C96.2489 46.4209 96.1252 46.2257 95.9666 46.0608C95.8044 45.9015 95.6113 45.777 95.3992 45.695C95.1871 45.613 94.9605 45.5752 94.7333 45.5839H92.2891ZM101.656 54.0717C101.075 54.0861 100.505 53.9151 100.028 53.5836C99.5693 53.2586 99.2354 52.7866 99.0816 52.2459C98.9426 51.7186 98.8798 51.174 98.8953 50.6289C98.8792 50.0886 98.942 49.5489 99.0816 49.0267C99.2294 48.4901 99.5585 48.0214 100.013 47.7002C100.499 47.366 101.078 47.195 101.667 47.2121C102.242 47.1983 102.807 47.3694 103.277 47.7002C103.725 48.0202 104.052 48.4824 104.205 49.0118C104.346 49.5387 104.407 50.0838 104.387 50.6289C104.408 51.174 104.347 51.7192 104.205 52.2459C104.058 52.785 103.73 53.2572 103.277 53.5836C102.803 53.9155 102.235 54.0866 101.656 54.0717ZM101.656 53.2557C102.042 53.2693 102.42 53.1485 102.727 52.9141C103.033 52.6796 103.249 52.346 103.337 51.9702C103.427 51.5341 103.467 51.089 103.456 50.6438C103.468 50.1979 103.433 49.7521 103.352 49.3136C103.259 48.94 103.042 48.6089 102.737 48.3746C102.422 48.1379 102.035 48.0157 101.641 48.0281C101.254 48.0119 100.873 48.1314 100.564 48.3661C100.255 48.6008 100.038 48.9359 99.9497 49.3136C99.8666 49.7519 99.8304 50.1978 99.8417 50.6438C99.8305 51.0885 99.8667 51.5332 99.9497 51.9702C100.031 52.3437 100.243 52.6763 100.546 52.9092C100.868 53.1481 101.263 53.2703 101.664 53.2557H101.656ZM109.041 47.227C109.347 47.2118 109.653 47.2587 109.941 47.365C110.228 47.4713 110.491 47.6348 110.714 47.8455C110.927 48.0634 111.092 48.3228 111.2 48.6075C111.307 48.8921 111.355 49.1959 111.34 49.4999V53.8332C111.343 53.8514 111.341 53.8699 111.335 53.8873C111.329 53.9047 111.319 53.9205 111.306 53.9335C111.293 53.9465 111.277 53.9563 111.26 53.9622C111.243 53.968 111.224 53.9698 111.206 53.9674H110.539C110.521 53.9698 110.502 53.968 110.485 53.9622C110.468 53.9563 110.452 53.9465 110.439 53.9335C110.426 53.9205 110.416 53.9047 110.41 53.8873C110.404 53.8699 110.402 53.8514 110.405 53.8332V49.6825C110.414 49.4663 110.379 49.2505 110.304 49.0477C110.228 48.845 110.113 48.6592 109.965 48.5013C109.822 48.3505 109.648 48.2314 109.455 48.1518C109.263 48.0722 109.056 48.0339 108.847 48.0393C108.632 48.0274 108.416 48.0612 108.215 48.1382C108.013 48.2153 107.83 48.334 107.678 48.4866C107.525 48.6392 107.406 48.8222 107.329 49.0238C107.252 49.2254 107.218 49.4409 107.23 49.6564V53.8332C107.23 53.9227 107.189 53.9674 107.1 53.9674H106.429C106.411 53.9692 106.393 53.967 106.376 53.9608C106.359 53.9547 106.344 53.9448 106.332 53.9319C106.319 53.919 106.31 53.9034 106.304 53.8863C106.298 53.8692 106.296 53.8511 106.299 53.8332V47.4506C106.296 47.4327 106.298 47.4146 106.304 47.3975C106.31 47.3804 106.319 47.3649 106.332 47.352C106.344 47.339 106.359 47.3291 106.376 47.323C106.393 47.3169 106.411 47.3146 106.429 47.3165H107.1C107.189 47.3165 107.23 47.3612 107.23 47.4506V48.0132C107.23 48.021 107.231 48.0289 107.235 48.036C107.238 48.0431 107.243 48.0494 107.249 48.0542C107.249 48.0542 107.275 48.0542 107.286 48.0542C107.49 47.7808 107.759 47.5631 108.069 47.4212C108.379 47.2792 108.72 47.2176 109.06 47.2419L109.041 47.227ZM116.039 47.2531C116.298 47.246 116.554 47.305 116.784 47.4245C116.817 47.4371 116.843 47.4621 116.858 47.4942C116.873 47.5262 116.874 47.5628 116.862 47.5959L116.72 48.2368C116.718 48.2554 116.711 48.273 116.699 48.288C116.688 48.3031 116.673 48.3151 116.656 48.3229C116.639 48.3306 116.62 48.334 116.602 48.3327C116.583 48.3313 116.565 48.3252 116.549 48.315C116.385 48.2528 116.21 48.2224 116.035 48.2256H115.863C115.653 48.2306 115.445 48.278 115.253 48.3651C115.061 48.4522 114.888 48.5771 114.746 48.7323C114.444 49.0632 114.283 49.4992 114.299 49.947V53.822C114.299 53.9115 114.258 53.9562 114.168 53.9562H113.497C113.48 53.958 113.461 53.9558 113.445 53.9496C113.428 53.9435 113.412 53.9336 113.4 53.9207C113.387 53.9078 113.378 53.8922 113.372 53.8751C113.366 53.858 113.365 53.8399 113.367 53.822V47.4506C113.365 47.4327 113.366 47.4146 113.372 47.3975C113.378 47.3804 113.387 47.3649 113.4 47.352C113.412 47.339 113.428 47.3291 113.445 47.323C113.461 47.3169 113.48 47.3146 113.497 47.3165H114.168C114.258 47.3165 114.299 47.3612 114.299 47.4506V48.2517C114.299 48.279 114.306 48.2939 114.321 48.2964C114.321 48.2964 114.343 48.2964 114.351 48.2778C114.521 47.9756 114.763 47.7197 115.055 47.5326C115.353 47.3504 115.697 47.2573 116.046 47.2643L116.039 47.2531ZM120.61 54.0717C120.03 54.0861 119.459 53.9151 118.982 53.5836C118.524 53.2575 118.191 52.786 118.036 52.2459C117.898 51.7184 117.837 51.1738 117.853 50.6289C117.836 50.0888 117.898 49.5491 118.036 49.0267C118.187 48.4848 118.523 48.0129 118.986 47.6928C119.471 47.3585 120.051 47.1876 120.64 47.2047C121.215 47.1909 121.779 47.362 122.25 47.6928C122.698 48.0119 123.024 48.4746 123.174 49.0043C123.316 49.531 123.379 50.0761 123.36 50.6214C123.38 51.1668 123.317 51.712 123.174 52.2385C123.03 52.7778 122.703 53.2505 122.25 53.5761C121.775 53.9086 121.205 54.0797 120.625 54.0642L120.61 54.0717ZM120.61 53.2557C120.997 53.2701 121.376 53.1498 121.683 52.9153C121.99 52.6807 122.207 52.3466 122.295 51.9702C122.385 51.5341 122.425 51.089 122.414 50.6438C122.425 50.1978 122.389 49.7519 122.306 49.3136C122.214 48.9414 122 48.6107 121.698 48.3746C121.381 48.1395 120.994 48.0175 120.599 48.0281C120.211 48.011 119.829 48.1301 119.52 48.3649C119.21 48.5996 118.992 48.9352 118.904 49.3136C118.822 49.7521 118.787 50.1979 118.8 50.6438C118.788 51.0884 118.823 51.533 118.904 51.9702C118.987 52.344 119.2 52.6765 119.504 52.9092C119.826 53.1484 120.22 53.2706 120.622 53.2557H120.61ZM127.995 47.227C128.302 47.2113 128.608 47.2581 128.895 47.3644C129.183 47.4707 129.446 47.6344 129.668 47.8455C129.881 48.0634 130.046 48.3228 130.154 48.6075C130.261 48.8921 130.309 49.1959 130.294 49.4999V53.8332C130.297 53.8511 130.295 53.8692 130.289 53.8863C130.283 53.9034 130.274 53.919 130.261 53.9319C130.249 53.9448 130.234 53.9547 130.217 53.9608C130.2 53.967 130.182 53.9692 130.164 53.9674H129.493C129.475 53.9692 129.457 53.967 129.44 53.9608C129.423 53.9547 129.408 53.9448 129.395 53.9319C129.383 53.919 129.373 53.9034 129.368 53.8863C129.362 53.8692 129.36 53.8511 129.363 53.8332V49.6825C129.371 49.466 129.336 49.2502 129.259 49.0474C129.183 48.8447 129.068 48.659 128.919 48.5013C128.776 48.3505 128.602 48.2314 128.409 48.1518C128.217 48.0722 128.01 48.0339 127.802 48.0393C127.586 48.0274 127.371 48.0612 127.169 48.1382C126.967 48.2153 126.784 48.334 126.632 48.4866C126.479 48.6392 126.36 48.8222 126.283 49.0238C126.206 49.2254 126.173 49.4409 126.184 49.6564V53.8332C126.187 53.8511 126.185 53.8692 126.179 53.8863C126.174 53.9034 126.164 53.919 126.152 53.9319C126.139 53.9448 126.124 53.9547 126.107 53.9608C126.09 53.967 126.072 53.9692 126.054 53.9674H125.383C125.294 53.9674 125.253 53.9227 125.253 53.8332V47.4506C125.253 47.3612 125.294 47.3165 125.383 47.3165H126.054C126.072 47.3146 126.09 47.3169 126.107 47.323C126.124 47.3291 126.139 47.339 126.152 47.352C126.164 47.3649 126.174 47.3804 126.179 47.3975C126.185 47.4146 126.187 47.4327 126.184 47.4506V48.0132C126.184 48.021 126.185 48.0289 126.189 48.036C126.192 48.0431 126.197 48.0494 126.203 48.0542C126.203 48.0542 126.229 48.0542 126.237 48.0542C126.441 47.7811 126.71 47.5636 127.02 47.4216C127.33 47.2797 127.67 47.2179 128.01 47.2419L127.995 47.227ZM137.31 49.526C137.348 49.8313 137.365 50.1387 137.362 50.4463V50.8673C137.365 50.885 137.363 50.9031 137.358 50.92C137.352 50.937 137.342 50.9524 137.33 50.965C137.317 50.9777 137.302 50.9872 137.285 50.9929C137.268 50.9986 137.25 51.0002 137.232 50.9977H133.003C132.966 50.9977 132.947 51.0164 132.947 51.0499C132.948 51.3622 132.976 51.6738 133.029 51.9814C133.112 52.3583 133.331 52.6913 133.644 52.9166C134.001 53.1554 134.425 53.2742 134.855 53.2557C135.196 53.263 135.532 53.1767 135.827 53.0061C136.11 52.8384 136.338 52.5925 136.483 52.2981C136.535 52.2199 136.599 52.2012 136.666 52.2459L137.18 52.5478C137.196 52.5559 137.21 52.5672 137.221 52.581C137.232 52.5948 137.24 52.6107 137.245 52.6278C137.25 52.6449 137.252 52.6628 137.249 52.6804C137.247 52.6981 137.241 52.715 137.232 52.7303C137.012 53.1524 136.669 53.4979 136.248 53.7214C135.784 53.9733 135.263 54.1016 134.736 54.094C134.181 54.1058 133.636 53.9514 133.171 53.6506C132.747 53.3545 132.429 52.93 132.265 52.4397C132.085 51.8537 132.006 51.2414 132.031 50.6289C132.031 50.2563 132.031 49.9582 132.031 49.7272C132.039 49.5167 132.072 49.308 132.127 49.1049C132.261 48.5585 132.579 48.0752 133.029 47.7375C133.501 47.3867 134.077 47.2055 134.665 47.2233C135.333 47.1808 135.992 47.3969 136.505 47.8269C136.961 48.2884 137.243 48.8921 137.307 49.5372L137.31 49.526ZM134.669 48.0356C134.284 48.0225 133.906 48.1393 133.595 48.3672C133.311 48.5941 133.115 48.9129 133.04 49.2689C132.973 49.5624 132.937 49.8621 132.932 50.1631C132.932 50.2004 132.932 50.2153 132.988 50.2153H136.39C136.397 50.2166 136.404 50.2162 136.411 50.214C136.418 50.2119 136.425 50.2081 136.43 50.203C136.435 50.1978 136.439 50.1915 136.441 50.1846C136.443 50.1776 136.443 50.1703 136.442 50.1631C136.435 49.881 136.409 49.5997 136.364 49.321C136.281 48.9509 136.074 48.6199 135.779 48.3821C135.457 48.141 135.063 48.0186 134.661 48.0356H134.669ZM141.748 54.0791C141.167 54.0935 140.597 53.9226 140.12 53.591C139.661 53.266 139.327 52.7941 139.173 52.2534C139.034 51.726 138.972 51.1815 138.987 50.6363C138.971 50.096 139.034 49.5563 139.173 49.0341C139.321 48.4976 139.65 48.0289 140.105 47.7077C140.59 47.3734 141.17 47.2025 141.759 47.2196C142.335 47.2063 142.9 47.3773 143.372 47.7077C143.819 48.0291 144.144 48.4909 144.297 49.0192C144.437 49.5462 144.499 50.0912 144.479 50.6363C144.5 51.1815 144.438 51.7266 144.297 52.2534C144.15 52.7914 143.824 53.2632 143.372 53.591C142.897 53.9225 142.328 54.0935 141.748 54.0791ZM141.748 53.2632C142.134 53.2767 142.512 53.156 142.818 52.9215C143.125 52.6871 143.341 52.3534 143.428 51.9777C143.519 51.5416 143.559 51.0965 143.548 50.6512C143.558 50.2054 143.523 49.7598 143.443 49.321C143.349 48.9491 143.134 48.619 142.832 48.3821C142.515 48.1464 142.128 48.0243 141.733 48.0356C141.341 48.0239 140.958 48.1462 140.645 48.3821C140.345 48.6203 140.132 48.9501 140.038 49.321C139.958 49.7598 139.923 50.2054 139.933 50.6512C139.923 51.0958 139.958 51.5402 140.038 51.9777C140.122 52.3509 140.335 52.6828 140.638 52.9166C140.96 53.1555 141.354 53.2777 141.755 53.2632H141.748ZM148.567 54.027C148.121 54.0349 147.678 53.9551 147.262 53.7922C146.919 53.6631 146.616 53.4459 146.383 53.1625C146.18 52.9133 146.069 52.6012 146.07 52.2795V52.123C146.068 52.1051 146.07 52.087 146.077 52.0701C146.083 52.0532 146.093 52.0379 146.106 52.0253C146.118 52.0128 146.134 52.0033 146.151 51.9976C146.168 51.992 146.186 51.9902 146.204 51.9926H146.834C146.852 51.9901 146.87 51.9918 146.887 51.9974C146.904 52.0031 146.919 52.0127 146.932 52.0253C146.944 52.0379 146.954 52.0533 146.959 52.0703C146.965 52.0872 146.967 52.1053 146.964 52.123V52.2273C146.973 52.3794 147.019 52.527 147.098 52.657C147.177 52.787 147.288 52.8954 147.419 52.9725C147.755 53.1954 148.152 53.3075 148.555 53.293C148.952 53.316 149.345 53.2073 149.673 52.9837C149.802 52.8988 149.908 52.7832 149.982 52.6473C150.055 52.5114 150.094 52.3594 150.094 52.205C150.098 52.1048 150.08 52.005 150.043 51.912C150.006 51.819 149.95 51.7347 149.878 51.6647C149.729 51.5234 149.555 51.4121 149.364 51.3368C149.166 51.2586 148.865 51.158 148.451 51.035C148.039 50.9229 147.636 50.7822 147.244 50.614C146.938 50.4815 146.667 50.2814 146.45 50.029C146.228 49.7632 146.113 49.4247 146.126 49.0789C146.118 48.8188 146.173 48.5607 146.288 48.3269C146.402 48.0931 146.572 47.8908 146.782 47.7375C147.29 47.3844 147.9 47.2089 148.518 47.2382C148.957 47.2302 149.392 47.31 149.8 47.4729C150.14 47.6082 150.436 47.8337 150.657 48.125C150.858 48.3909 150.965 48.7158 150.962 49.049V49.09C150.962 49.1795 150.918 49.2204 150.828 49.2204H150.213C150.124 49.2204 150.079 49.1795 150.079 49.09V49.049C150.076 48.8993 150.035 48.7528 149.961 48.6227C149.887 48.4926 149.782 48.383 149.654 48.3039C149.311 48.087 148.909 47.9816 148.503 48.002C148.126 47.9841 147.751 48.0774 147.426 48.2703C147.299 48.348 147.195 48.4578 147.124 48.5886C147.052 48.7194 147.017 48.8666 147.02 49.0155C147.016 49.1547 147.05 49.2924 147.12 49.4129C147.19 49.5334 147.292 49.632 147.415 49.6974C147.799 49.9064 148.209 50.0654 148.634 50.1706C149.053 50.2894 149.466 50.4299 149.871 50.5916C150.181 50.7191 150.46 50.9138 150.687 51.1617C150.928 51.438 151.051 51.7979 151.029 52.164C151.037 52.4292 150.98 52.6923 150.863 52.9305C150.746 53.1687 150.573 53.375 150.359 53.5314C149.841 53.8949 149.217 54.0746 148.585 54.0419L148.567 54.027ZM157.963 45.5801C157.785 45.5586 157.605 45.5761 157.434 45.6314C157.264 45.6868 157.107 45.7786 156.976 45.9006C156.771 46.2286 156.68 46.6147 156.715 46.9998V47.2606C156.715 47.2978 156.715 47.3127 156.767 47.3127H158.258C158.276 47.3109 158.294 47.3131 158.311 47.3193C158.328 47.3254 158.343 47.3353 158.356 47.3482C158.368 47.3611 158.378 47.3767 158.383 47.3938C158.389 47.4109 158.391 47.429 158.388 47.4469V48.0356C158.391 48.0534 158.389 48.0716 158.383 48.0886C158.378 48.1057 158.368 48.1213 158.356 48.1342C158.343 48.1471 158.328 48.157 158.311 48.1632C158.294 48.1693 158.276 48.1715 158.258 48.1697H156.767C156.73 48.1697 156.715 48.1697 156.715 48.2219V53.8295C156.718 53.8477 156.716 53.8662 156.71 53.8836C156.704 53.901 156.694 53.9168 156.681 53.9298C156.668 53.9428 156.653 53.9526 156.635 53.9584C156.618 53.9643 156.599 53.9661 156.581 53.9636H155.925C155.836 53.9636 155.795 53.9189 155.795 53.8295V48.2256C155.796 48.2185 155.796 48.2111 155.794 48.2042C155.792 48.1972 155.788 48.1909 155.783 48.1858C155.777 48.1806 155.771 48.1768 155.764 48.1747C155.757 48.1725 155.75 48.1721 155.743 48.1734H154.86C154.842 48.1753 154.824 48.173 154.807 48.1669C154.79 48.1607 154.775 48.1508 154.762 48.1379C154.749 48.125 154.74 48.1095 154.734 48.0924C154.729 48.0753 154.727 48.0571 154.729 48.0393V47.4506C154.727 47.4327 154.729 47.4146 154.734 47.3975C154.74 47.3804 154.749 47.3649 154.762 47.352C154.775 47.339 154.79 47.3291 154.807 47.323C154.824 47.3169 154.842 47.3146 154.86 47.3165H155.743C155.75 47.3178 155.757 47.3174 155.764 47.3152C155.771 47.3131 155.777 47.3093 155.783 47.3041C155.788 47.299 155.792 47.2927 155.794 47.2857C155.796 47.2788 155.796 47.2714 155.795 47.2643V46.9476C155.777 46.5128 155.839 46.0785 155.978 45.6658C156.092 45.3627 156.321 45.1165 156.615 44.9803C157.017 44.8191 157.449 44.7454 157.882 44.7642H158.254C158.272 44.7623 158.29 44.7645 158.307 44.7707C158.324 44.7768 158.339 44.7867 158.352 44.7996C158.364 44.8125 158.374 44.8281 158.379 44.8452C158.385 44.8623 158.387 44.8804 158.385 44.8983V45.4572C158.387 45.4749 158.385 45.4929 158.38 45.5099C158.374 45.5268 158.364 45.5422 158.352 45.5549C158.339 45.5675 158.324 45.5771 158.307 45.5827C158.29 45.5884 158.272 45.5901 158.254 45.5876H157.952L157.963 45.5801ZM164.488 49.5222C164.527 49.8274 164.545 50.1349 164.54 50.4426V50.8636C164.542 50.8813 164.541 50.8993 164.535 50.9163C164.529 50.9333 164.52 50.9487 164.507 50.9613C164.494 50.9739 164.479 50.9835 164.462 50.9892C164.445 50.9948 164.427 50.9965 164.409 50.994H160.166C160.159 50.9934 160.151 50.9944 160.145 50.9968C160.138 50.9993 160.132 51.0031 160.127 51.008C160.122 51.013 160.119 51.019 160.116 51.0256C160.114 51.0322 160.113 51.0392 160.113 51.0462C160.116 51.3582 160.142 51.6696 160.192 51.9777C160.276 52.3548 160.496 52.6878 160.81 52.9129C161.166 53.1512 161.589 53.2699 162.017 53.252C162.358 53.2593 162.695 53.173 162.99 53.0023C163.273 52.8349 163.502 52.5891 163.649 52.2944C163.701 52.2161 163.761 52.1975 163.832 52.2422L164.346 52.544C164.362 52.5526 164.375 52.5641 164.386 52.5779C164.397 52.5917 164.405 52.6075 164.41 52.6245C164.415 52.6415 164.416 52.6592 164.414 52.6767C164.412 52.6942 164.407 52.7112 164.398 52.7266C164.178 53.1498 163.833 53.4956 163.411 53.7177C162.948 53.9695 162.429 54.0978 161.902 54.0903C161.351 54.1028 160.809 53.9511 160.344 53.6544C159.92 53.3592 159.602 52.9344 159.439 52.4434C159.256 51.8581 159.175 51.2454 159.201 50.6326C159.201 50.26 159.2 49.9619 159.223 49.7309C159.231 49.5205 159.264 49.3117 159.32 49.1087C159.453 48.5622 159.772 48.0789 160.221 47.7412C160.693 47.3904 161.27 47.2092 161.857 47.227C162.524 47.1831 163.183 47.3995 163.694 47.8306C164.15 48.2912 164.433 48.8954 164.495 49.5409L164.488 49.5222ZM161.85 48.0318C161.466 48.0175 161.089 48.1345 160.78 48.3635C160.494 48.5896 160.295 48.9084 160.218 49.2652C160.153 49.5589 160.118 49.8585 160.113 50.1594C160.112 50.1665 160.112 50.1739 160.115 50.1808C160.117 50.1878 160.121 50.1941 160.126 50.1992C160.131 50.2044 160.137 50.2082 160.144 50.2103C160.151 50.2125 160.158 50.2129 160.166 50.2116H163.567C163.605 50.2116 163.623 50.2116 163.623 50.1594C163.617 49.877 163.59 49.5956 163.541 49.3173C163.46 48.9474 163.255 48.6163 162.96 48.3784C162.638 48.1378 162.244 48.0155 161.842 48.0318H161.85ZM166.526 53.9711C166.436 53.9711 166.395 53.9264 166.395 53.8369V44.8946C166.395 44.8051 166.436 44.7604 166.526 44.7604H167.196C167.214 44.7586 167.232 44.7608 167.249 44.767C167.266 44.7731 167.282 44.783 167.294 44.7959C167.307 44.8088 167.316 44.8244 167.322 44.8415C167.328 44.8586 167.329 44.8767 167.327 44.8946V53.8369C167.329 53.8548 167.328 53.8729 167.322 53.89C167.316 53.9071 167.307 53.9227 167.294 53.9356C167.282 53.9485 167.266 53.9584 167.249 53.9645C167.232 53.9707 167.214 53.9729 167.196 53.9711H166.526ZM170.032 46.1092C169.933 46.1129 169.835 46.0961 169.743 46.06C169.65 46.0238 169.567 45.969 169.497 45.8991C169.427 45.8292 169.372 45.7455 169.336 45.6535C169.3 45.5614 169.283 45.4629 169.287 45.364C169.281 45.2648 169.297 45.1655 169.333 45.0726C169.368 44.9798 169.423 44.8954 169.493 44.8251C169.563 44.7548 169.648 44.7001 169.741 44.6646C169.833 44.629 169.933 44.6135 170.032 44.6188C170.227 44.6147 170.415 44.6869 170.557 44.82C170.628 44.89 170.682 44.9739 170.718 45.0663C170.754 45.1587 170.77 45.2576 170.766 45.3566C170.769 45.4538 170.752 45.5505 170.716 45.6409C170.68 45.7312 170.626 45.8133 170.557 45.882C170.416 46.0178 170.228 46.0928 170.032 46.0906V46.1092ZM169.659 53.9524C169.642 53.9549 169.624 53.9533 169.607 53.9476C169.59 53.9419 169.574 53.9324 169.562 53.9197C169.549 53.9071 169.539 53.8917 169.534 53.8747C169.528 53.8578 169.526 53.8398 169.529 53.822V47.4357C169.526 47.418 169.528 47.3999 169.534 47.383C169.539 47.366 169.549 47.3506 169.562 47.338C169.574 47.3253 169.59 47.3158 169.607 47.3101C169.624 47.3045 169.642 47.3028 169.659 47.3053H170.33C170.348 47.3028 170.366 47.3045 170.383 47.3101C170.4 47.3158 170.415 47.3253 170.428 47.338C170.44 47.3506 170.45 47.366 170.456 47.383C170.461 47.3999 170.463 47.418 170.46 47.4357V53.822C170.463 53.8398 170.461 53.8578 170.456 53.8747C170.45 53.8917 170.44 53.9071 170.428 53.9197C170.415 53.9324 170.4 53.9419 170.383 53.9476C170.366 53.9533 170.348 53.9549 170.33 53.9524H169.659ZM175.248 54.0717C174.667 54.0871 174.097 53.9131 173.624 53.5761C173.176 53.2482 172.851 52.78 172.7 52.2459C172.57 51.7133 172.512 51.1657 172.528 50.6177C172.519 50.0774 172.577 49.538 172.7 49.0118C172.853 48.4759 173.188 48.0098 173.646 47.6928C174.122 47.3585 174.693 47.1861 175.274 47.2009C175.866 47.1871 176.446 47.3577 176.936 47.6891C177.374 47.9702 177.698 48.3982 177.849 48.8963C177.887 49.0254 177.915 49.1575 177.931 49.2912V49.3173C177.931 49.3769 177.89 49.4179 177.812 49.4365L177.152 49.526H177.111C177.052 49.526 177.011 49.4887 176.996 49.4105L176.955 49.213C176.869 48.8703 176.664 48.5692 176.377 48.3635C176.054 48.1266 175.66 48.0047 175.26 48.0169C174.858 47.999 174.463 48.1215 174.142 48.3635C173.851 48.5983 173.65 48.9258 173.572 49.2912C173.484 49.7278 173.446 50.1726 173.456 50.6177C173.444 51.0677 173.482 51.5178 173.572 51.9591C173.647 52.3287 173.848 52.6607 174.142 52.898C174.463 53.1399 174.858 53.2625 175.26 53.2445C175.658 53.2553 176.05 53.1378 176.377 52.9092C176.675 52.7075 176.884 52.3995 176.962 52.0485V51.9963V51.9441C176.962 51.8584 177.022 51.8212 177.119 51.8398L177.763 51.9441C177.849 51.9628 177.89 52.0112 177.879 52.0895L177.827 52.354C177.693 52.8652 177.369 53.3062 176.921 53.5873C176.426 53.9102 175.844 54.0752 175.252 54.0605L175.248 54.0717ZM184.627 49.526C184.666 49.8311 184.684 50.1387 184.679 50.4463V50.8673C184.681 50.885 184.68 50.9031 184.674 50.92C184.668 50.937 184.659 50.9524 184.646 50.965C184.634 50.9777 184.618 50.9872 184.601 50.9929C184.584 50.9986 184.566 51.0002 184.548 50.9977H180.331C180.324 50.9972 180.317 50.9981 180.31 51.0006C180.303 51.003 180.297 51.0068 180.292 51.0118C180.288 51.0167 180.284 51.0227 180.281 51.0293C180.279 51.0359 180.278 51.0429 180.278 51.0499C180.281 51.3619 180.307 51.6733 180.357 51.9814C180.441 52.3586 180.661 52.6915 180.975 52.9166C181.331 53.1549 181.754 53.2736 182.182 53.2557C182.523 53.263 182.86 53.1767 183.155 53.0061C183.438 52.8375 183.666 52.5919 183.814 52.2981C183.867 52.2199 183.926 52.2012 183.997 52.2459L184.507 52.5478C184.524 52.5556 184.538 52.5667 184.55 52.5803C184.561 52.5939 184.57 52.6097 184.575 52.6269C184.58 52.644 184.582 52.662 184.58 52.6798C184.578 52.6976 184.572 52.7148 184.563 52.7303C184.343 53.1535 183.998 53.4993 183.576 53.7214C183.113 53.9732 182.594 54.1015 182.067 54.094C181.513 54.1058 180.968 53.9514 180.502 53.6506C180.077 53.3555 179.76 52.9306 179.597 52.4397C179.413 51.8543 179.333 51.2417 179.358 50.6289C179.358 50.2563 179.358 49.9582 179.381 49.7272C179.389 49.5167 179.421 49.308 179.477 49.1049C179.611 48.5585 179.929 48.0752 180.379 47.7375C180.85 47.3875 181.425 47.2063 182.011 47.2233C182.679 47.1808 183.338 47.3969 183.852 47.8269C184.308 48.2875 184.591 48.8917 184.653 49.5372L184.627 49.526ZM181.985 48.0356C181.601 48.0224 181.224 48.1393 180.916 48.3672C180.631 48.5948 180.434 48.9131 180.357 49.2689C180.292 49.5626 180.257 49.8623 180.252 50.1631C180.251 50.1703 180.251 50.1776 180.254 50.1846C180.256 50.1915 180.26 50.1978 180.265 50.203C180.27 50.2081 180.276 50.2119 180.283 50.214C180.29 50.2162 180.297 50.2166 180.305 50.2153H183.706C183.744 50.2153 183.759 50.2153 183.759 50.1631C183.755 49.8808 183.729 49.5992 183.68 49.321C183.597 48.9518 183.392 48.6212 183.099 48.3821C182.777 48.1418 182.383 48.0195 181.981 48.0356H181.985ZM188.621 54.027C188.175 54.0353 187.732 53.9555 187.317 53.7922C186.973 53.6631 186.668 53.446 186.434 53.1625C186.233 52.912 186.124 52.6005 186.125 52.2795V52.123C186.122 52.1053 186.124 52.0872 186.129 52.0703C186.135 52.0533 186.145 52.0379 186.157 52.0253C186.17 52.0127 186.185 52.0031 186.202 51.9974C186.219 51.9918 186.237 51.9901 186.255 51.9926H186.888C186.906 51.9901 186.924 51.9918 186.941 51.9974C186.958 52.0031 186.973 52.0127 186.986 52.0253C186.999 52.0379 187.008 52.0533 187.014 52.0703C187.02 52.0872 187.021 52.1053 187.019 52.123V52.2273C187.027 52.3794 187.073 52.527 187.153 52.657C187.232 52.787 187.342 52.8954 187.473 52.9725C187.809 53.1959 188.207 53.308 188.61 53.293C189.006 53.316 189.399 53.2073 189.728 52.9837C189.857 52.8988 189.963 52.7832 190.036 52.6473C190.11 52.5114 190.148 52.3594 190.149 52.205C190.151 52.105 190.133 52.0057 190.095 51.9129C190.058 51.82 190.003 51.7356 189.933 51.6647C189.784 51.5234 189.609 51.4121 189.418 51.3368C189.221 51.2586 188.915 51.158 188.505 51.035C188.093 50.9222 187.688 50.7816 187.295 50.614C186.99 50.4795 186.719 50.2798 186.501 50.029C186.282 49.762 186.168 49.424 186.18 49.0789C186.172 48.8187 186.227 48.5603 186.341 48.3265C186.456 48.0926 186.626 47.8904 186.836 47.7375C187.343 47.385 187.952 47.2095 188.569 47.2382C189.009 47.2302 189.446 47.31 189.854 47.4729C190.193 47.6092 190.489 47.8345 190.711 48.125C190.91 48.3921 191.015 48.7164 191.013 49.049V49.09C191.016 49.1079 191.015 49.1263 191.01 49.1436C191.005 49.161 190.995 49.1768 190.982 49.1896C190.969 49.2024 190.954 49.212 190.936 49.2173C190.919 49.2227 190.901 49.2238 190.883 49.2204H190.264C190.246 49.2229 190.228 49.2213 190.211 49.2156C190.194 49.2099 190.179 49.2004 190.166 49.1877C190.154 49.1751 190.144 49.1597 190.139 49.1427C190.133 49.1258 190.131 49.1077 190.134 49.09V49.049C190.13 48.8993 190.09 48.7528 190.016 48.6227C189.941 48.4926 189.836 48.383 189.709 48.3039C189.365 48.087 188.963 47.9816 188.558 48.002C188.18 47.9841 187.806 48.0774 187.481 48.2703C187.353 48.3478 187.248 48.4574 187.176 48.5882C187.105 48.719 187.068 48.8663 187.071 49.0155C187.066 49.1547 187.101 49.2924 187.171 49.4129C187.241 49.5334 187.343 49.632 187.466 49.6974C187.852 49.9056 188.262 50.0646 188.688 50.1706C189.107 50.2894 189.52 50.4299 189.925 50.5916C190.235 50.7192 190.512 50.9139 190.737 51.1617C190.973 51.4324 191.096 51.7831 191.08 52.1416C191.088 52.4069 191.03 52.6699 190.914 52.9082C190.797 53.1464 190.624 53.3526 190.409 53.5091C189.892 53.8725 189.267 54.0522 188.636 54.0195L188.621 54.027ZM192.72 54.9995C192.701 55.0012 192.682 54.9988 192.665 54.9924C192.648 54.9859 192.632 54.9756 192.619 54.9622C192.608 54.9467 192.601 54.929 192.597 54.9103C192.594 54.8916 192.595 54.8724 192.6 54.8541L193.178 52.0447C193.183 52.0102 193.2 51.9787 193.227 51.9565C193.254 51.9344 193.288 51.9233 193.323 51.9255H193.878C193.897 51.9239 193.915 51.9268 193.932 51.9339C193.949 51.941 193.964 51.9522 193.975 51.9665C193.987 51.981 193.995 51.9979 193.999 52.016C194.003 52.0341 194.002 52.0529 193.998 52.0708L193.252 54.8839C193.249 54.9179 193.232 54.9491 193.205 54.9707C193.179 54.9923 193.145 55.0026 193.111 54.9995H192.69H192.72ZM201.375 54.068C200.795 54.0853 200.225 53.9111 199.754 53.5724C199.302 53.2479 198.975 52.7785 198.826 52.2422C198.695 51.7099 198.637 51.162 198.655 50.614C198.644 50.0736 198.702 49.534 198.826 49.0081C198.974 48.4794 199.299 48.0177 199.747 47.7002C200.223 47.3655 200.794 47.193 201.375 47.2084C201.966 47.195 202.547 47.3656 203.037 47.6965C203.474 47.9789 203.797 48.4064 203.95 48.9037C203.989 49.0325 204.015 49.1648 204.028 49.2987V49.3248C204.028 49.3844 203.987 49.4254 203.909 49.444L203.253 49.5334H203.227C203.164 49.5334 203.126 49.4962 203.108 49.4179L203.07 49.2204C202.984 48.8772 202.778 48.5761 202.489 48.3709C202.166 48.1338 201.772 48.0119 201.371 48.0244C200.977 48.0098 200.59 48.1323 200.276 48.3709C199.982 48.6033 199.779 48.9317 199.702 49.2987C199.613 49.735 199.573 50.1799 199.583 50.6251C199.571 51.0753 199.611 51.5254 199.702 51.9665C199.776 52.3378 199.979 52.6707 200.276 52.9054C200.59 53.1441 200.977 53.2666 201.371 53.252C201.77 53.2628 202.162 53.1452 202.489 52.9166C202.784 52.7125 202.993 52.4056 203.074 52.0559V52.0038V51.9516C203.074 51.8659 203.137 51.8286 203.231 51.8473L203.875 51.9516C203.965 51.9702 204.002 52.0187 203.994 52.0969L203.942 52.3615C203.808 52.8727 203.484 53.3137 203.037 53.5948C202.541 53.917 201.959 54.082 201.368 54.068H201.375ZM209.718 47.4469C209.715 47.429 209.717 47.4109 209.723 47.3938C209.728 47.3767 209.738 47.3611 209.75 47.3482C209.763 47.3353 209.778 47.3254 209.795 47.3193C209.812 47.3131 209.83 47.3109 209.848 47.3127H210.519C210.537 47.3109 210.555 47.3131 210.572 47.3193C210.588 47.3254 210.604 47.3353 210.616 47.3482C210.629 47.3611 210.638 47.3767 210.644 47.3938C210.65 47.4109 210.651 47.429 210.649 47.4469V53.8295C210.651 53.8473 210.65 53.8655 210.644 53.8826C210.638 53.8997 210.629 53.9152 210.616 53.9281C210.604 53.941 210.588 53.9509 210.572 53.9571C210.555 53.9632 210.537 53.9655 210.519 53.9636H209.848C209.83 53.9655 209.812 53.9632 209.795 53.9571C209.778 53.9509 209.763 53.941 209.75 53.9281C209.738 53.9152 209.728 53.8997 209.723 53.8826C209.717 53.8655 209.715 53.8473 209.718 53.8295V53.2818C209.717 53.2733 209.714 53.2652 209.71 53.2581C209.705 53.2509 209.699 53.245 209.691 53.2408C209.686 53.2356 209.679 53.2326 209.671 53.2326C209.663 53.2326 209.656 53.2356 209.65 53.2408C209.454 53.5155 209.19 53.7347 208.884 53.877C208.577 54.0194 208.24 54.08 207.903 54.0531C207.502 54.0576 207.106 53.9696 206.744 53.796C206.397 53.635 206.104 53.3759 205.902 53.0508C205.687 52.7005 205.58 52.2951 205.593 51.8845V47.4506C205.593 47.3612 205.634 47.3165 205.723 47.3165H206.394C206.412 47.3146 206.43 47.3169 206.447 47.323C206.464 47.3291 206.479 47.339 206.492 47.352C206.504 47.3649 206.514 47.3804 206.519 47.3975C206.525 47.4146 206.527 47.4327 206.524 47.4506V51.6163C206.502 52.0525 206.654 52.4798 206.945 52.8048C207.094 52.955 207.273 53.0719 207.47 53.1477C207.667 53.2235 207.878 53.2565 208.089 53.2445C208.307 53.2594 208.525 53.2275 208.73 53.1509C208.934 53.0743 209.119 52.9549 209.274 52.8006C209.428 52.6464 209.547 52.4608 209.624 52.2565C209.701 52.0522 209.732 51.8339 209.718 51.6163V47.4469ZM213.369 46.1055C213.173 46.1076 212.985 46.0327 212.844 45.8968C212.775 45.8282 212.721 45.7461 212.685 45.6558C212.649 45.5654 212.632 45.4687 212.635 45.3715C212.631 45.2724 212.647 45.1736 212.683 45.0812C212.719 44.9888 212.773 44.9049 212.844 44.8349C212.986 44.7018 213.174 44.6296 213.369 44.6337C213.468 44.6284 213.568 44.644 213.66 44.6795C213.753 44.715 213.838 44.7698 213.908 44.8401C213.978 44.9104 214.033 44.9947 214.068 45.0875C214.104 45.1804 214.12 45.2797 214.114 45.3789C214.118 45.4778 214.101 45.5763 214.065 45.6684C214.029 45.7605 213.974 45.8441 213.904 45.914C213.834 45.9839 213.751 46.0387 213.658 46.0749C213.566 46.111 213.468 46.1278 213.369 46.1241V46.1055ZM212.996 53.9487C212.979 53.9512 212.961 53.9495 212.944 53.9439C212.927 53.9382 212.911 53.9287 212.899 53.916C212.886 53.9034 212.877 53.888 212.871 53.871C212.865 53.8541 212.864 53.836 212.866 53.8183V47.4357C212.864 47.418 212.865 47.3999 212.871 47.383C212.877 47.366 212.886 47.3506 212.899 47.338C212.911 47.3253 212.927 47.3158 212.944 47.3101C212.961 47.3045 212.979 47.3028 212.996 47.3053H213.667C213.685 47.3028 213.703 47.3045 213.72 47.3101C213.737 47.3158 213.752 47.3253 213.765 47.338C213.777 47.3506 213.787 47.366 213.793 47.383C213.798 47.3999 213.8 47.418 213.798 47.4357V53.822C213.8 53.8398 213.798 53.8578 213.793 53.8747C213.787 53.8917 213.777 53.9071 213.765 53.9197C213.752 53.9324 213.737 53.9419 213.72 53.9476C213.703 53.9533 213.685 53.9549 213.667 53.9524H212.996V53.9487ZM220.21 44.8983C220.208 44.8804 220.209 44.8623 220.215 44.8452C220.221 44.8281 220.23 44.8125 220.243 44.7996C220.255 44.7867 220.271 44.7768 220.287 44.7707C220.304 44.7645 220.322 44.7623 220.34 44.7642H221.011C221.029 44.7617 221.048 44.7635 221.065 44.7693C221.083 44.7752 221.098 44.785 221.111 44.798C221.124 44.811 221.134 44.8268 221.14 44.8442C221.146 44.8616 221.148 44.8801 221.145 44.8983V53.8407C221.148 53.8589 221.146 53.8774 221.14 53.8948C221.134 53.9122 221.124 53.928 221.111 53.941C221.098 53.9539 221.083 53.9638 221.065 53.9696C221.048 53.9755 221.029 53.9773 221.011 53.9748H220.333C220.315 53.9766 220.297 53.9744 220.28 53.9683C220.263 53.9621 220.248 53.9522 220.235 53.9393C220.223 53.9264 220.213 53.9108 220.208 53.8938C220.202 53.8767 220.2 53.8585 220.203 53.8407V53.2818C220.205 53.2765 220.206 53.2708 220.206 53.265C220.206 53.2592 220.205 53.2535 220.203 53.2482C220.203 53.2482 220.173 53.2482 220.158 53.2706C219.968 53.5215 219.721 53.7244 219.439 53.863C219.142 54.0045 218.817 54.0759 218.489 54.0717C217.935 54.091 217.39 53.9244 216.942 53.5985C216.523 53.2737 216.221 52.8211 216.082 52.3093C215.943 51.7654 215.882 51.2048 215.899 50.6438C215.88 50.0953 215.932 49.5466 216.055 49.0118C216.186 48.4907 216.485 48.0272 216.905 47.6928C217.358 47.362 217.909 47.1928 218.47 47.2121C218.797 47.2087 219.12 47.2788 219.416 47.4171C219.701 47.5504 219.949 47.7511 220.139 48.002C220.144 48.0095 220.15 48.0153 220.158 48.0187C220.167 48.022 220.175 48.0227 220.184 48.0207C220.184 48.0207 220.184 48.0207 220.184 47.9871L220.21 44.8983ZM219.96 52.2459C220.044 52.0482 220.102 51.8403 220.132 51.6274C220.171 51.3011 220.188 50.9725 220.184 50.6438C220.188 50.3114 220.171 49.979 220.132 49.6489C220.101 49.4286 220.038 49.2139 219.945 49.0118C219.849 48.7265 219.668 48.4771 219.428 48.2964C219.178 48.1151 218.875 48.0208 218.567 48.0281C218.245 48.019 217.929 48.1102 217.661 48.2889C217.411 48.4597 217.219 48.7028 217.11 48.9857C217 49.1898 216.922 49.4097 216.879 49.6378C216.822 49.97 216.797 50.3068 216.804 50.6438C216.799 50.9664 216.818 51.289 216.86 51.6088C216.888 51.8244 216.95 52.0344 217.043 52.231C217.14 52.5344 217.335 52.7967 217.598 52.9762C217.88 53.165 218.213 53.2614 218.552 53.252C218.869 53.2636 219.181 53.1663 219.435 52.9762C219.677 52.7824 219.859 52.524 219.96 52.231V52.2459ZM225.549 47.2121C226.213 47.1696 226.867 47.3859 227.375 47.8157C227.59 48.0226 227.759 48.2727 227.87 48.5495C227.981 48.8264 228.032 49.1236 228.02 49.4216V53.8332C228.022 53.8514 228.02 53.8699 228.014 53.8873C228.009 53.9047 227.999 53.9205 227.986 53.9335C227.973 53.9465 227.957 53.9563 227.94 53.9622C227.922 53.968 227.904 53.9698 227.886 53.9674H227.215C227.197 53.9692 227.179 53.967 227.162 53.9608C227.145 53.9547 227.13 53.9448 227.117 53.9319C227.105 53.919 227.095 53.9034 227.089 53.8863C227.084 53.8692 227.082 53.8511 227.084 53.8332V53.2818C227.088 53.2754 227.089 53.2684 227.089 53.2613C227.089 53.2542 227.088 53.2471 227.084 53.2408C227.084 53.2408 227.055 53.2408 227.04 53.2408C226.81 53.5095 226.515 53.7148 226.183 53.8369C225.81 53.9782 225.415 54.0478 225.016 54.0419C224.457 54.0617 223.906 53.8953 223.452 53.5687C223.237 53.397 223.068 53.1756 222.958 52.9237C222.848 52.6718 222.802 52.397 222.822 52.123C222.81 51.8254 222.868 51.5291 222.993 51.2585C223.117 50.9878 223.304 50.7503 223.537 50.5655C224.116 50.1543 224.818 49.9531 225.527 49.9954H227.04C227.047 49.9968 227.054 49.9964 227.061 49.9942C227.068 49.9921 227.074 49.9882 227.08 49.9831C227.085 49.978 227.088 49.9717 227.091 49.9647C227.093 49.9578 227.093 49.9504 227.092 49.9433V49.444C227.103 49.2518 227.075 49.0592 227.012 48.8776C226.948 48.696 226.848 48.5288 226.719 48.3858C226.561 48.2479 226.376 48.1437 226.176 48.0796C225.977 48.0156 225.766 47.993 225.557 48.0132C225.199 47.998 224.845 48.0818 224.532 48.2554C224.408 48.3278 224.3 48.4256 224.216 48.5425C224.132 48.6593 224.073 48.7926 224.044 48.9335C224.018 49.0192 223.966 49.0602 223.888 49.049L223.176 48.9596C223.083 48.941 223.042 48.9075 223.06 48.8553C223.095 48.6103 223.184 48.3761 223.32 48.1694C223.456 47.9626 223.636 47.7884 223.847 47.6592C224.357 47.3355 224.953 47.1744 225.557 47.1972L225.549 47.2121ZM225.177 53.2818C225.654 53.2939 226.122 53.1572 226.518 52.8906C226.694 52.7803 226.839 52.6261 226.937 52.4432C227.036 52.2604 227.085 52.055 227.081 51.8473V50.8226C227.082 50.8155 227.082 50.8081 227.079 50.8012C227.077 50.7942 227.074 50.7879 227.068 50.7828C227.063 50.7776 227.057 50.7738 227.05 50.7717C227.043 50.7695 227.036 50.7691 227.029 50.7705H225.65C225.158 50.7512 224.673 50.8811 224.256 51.1431C224.09 51.2467 223.954 51.3921 223.862 51.5647C223.77 51.7373 223.725 51.9311 223.731 52.1267C223.721 52.294 223.752 52.4612 223.822 52.6133C223.893 52.7655 224 52.8979 224.133 52.9986C224.44 53.2088 224.806 53.3135 225.177 53.2967V53.2818ZM234.086 44.9132C234.086 44.8238 234.127 44.779 234.216 44.779H234.887C234.905 44.7772 234.923 44.7795 234.94 44.7856C234.956 44.7917 234.972 44.8016 234.984 44.8145C234.997 44.8275 235.006 44.843 235.012 44.8601C235.018 44.8772 235.019 44.8953 235.017 44.9132V53.8556C235.019 53.8734 235.018 53.8916 235.012 53.9086C235.006 53.9257 234.997 53.9413 234.984 53.9542C234.972 53.9671 234.956 53.977 234.94 53.9832C234.923 53.9893 234.905 53.9916 234.887 53.9897H234.216C234.127 53.9897 234.086 53.945 234.086 53.8556V53.2818C234.085 53.2746 234.083 53.2677 234.079 53.2617C234.075 53.2558 234.07 53.2511 234.063 53.2482C234.063 53.2482 234.037 53.2482 234.018 53.2706C233.829 53.5206 233.584 53.7234 233.303 53.863C233.005 54.0046 232.679 54.0759 232.349 54.0717C231.797 54.0905 231.254 53.9239 230.807 53.5985C230.385 53.276 230.082 52.8225 229.946 52.3093C229.806 51.7657 229.744 51.2048 229.763 50.6438C229.744 50.0953 229.797 49.5466 229.92 49.0118C230.054 48.4876 230.36 48.0233 230.788 47.6928C231.24 47.3615 231.79 47.1921 232.349 47.2121C232.676 47.2084 233 47.2784 233.296 47.4171C233.581 47.5493 233.83 47.7503 234.018 48.002C234.018 48.0207 234.052 48.0244 234.063 48.0207C234.07 48.0189 234.077 48.0145 234.081 48.0083C234.085 48.002 234.087 47.9945 234.086 47.9871V44.9132ZM233.847 52.2571C233.933 52.06 233.991 51.8518 234.018 51.6386C234.058 51.3123 234.075 50.9836 234.071 50.655C234.075 50.3226 234.058 49.9902 234.018 49.6601C233.989 49.44 233.928 49.2253 233.836 49.023C233.739 48.7372 233.557 48.4877 233.314 48.3076C233.065 48.1252 232.762 48.0309 232.454 48.0393C232.132 48.0302 231.816 48.1213 231.548 48.3001C231.299 48.4721 231.107 48.7148 230.997 48.9969C230.887 49.201 230.811 49.421 230.769 49.6489C230.711 49.9809 230.686 50.318 230.695 50.655C230.69 50.9774 230.708 51.2999 230.747 51.62C230.777 51.8352 230.839 52.0449 230.93 52.2422C231.029 52.5461 231.227 52.8083 231.492 52.9874C231.772 53.177 232.105 53.2735 232.442 53.2632C232.759 53.2754 233.069 53.178 233.322 52.9874C233.566 52.7957 233.749 52.5367 233.847 52.2422V52.2571ZM239.667 54.0829C239.086 54.0972 238.516 53.9263 238.039 53.5948C237.581 53.2687 237.248 52.7972 237.092 52.2571C236.955 51.7295 236.893 51.185 236.91 50.64C236.893 50.1 236.954 49.5603 237.092 49.0379C237.242 48.502 237.571 48.0337 238.024 47.7114C238.511 47.3776 239.092 47.2067 239.682 47.2233C240.256 47.2087 240.819 47.3799 241.288 47.7114C241.738 48.0292 242.066 48.4923 242.216 49.023C242.358 49.5497 242.421 50.0947 242.402 50.64C242.422 51.1854 242.359 51.7306 242.216 52.2571C242.072 52.7975 241.744 53.2706 241.288 53.5948C240.814 53.9274 240.246 54.0985 239.667 54.0829ZM239.667 53.2669C240.055 53.2774 240.435 53.1552 240.744 52.9204C241.044 52.6829 241.258 52.3528 241.351 51.9814C241.44 51.5451 241.479 51.1001 241.467 50.655C241.479 50.2091 241.444 49.7633 241.362 49.3248C241.27 48.9522 241.054 48.6215 240.751 48.3858C240.436 48.1501 240.05 48.028 239.656 48.0393C239.268 48.0222 238.886 48.1413 238.576 48.3761C238.267 48.6108 238.049 48.9464 237.961 49.3248C237.879 49.7633 237.844 50.2091 237.856 50.655C237.844 51.0995 237.879 51.5441 237.961 51.9814C238.044 52.3543 238.255 52.6864 238.557 52.9204C238.88 53.1587 239.274 53.2809 239.675 53.2669H239.667ZM246.97 47.2643C247.229 47.2572 247.485 47.3162 247.715 47.4357C247.748 47.4482 247.775 47.4733 247.79 47.5053C247.804 47.5374 247.806 47.574 247.794 47.6071L247.648 48.248C247.646 48.2665 247.64 48.2841 247.629 48.2993C247.618 48.3144 247.603 48.3265 247.586 48.3344C247.57 48.3423 247.551 48.3457 247.532 48.3442C247.514 48.3428 247.496 48.3366 247.481 48.3262C247.316 48.2639 247.142 48.2336 246.966 48.2368H246.795C246.584 48.2418 246.376 48.2892 246.184 48.3763C245.992 48.4633 245.82 48.5883 245.677 48.7435C245.375 49.0744 245.215 49.5104 245.23 49.9582V53.8332C245.232 53.8511 245.231 53.8692 245.225 53.8863C245.219 53.9034 245.21 53.919 245.197 53.9319C245.185 53.9448 245.169 53.9547 245.153 53.9608C245.136 53.967 245.118 53.9692 245.1 53.9674H244.429C244.34 53.9674 244.299 53.9227 244.299 53.8332V47.4506C244.299 47.3612 244.34 47.3165 244.429 47.3165H245.1C245.118 47.3146 245.136 47.3169 245.153 47.323C245.169 47.3291 245.185 47.339 245.197 47.352C245.21 47.3649 245.219 47.3804 245.225 47.3975C245.231 47.4146 245.232 47.4327 245.23 47.4506V48.2517C245.23 48.279 245.237 48.2939 245.252 48.2964C245.252 48.2964 245.275 48.2964 245.282 48.2778C245.453 47.9756 245.694 47.7197 245.986 47.5326C246.284 47.3498 246.628 47.2566 246.978 47.2643H246.97ZM254.105 49.5372C254.143 49.8424 254.161 50.1499 254.158 50.4575V50.8785C254.16 50.8962 254.158 50.9143 254.153 50.9312C254.147 50.9482 254.137 50.9636 254.125 50.9762C254.112 50.9888 254.097 50.9984 254.08 51.0041C254.063 51.0097 254.045 51.0114 254.027 51.0089H249.787C249.78 51.0076 249.772 51.008 249.765 51.0102C249.759 51.0123 249.752 51.0161 249.747 51.0213C249.742 51.0264 249.738 51.0327 249.736 51.0396C249.734 51.0466 249.733 51.0539 249.735 51.0611C249.733 51.3733 249.76 51.685 249.813 51.9926C249.897 52.3688 250.116 52.7013 250.428 52.9278C250.785 53.1666 251.209 53.2853 251.639 53.2669C251.98 53.2742 252.316 53.1879 252.611 53.0172C252.894 52.8496 253.121 52.6037 253.267 52.3093C253.319 52.2311 253.383 52.2124 253.45 52.2571L253.964 52.5589C253.98 52.5671 253.994 52.5784 254.005 52.5922C254.016 52.6059 254.024 52.6219 254.029 52.639C254.034 52.6561 254.035 52.674 254.033 52.6916C254.031 52.7092 254.025 52.7262 254.016 52.7415C253.796 53.1636 253.453 53.5091 253.032 53.7326C252.568 53.9845 252.047 54.1128 251.52 54.1052C250.965 54.117 250.42 53.9626 249.955 53.6618C249.532 53.3646 249.215 52.9404 249.049 52.4509C248.869 51.8648 248.79 51.2526 248.814 50.64C248.814 50.2674 248.814 49.9694 248.814 49.7383C248.825 49.5281 248.857 49.3195 248.911 49.1161C249.045 48.5697 249.363 48.0864 249.813 47.7487C250.285 47.3978 250.861 47.2166 251.449 47.2345C252.117 47.1919 252.776 47.4081 253.289 47.8381C253.746 48.2987 254.029 48.9029 254.09 49.5483L254.105 49.5372ZM251.464 48.0468C251.08 48.033 250.703 48.1499 250.394 48.3784C250.108 48.6038 249.91 48.9231 249.835 49.2801C249.768 49.5735 249.733 49.8733 249.731 50.1743C249.731 50.2116 249.731 50.2265 249.783 50.2265H253.185C253.192 50.2278 253.2 50.2274 253.206 50.2252C253.213 50.2231 253.22 50.2193 253.225 50.2141C253.23 50.209 253.234 50.2027 253.236 50.1957C253.238 50.1888 253.239 50.1814 253.237 50.1743C253.23 49.8922 253.204 49.6109 253.159 49.3322C253.076 48.9621 252.87 48.6311 252.574 48.3933C252.253 48.1522 251.858 48.0297 251.456 48.0468H251.464ZM258.077 54.027C257.629 54.0348 257.183 53.955 256.766 53.7922C256.424 53.661 256.121 53.4442 255.886 53.1625C255.687 52.9117 255.579 52.6001 255.581 52.2795V52.123C255.578 52.1053 255.58 52.0872 255.586 52.0703C255.591 52.0533 255.601 52.0379 255.614 52.0253C255.626 52.0127 255.642 52.0031 255.659 51.9974C255.676 51.9918 255.694 51.9901 255.711 51.9926H256.341C256.359 51.9901 256.377 51.9918 256.394 51.9974C256.411 52.0031 256.426 52.0127 256.439 52.0253C256.451 52.0379 256.461 52.0533 256.466 52.0703C256.472 52.0872 256.474 52.1053 256.471 52.123V52.2273C256.48 52.3794 256.526 52.527 256.605 52.657C256.684 52.787 256.795 52.8954 256.926 52.9725C257.257 53.1917 257.647 53.3036 258.044 53.293C258.44 53.316 258.833 53.2073 259.162 52.9837C259.291 52.8995 259.398 52.7841 259.471 52.648C259.545 52.512 259.583 52.3596 259.583 52.205C259.586 52.1048 259.569 52.005 259.532 51.912C259.494 51.819 259.438 51.7347 259.366 51.6647C259.218 51.5234 259.043 51.4121 258.852 51.3368C258.655 51.2586 258.353 51.158 257.939 51.035C257.528 50.9217 257.125 50.781 256.732 50.614C256.426 50.4809 256.154 50.281 255.935 50.029C255.716 49.762 255.602 49.424 255.614 49.0789C255.606 48.8184 255.662 48.56 255.777 48.3261C255.892 48.0923 256.063 47.8902 256.274 47.7375C256.78 47.3839 257.39 47.2083 258.006 47.2382C258.444 47.2298 258.879 47.3096 259.284 47.4729C259.627 47.6071 259.926 47.8326 260.149 48.125C260.347 48.3921 260.453 48.7164 260.451 49.049V49.09C260.453 49.1077 260.452 49.1258 260.446 49.1427C260.44 49.1597 260.431 49.1751 260.418 49.1877C260.405 49.2004 260.39 49.2099 260.373 49.2156C260.356 49.2213 260.338 49.2229 260.32 49.2204H259.702C259.684 49.2238 259.666 49.2227 259.648 49.2173C259.631 49.212 259.615 49.2024 259.602 49.1896C259.589 49.1768 259.58 49.161 259.574 49.1436C259.569 49.1263 259.568 49.1079 259.571 49.09V49.049C259.567 48.8991 259.526 48.7526 259.451 48.6226C259.376 48.4926 259.27 48.3831 259.143 48.3039C258.8 48.0859 258.397 47.9804 257.992 48.002C257.614 47.9846 257.24 48.0778 256.915 48.2703C256.788 48.348 256.683 48.4578 256.612 48.5886C256.541 48.7194 256.505 48.8666 256.509 49.0155C256.504 49.1547 256.539 49.2924 256.609 49.4129C256.678 49.5334 256.781 49.632 256.904 49.6974C257.289 49.9063 257.7 50.0653 258.126 50.1706C258.544 50.2893 258.956 50.4298 259.359 50.5916C259.67 50.7179 259.949 50.9127 260.175 51.1617C260.411 51.4324 260.533 51.7831 260.518 52.1416C260.525 52.4069 260.468 52.6699 260.351 52.9082C260.234 53.1464 260.061 53.3526 259.847 53.5091C259.331 53.8738 258.708 54.0561 258.077 54.027ZM267.348 54.068C266.768 54.0839 266.199 53.9099 265.727 53.5724C265.277 53.2458 264.95 52.7773 264.799 52.2422C264.669 51.7096 264.611 51.1619 264.628 50.614C264.619 50.0737 264.676 49.5343 264.799 49.0081C264.949 48.4807 265.274 48.0198 265.719 47.7002C266.195 47.366 266.766 47.1935 267.348 47.2084C267.94 47.1945 268.522 47.3651 269.013 47.6965C269.448 47.9805 269.771 48.4074 269.926 48.9037C269.961 49.0333 269.988 49.1653 270.004 49.2987V49.3248C270.004 49.3844 269.963 49.4254 269.885 49.444L269.229 49.5334H269.203C269.14 49.5334 269.102 49.4962 269.084 49.4179L269.043 49.2204C268.957 48.8778 268.752 48.5767 268.465 48.3709C268.142 48.1341 267.748 48.0122 267.348 48.0244C266.953 48.011 266.567 48.1334 266.252 48.3709C265.959 48.6037 265.757 48.9321 265.682 49.2987C265.591 49.7348 265.551 50.1799 265.563 50.6251C265.549 51.0754 265.589 51.5257 265.682 51.9665C265.754 52.3374 265.956 52.6703 266.252 52.9054C266.567 53.143 266.953 53.2653 267.348 53.252C267.746 53.2628 268.138 53.1452 268.465 52.9166C268.761 52.7134 268.969 52.4059 269.047 52.0559V52.0038V51.9516C269.047 51.8659 269.106 51.8286 269.203 51.8473L269.848 51.9516C269.933 51.9702 269.974 52.0187 269.967 52.0969L269.915 52.3615C269.778 52.8723 269.453 53.3127 269.006 53.5948C268.51 53.9177 267.928 54.0827 267.336 54.068H267.348ZM274.166 54.068C273.585 54.0823 273.015 53.9114 272.538 53.5799C272.08 53.2538 271.747 52.7823 271.591 52.2422C271.454 51.7146 271.392 51.1701 271.409 50.6251C271.392 50.0851 271.453 49.5454 271.591 49.023C271.74 48.486 272.071 48.0173 272.527 47.6965C273.012 47.3623 273.592 47.1913 274.181 47.2084C274.756 47.1946 275.32 47.3657 275.791 47.6965C276.239 48.0165 276.566 48.4787 276.718 49.0081C276.857 49.5354 276.919 50.0801 276.901 50.6251C276.92 51.1702 276.858 51.7151 276.718 52.2422C276.572 52.7813 276.244 53.2535 275.791 53.5799C275.315 53.9123 274.746 54.0834 274.166 54.068ZM274.166 53.252C274.552 53.2664 274.932 53.1461 275.239 52.9115C275.546 52.677 275.762 52.3429 275.85 51.9665C275.941 51.5304 275.981 51.0853 275.969 50.64C275.981 50.1941 275.945 49.7482 275.861 49.3099C275.77 48.9377 275.556 48.607 275.254 48.3709C274.932 48.1317 274.537 48.0095 274.136 48.0244C273.748 48.0073 273.366 48.1264 273.057 48.3611C272.747 48.5959 272.529 48.9315 272.441 49.3099C272.359 49.7483 272.324 50.1942 272.337 50.64C272.325 51.0846 272.36 51.5292 272.441 51.9665C272.526 52.3397 272.738 52.6717 273.041 52.9054C273.363 53.1446 273.757 53.2669 274.159 53.252H274.166ZM281.551 47.2233C281.857 47.2076 282.163 47.2543 282.451 47.3607C282.739 47.467 283.002 47.6307 283.224 47.8418C283.436 48.0597 283.602 48.3191 283.709 48.6037C283.817 48.8884 283.865 49.1922 283.85 49.4962V53.8295C283.852 53.8473 283.851 53.8655 283.845 53.8826C283.839 53.8997 283.83 53.9152 283.817 53.9281C283.805 53.941 283.789 53.9509 283.772 53.9571C283.756 53.9632 283.737 53.9655 283.72 53.9636H283.049C283.031 53.9655 283.013 53.9632 282.996 53.9571C282.979 53.9509 282.964 53.941 282.951 53.9281C282.939 53.9152 282.929 53.8997 282.924 53.8826C282.918 53.8655 282.916 53.8473 282.918 53.8295V49.6825C282.926 49.466 282.891 49.2502 282.815 49.0474C282.739 48.8447 282.624 48.659 282.475 48.5013C282.331 48.3505 282.158 48.2314 281.965 48.1518C281.773 48.0722 281.566 48.0339 281.357 48.0393C281.142 48.0274 280.926 48.0612 280.725 48.1382C280.523 48.2153 280.34 48.334 280.188 48.4866C280.035 48.6392 279.916 48.8222 279.839 49.0238C279.762 49.2254 279.728 49.4409 279.74 49.6564V53.8332C279.743 53.8511 279.741 53.8692 279.735 53.8863C279.729 53.9034 279.72 53.919 279.707 53.9319C279.695 53.9448 279.68 53.9547 279.663 53.9608C279.646 53.967 279.628 53.9692 279.61 53.9674H278.939C278.85 53.9674 278.809 53.9227 278.809 53.8332V47.4506C278.809 47.3612 278.85 47.3165 278.939 47.3165H279.61C279.628 47.3146 279.646 47.3169 279.663 47.323C279.68 47.3291 279.695 47.339 279.707 47.352C279.72 47.3649 279.729 47.3804 279.735 47.3975C279.741 47.4146 279.743 47.4327 279.74 47.4506V48.0132C279.737 48.0196 279.736 48.0266 279.736 48.0337C279.736 48.0408 279.737 48.0478 279.74 48.0542C279.74 48.0542 279.766 48.0542 279.774 48.0542C279.978 47.7811 280.247 47.5636 280.557 47.4216C280.867 47.2797 281.207 47.2179 281.547 47.2419L281.551 47.2233ZM288.5 45.5801C288.323 45.5589 288.143 45.5765 287.973 45.6319C287.803 45.6872 287.647 45.7789 287.516 45.9006C287.31 46.2281 287.217 46.6143 287.252 46.9998V47.2606C287.252 47.2978 287.27 47.3127 287.308 47.3127H288.798C288.816 47.3109 288.834 47.3131 288.851 47.3193C288.868 47.3254 288.883 47.3353 288.896 47.3482C288.908 47.3611 288.918 47.3767 288.923 47.3938C288.929 47.4109 288.931 47.429 288.928 47.4469V48.0356C288.931 48.0534 288.929 48.0716 288.923 48.0886C288.918 48.1057 288.908 48.1213 288.896 48.1342C288.883 48.1471 288.868 48.157 288.851 48.1632C288.834 48.1693 288.816 48.1715 288.798 48.1697H287.308C287.27 48.1697 287.252 48.1697 287.252 48.2219V53.8295C287.252 53.9189 287.211 53.9636 287.121 53.9636H286.466C286.376 53.9636 286.335 53.9189 286.335 53.8295V48.2256C286.337 48.2185 286.336 48.2111 286.334 48.2042C286.332 48.1972 286.328 48.1909 286.323 48.1858C286.318 48.1806 286.311 48.1768 286.304 48.1747C286.298 48.1725 286.29 48.1721 286.283 48.1734H285.4C285.382 48.1753 285.364 48.173 285.347 48.1669C285.33 48.1607 285.315 48.1508 285.302 48.1379C285.29 48.125 285.28 48.1095 285.275 48.0924C285.269 48.0753 285.267 48.0571 285.27 48.0393V47.4506C285.267 47.4327 285.269 47.4146 285.275 47.3975C285.28 47.3804 285.29 47.3649 285.302 47.352C285.315 47.339 285.33 47.3291 285.347 47.323C285.364 47.3169 285.382 47.3146 285.4 47.3165H286.283C286.29 47.3178 286.298 47.3174 286.304 47.3152C286.311 47.3131 286.318 47.3093 286.323 47.3041C286.328 47.299 286.332 47.2927 286.334 47.2857C286.336 47.2788 286.337 47.2714 286.335 47.2643V46.9476C286.318 46.5128 286.38 46.0785 286.518 45.6658C286.632 45.3627 286.861 45.1165 287.155 44.9803C287.557 44.8191 287.989 44.7454 288.422 44.7642H288.794C288.812 44.7623 288.83 44.7645 288.847 44.7707C288.864 44.7768 288.88 44.7867 288.892 44.7996C288.905 44.8125 288.914 44.8281 288.92 44.8452C288.925 44.8623 288.927 44.8804 288.925 44.8983V45.4572C288.927 45.4749 288.926 45.4929 288.92 45.5099C288.914 45.5268 288.905 45.5422 288.892 45.5549C288.879 45.5675 288.864 45.5771 288.847 45.5827C288.83 45.5884 288.812 45.5901 288.794 45.5876H288.519L288.5 45.5801ZM291.179 46.1055C290.983 46.1076 290.795 46.0327 290.654 45.8968C290.585 45.8282 290.531 45.7461 290.495 45.6558C290.459 45.5654 290.442 45.4687 290.445 45.3715C290.44 45.2724 290.457 45.1736 290.493 45.0812C290.529 44.9888 290.583 44.9049 290.654 44.8349C290.796 44.7018 290.984 44.6296 291.179 44.6337C291.278 44.6284 291.378 44.644 291.47 44.6795C291.563 44.715 291.648 44.7698 291.718 44.8401C291.788 44.9104 291.843 44.9947 291.878 45.0875C291.914 45.1804 291.93 45.2797 291.924 45.3789C291.928 45.4778 291.911 45.5763 291.875 45.6684C291.839 45.7605 291.784 45.8441 291.714 45.914C291.644 45.9839 291.561 46.0387 291.468 46.0749C291.376 46.111 291.278 46.1278 291.179 46.1241V46.1055ZM290.806 53.9487C290.789 53.9512 290.771 53.9495 290.754 53.9439C290.737 53.9382 290.721 53.9287 290.709 53.916C290.696 53.9034 290.687 53.888 290.681 53.871C290.675 53.8541 290.674 53.836 290.676 53.8183V47.4357C290.674 47.418 290.675 47.3999 290.681 47.383C290.687 47.366 290.696 47.3506 290.709 47.338C290.721 47.3253 290.737 47.3158 290.754 47.3101C290.771 47.3045 290.789 47.3028 290.806 47.3053H291.477C291.495 47.3028 291.513 47.3045 291.53 47.3101C291.547 47.3158 291.562 47.3253 291.575 47.338C291.587 47.3506 291.597 47.366 291.603 47.383C291.608 47.3999 291.61 47.418 291.607 47.4357V53.822C291.61 53.8398 291.608 53.8578 291.603 53.8747C291.597 53.8917 291.587 53.9071 291.575 53.9197C291.562 53.9324 291.547 53.9419 291.53 53.9476C291.513 53.9533 291.495 53.9549 291.477 53.9524H290.806V53.9487ZM296.194 47.2084C296.858 47.1651 297.513 47.3815 298.02 47.812C298.235 48.0189 298.403 48.269 298.515 48.5458C298.626 48.8226 298.677 49.1199 298.665 49.4179V53.8295C298.667 53.8473 298.665 53.8655 298.659 53.8826C298.654 53.8997 298.644 53.9152 298.632 53.9281C298.619 53.941 298.604 53.9509 298.587 53.9571C298.57 53.9632 298.552 53.9655 298.534 53.9636H297.863C297.774 53.9636 297.733 53.9189 297.733 53.8295V53.2818C297.736 53.2753 297.737 53.2683 297.737 53.2613C297.737 53.2542 297.736 53.2473 297.733 53.2408C297.733 53.2408 297.703 53.2408 297.685 53.2408C297.456 53.5094 297.162 53.7147 296.831 53.8369C296.458 53.9783 296.061 54.0478 295.661 54.0419C295.102 54.0617 294.551 53.8953 294.096 53.5687C293.882 53.3965 293.713 53.1751 293.604 52.9233C293.494 52.6715 293.447 52.3969 293.467 52.123C293.453 51.8248 293.511 51.5276 293.636 51.2566C293.762 50.9855 293.95 50.7485 294.186 50.5655C294.764 50.1537 295.467 49.9525 296.176 49.9954H297.699C297.706 49.996 297.714 49.995 297.72 49.9926C297.727 49.9902 297.733 49.9864 297.738 49.9814C297.743 49.9765 297.746 49.9705 297.749 49.9639C297.751 49.9573 297.752 49.9503 297.752 49.9433V49.444C297.763 49.2518 297.735 49.0592 297.671 48.8776C297.607 48.696 297.508 48.5288 297.379 48.3858C297.221 48.2479 297.036 48.1437 296.836 48.0796C296.636 48.0156 296.425 47.993 296.217 48.0132C295.859 47.9984 295.505 48.0822 295.192 48.2554C295.068 48.328 294.961 48.4259 294.877 48.5428C294.794 48.6596 294.736 48.7928 294.708 48.9335C294.705 48.9517 294.698 48.9692 294.689 48.985C294.679 49.0007 294.667 49.0143 294.652 49.0251C294.637 49.0359 294.62 49.0435 294.602 49.0476C294.584 49.0518 294.565 49.0522 294.547 49.049L293.839 48.9596C293.742 48.941 293.701 48.9075 293.72 48.8553C293.757 48.6187 293.844 48.3927 293.975 48.1922C294.106 47.9918 294.278 47.8215 294.48 47.6928C294.989 47.3697 295.584 47.2087 296.187 47.2308L296.194 47.2084ZM295.822 53.2669C296.298 53.279 296.767 53.1423 297.163 52.8756C297.339 52.7655 297.484 52.6115 297.584 52.4287C297.683 52.2458 297.733 52.0404 297.729 51.8324V50.8077C297.73 50.8007 297.729 50.7937 297.726 50.7871C297.724 50.7805 297.72 50.7745 297.715 50.7696C297.71 50.7646 297.704 50.7608 297.698 50.7584C297.691 50.7559 297.684 50.755 297.677 50.7556H296.295C295.805 50.7363 295.32 50.8662 294.905 51.1282C294.738 51.2313 294.602 51.3765 294.509 51.5492C294.416 51.7218 294.37 51.9158 294.376 52.1118C294.366 52.2791 294.397 52.4463 294.467 52.5984C294.537 52.7506 294.644 52.883 294.778 52.9837C295.085 53.1934 295.451 53.298 295.822 53.2818V53.2669ZM305.718 49.0081C305.837 49.5436 305.889 50.0917 305.874 50.64C305.893 51.2013 305.83 51.7622 305.688 52.3056C305.545 52.8165 305.242 53.2682 304.824 53.5948C304.379 53.9212 303.836 54.0879 303.285 54.068C302.954 54.0717 302.626 54.0004 302.327 53.8593C302.04 53.7198 301.791 53.5111 301.604 53.252C301.6 53.2448 301.594 53.2391 301.587 53.2358C301.58 53.2324 301.571 53.2315 301.563 53.2333C301.556 53.2351 301.549 53.2393 301.544 53.2454C301.54 53.2516 301.537 53.2591 301.537 53.2669V53.8295C301.54 53.8473 301.538 53.8655 301.532 53.8826C301.527 53.8997 301.517 53.9152 301.505 53.9281C301.492 53.941 301.477 53.9509 301.46 53.9571C301.443 53.9632 301.425 53.9655 301.407 53.9636H300.736C300.718 53.9655 300.7 53.9632 300.683 53.9571C300.666 53.9509 300.651 53.941 300.638 53.9281C300.626 53.9152 300.617 53.8997 300.611 53.8826C300.605 53.8655 300.603 53.8473 300.606 53.8295V44.8871C300.603 44.8693 300.605 44.8511 300.611 44.834C300.617 44.8169 300.626 44.8014 300.638 44.7885C300.651 44.7756 300.666 44.7657 300.683 44.7595C300.7 44.7534 300.718 44.7511 300.736 44.753H301.407C301.425 44.7511 301.443 44.7534 301.46 44.7595C301.477 44.7657 301.492 44.7756 301.505 44.7885C301.517 44.8014 301.527 44.8169 301.532 44.834C301.538 44.8511 301.54 44.8693 301.537 44.8871V47.9871C301.537 48.0058 301.537 48.0132 301.537 48.0169C301.537 48.0207 301.567 48.0169 301.586 47.9983C301.775 47.7465 302.024 47.5445 302.309 47.4096C302.607 47.2656 302.935 47.1929 303.266 47.1972C303.827 47.1779 304.378 47.3471 304.831 47.6779C305.258 48.0094 305.564 48.4733 305.699 48.9969L305.718 49.0081ZM304.704 52.2273C304.797 52.0306 304.859 51.8207 304.887 51.6051C304.928 51.2851 304.946 50.9626 304.939 50.64C304.947 50.3032 304.923 49.9664 304.868 49.634C304.826 49.406 304.748 49.186 304.637 48.982C304.529 48.6991 304.336 48.456 304.086 48.2852C303.818 48.1064 303.502 48.0153 303.18 48.0244C302.872 48.0171 302.57 48.1113 302.32 48.2927C302.078 48.4721 301.897 48.722 301.802 49.0081C301.708 49.2092 301.643 49.4224 301.608 49.6415C301.565 49.9725 301.546 50.3063 301.552 50.64C301.546 50.9664 301.565 51.2927 301.608 51.6163C301.644 51.8309 301.704 52.0408 301.787 52.2422C301.888 52.5352 302.07 52.7936 302.312 52.9874C302.566 53.178 302.878 53.2754 303.195 53.2632C303.533 53.2725 303.865 53.1761 304.145 52.9874C304.41 52.8092 304.607 52.5465 304.704 52.2422V52.2273ZM307.909 53.9636C307.891 53.9655 307.873 53.9632 307.856 53.9571C307.839 53.9509 307.824 53.941 307.811 53.9281C307.798 53.9152 307.789 53.8997 307.783 53.8826C307.778 53.8655 307.776 53.8473 307.778 53.8295V44.8871C307.776 44.8693 307.778 44.8511 307.783 44.834C307.789 44.8169 307.798 44.8014 307.811 44.7885C307.824 44.7756 307.839 44.7657 307.856 44.7595C307.873 44.7534 307.891 44.7511 307.909 44.753H308.579C308.669 44.753 308.71 44.7977 308.71 44.8871V53.8295C308.71 53.9189 308.669 53.9636 308.579 53.9636H307.909ZM315.897 49.5222C315.935 49.8275 315.952 50.135 315.949 50.4426V50.8636C315.951 50.8815 315.949 50.8996 315.943 50.9165C315.937 50.9334 315.927 50.9487 315.914 50.9613C315.901 50.9738 315.885 50.9833 315.868 50.989C315.851 50.9946 315.833 50.9964 315.815 50.994H311.571C311.564 50.9934 311.557 50.9944 311.551 50.9968C311.544 50.9993 311.538 51.0031 311.533 51.008C311.528 51.013 311.524 51.019 311.522 51.0256C311.52 51.0322 311.519 51.0392 311.519 51.0462C311.52 51.3584 311.548 51.67 311.601 51.9777C311.684 52.3545 311.903 52.6876 312.216 52.9129C312.573 53.1517 312.997 53.2704 313.427 53.252C313.768 53.2593 314.104 53.173 314.399 53.0023C314.682 52.8347 314.91 52.5888 315.055 52.2944C315.107 52.2161 315.167 52.1975 315.238 52.2422L315.752 52.544C315.768 52.5522 315.782 52.5635 315.793 52.5773C315.804 52.591 315.813 52.607 315.817 52.6241C315.822 52.6412 315.824 52.6591 315.821 52.6767C315.819 52.6943 315.813 52.7113 315.804 52.7266C315.584 53.1498 315.239 53.4956 314.817 53.7177C314.36 53.9668 313.847 54.0951 313.326 54.0903C312.772 54.1021 312.227 53.9477 311.761 53.6469C311.337 53.3518 311.019 52.9269 310.856 52.436C310.676 51.85 310.597 51.2377 310.621 50.6251C310.621 50.2525 310.621 49.9545 310.621 49.7235C310.63 49.513 310.662 49.3042 310.718 49.1012C310.851 48.5548 311.17 48.0715 311.62 47.7338C312.092 47.3829 312.668 47.2017 313.256 47.2196C313.923 47.1753 314.581 47.3917 315.092 47.8232C315.55 48.2834 315.834 48.8876 315.897 49.5334V49.5222ZM313.256 48.0318C312.872 48.0181 312.495 48.135 312.186 48.3635C311.9 48.5889 311.702 48.9082 311.627 49.2652C311.559 49.5584 311.522 49.8582 311.519 50.1594C311.518 50.1665 311.518 50.1739 311.52 50.1808C311.523 50.1878 311.526 50.1941 311.532 50.1992C311.537 50.2044 311.543 50.2082 311.55 50.2103C311.557 50.2125 311.564 50.2129 311.571 50.2116H314.973C314.98 50.2129 314.988 50.2125 314.995 50.2103C315.002 50.2082 315.008 50.2044 315.013 50.1992C315.018 50.1941 315.022 50.1878 315.024 50.1808C315.026 50.1739 315.027 50.1665 315.025 50.1594C315.018 49.8773 314.992 49.596 314.947 49.3173C314.864 48.9472 314.658 48.6162 314.362 48.3784C314.041 48.1373 313.646 48.0148 313.244 48.0318H313.256ZM319.869 54.027C319.423 54.0349 318.98 53.9551 318.565 53.7922C318.222 53.6631 317.919 53.4459 317.686 53.1625C317.483 52.9129 317.374 52.6008 317.376 52.2795V52.123C317.374 52.1053 317.376 52.0872 317.381 52.0703C317.387 52.0533 317.397 52.0379 317.409 52.0253C317.422 52.0127 317.437 52.0031 317.454 51.9974C317.471 51.9918 317.489 51.9901 317.507 51.9926H318.137C318.154 51.9901 318.172 51.9918 318.189 51.9974C318.206 52.0031 318.222 52.0127 318.234 52.0253C318.247 52.0379 318.256 52.0533 318.262 52.0703C318.268 52.0872 318.269 52.1053 318.267 52.123V52.2273C318.275 52.3794 318.321 52.527 318.401 52.657C318.48 52.787 318.59 52.8954 318.722 52.9725C319.052 53.1917 319.443 53.3036 319.839 53.293C320.236 53.316 320.629 53.2073 320.957 52.9837C321.086 52.8988 321.192 52.7832 321.266 52.6473C321.339 52.5114 321.378 52.3594 321.378 52.205C321.382 52.1048 321.364 52.005 321.327 51.912C321.29 51.819 321.234 51.7347 321.162 51.6647C321.014 51.5242 320.841 51.413 320.652 51.3368C320.45 51.2586 320.149 51.158 319.735 51.035C319.324 50.9223 318.92 50.7816 318.528 50.614C318.222 50.4815 317.951 50.2814 317.734 50.029C317.512 49.7632 317.397 49.4247 317.41 49.0789C317.402 48.8188 317.457 48.5607 317.572 48.3269C317.686 48.0931 317.856 47.8908 318.066 47.7375C318.574 47.3844 319.184 47.2089 319.802 47.2382C320.241 47.2302 320.677 47.31 321.084 47.4729C321.425 47.6081 321.722 47.8336 321.945 48.125C322.143 48.3921 322.249 48.7164 322.246 49.049V49.09C322.246 49.1795 322.202 49.2204 322.112 49.2204H321.497C321.408 49.2204 321.363 49.1795 321.363 49.09V49.049C321.36 48.8993 321.319 48.7528 321.245 48.6227C321.171 48.4926 321.066 48.383 320.939 48.3039C320.596 48.0859 320.193 47.9804 319.787 48.002C319.41 47.9841 319.035 48.0774 318.71 48.2703C318.583 48.348 318.479 48.4578 318.408 48.5886C318.336 48.7194 318.301 48.8666 318.304 49.0155C318.3 49.1547 318.334 49.2924 318.404 49.4129C318.474 49.5334 318.576 49.632 318.699 49.6974C319.085 49.9069 319.495 50.0659 319.921 50.1706C320.339 50.2899 320.751 50.4304 321.155 50.5916C321.466 50.7179 321.745 50.9127 321.971 51.1617C322.205 51.4329 322.326 51.7836 322.31 52.1416C322.317 52.4069 322.26 52.6699 322.143 52.9082C322.026 53.1464 321.853 53.3526 321.639 53.5091C321.122 53.873 320.497 54.0528 319.865 54.0195L319.869 54.027Z" fill="#F95936"/>
<path d="M91.3015 38.1356V2.26541C91.5474 2.26541 92.1138 2.26541 92.9968 2.23187C93.8799 2.19834 94.8598 2.21324 95.9776 2.21324C97.0954 2.21324 98.1685 2.21324 99.264 2.17971C100.359 2.14618 101.261 2.15735 101.965 2.15735C106.278 2.15735 109.457 3.11866 111.504 5.04127C113.551 6.96389 114.575 9.60562 114.578 12.9665C114.595 14.4986 114.307 16.0188 113.728 17.4377C113.172 18.7904 112.313 19.9975 111.217 20.9662C110.004 22.0098 108.59 22.7935 107.062 23.2688C105.202 23.852 103.259 24.1313 101.31 24.096H97.5835V38.1356H91.3015ZM97.6059 6.70679V19.3752H101.704C103.94 19.3752 105.53 18.7927 106.474 17.6277C107.418 16.4627 107.895 14.9785 107.905 13.1751C107.906 12.3697 107.799 11.5676 107.588 10.7905C107.378 10.0214 107.005 9.30612 106.496 8.69275C105.938 8.04082 105.233 7.53014 104.439 7.20235C103.399 6.80343 102.289 6.61596 101.175 6.6509H99.141C98.556 6.6509 98.0493 6.66953 97.6245 6.70307L97.6059 6.70679ZM135.067 24.6698V11.7406H141.107V25.3591C141.08 27.1409 141.212 28.9216 141.502 30.6798C141.703 31.8599 141.997 33.0223 142.381 34.1562C142.68 35.0437 143.108 35.8823 143.652 36.6452L138.935 38.5529C138.475 38.116 138.082 37.6138 137.768 37.0625C137.441 36.4685 137.147 35.8565 136.889 35.2293C136.571 34.4067 136.367 33.544 136.285 32.6658C135.332 34.7499 133.99 36.2328 132.261 37.1146C130.591 37.9829 128.737 38.4377 126.855 38.4411C124.063 38.4411 122.076 37.6276 120.893 36.0006C119.711 34.3736 119.121 32.1491 119.124 29.3273V11.7481H125.163V29.2342C125.163 30.7246 125.428 31.8908 125.957 32.7329C126.486 33.575 127.388 33.9985 128.662 34.0034C129.474 33.9923 130.269 33.7619 130.961 33.3365C131.767 32.8595 132.468 32.226 133.025 31.4735C133.689 30.5864 134.194 29.5903 134.516 28.53C134.906 27.2887 135.096 25.9932 135.078 24.6922L135.067 24.6698ZM160.288 17.2514C159.624 17.2595 158.971 17.4228 158.381 17.7283C157.741 18.0517 157.166 18.49 156.685 19.0212C156.169 19.6117 155.757 20.2858 155.467 21.0146C155.139 21.8445 154.977 22.7306 154.99 23.6228V38.1542H148.95V24.7853C148.978 22.9986 148.836 21.2132 148.525 19.4534C148.309 18.2784 148.009 17.1204 147.627 15.9882C147.311 15.1074 146.883 14.2709 146.353 13.4993L151.122 11.5916C151.494 12.0526 151.836 12.5367 152.147 13.041C152.465 13.6058 152.749 14.1894 152.997 14.7885C153.307 15.5576 153.538 16.3567 153.686 17.1731C154.389 15.1238 155.412 13.6471 156.756 12.7429C158.104 11.8443 159.693 11.3753 161.313 11.3978C162.082 11.3909 162.849 11.4874 163.593 11.6847C164.301 11.8822 164.637 11.9791 164.599 11.9791L162.904 17.8624C162.711 17.7408 162.504 17.6409 162.289 17.5644C161.653 17.3416 160.98 17.2441 160.307 17.2774L160.288 17.2514ZM179.831 17.2514C179.167 17.2589 178.513 17.4223 177.923 17.7283C177.283 18.0507 176.708 18.4891 176.228 19.0212C175.115 20.2889 174.51 21.9244 174.533 23.6116V38.143H168.493V24.7853C168.521 22.9986 168.379 21.2132 168.068 19.4534C167.851 18.2783 167.55 17.1202 167.167 15.9882C166.853 15.1069 166.426 14.2702 165.896 13.4993L170.665 11.5916C171.03 12.0471 171.366 12.525 171.671 13.0224C171.99 13.5865 172.272 14.1702 172.517 14.7699C172.83 15.5384 173.061 16.3377 173.206 17.1545C173.914 15.1052 174.939 13.6284 176.28 12.7243C177.628 11.8252 179.217 11.3562 180.837 11.3792C181.607 11.3725 182.374 11.469 183.117 11.6661C183.822 11.8636 184.157 11.9604 184.124 11.9604L182.428 17.8438C182.237 17.7244 182.035 17.6246 181.825 17.5457C181.184 17.3243 180.508 17.2269 179.831 17.2588V17.2514ZM198.163 1.78103C199.355 1.77601 200.545 1.88959 201.714 2.12009C202.761 2.33185 203.797 2.59674 204.818 2.91373C205.632 3.17139 206.429 3.48257 207.202 3.84523C207.669 4.05995 208.118 4.30903 208.547 4.59043L205.939 9.14732L205.25 8.77472C204.792 8.52881 204.188 8.24563 203.447 7.92519C202.654 7.58999 201.84 7.30744 201.01 7.07939C200.184 6.84035 199.329 6.71499 198.469 6.70679C197.301 6.67681 196.151 6.99034 195.16 7.60848C194.221 8.20837 193.751 9.14732 193.751 10.4179C193.725 11.1371 193.848 11.854 194.112 12.5234C194.376 13.1929 194.776 13.8004 195.287 14.3078C196.312 15.3163 197.92 16.2453 200.108 17.0949C201.421 17.6067 202.7 18.2003 203.938 18.8722C204.983 19.4443 205.936 20.1689 206.766 21.0221C207.542 21.8299 208.148 22.7853 208.547 23.8315C208.977 25.0564 209.182 26.3491 209.151 27.6469C209.148 29.0071 208.889 30.3545 208.387 31.6188C207.877 32.9194 207.102 34.0995 206.111 35.084C205.041 36.1329 203.775 36.9609 202.385 37.5208C200.75 38.1717 199.002 38.4896 197.243 38.456C195.924 38.4623 194.609 38.3198 193.323 38.0312C192.185 37.7764 191.064 37.4466 189.97 37.0439C189.074 36.7353 188.202 36.3617 187.361 35.9261C186.631 35.5386 186.09 35.238 185.737 35.0244L187.972 30.1508L188.926 30.6798C189.56 31.0338 190.338 31.425 191.255 31.8461C192.172 32.2671 193.148 32.6584 194.169 33.0123C195.007 33.3257 195.89 33.5019 196.784 33.534C198.66 33.534 200.056 33.0744 200.972 32.1553C201.889 31.2363 202.349 29.9471 202.351 28.2878C202.364 27.5879 202.237 26.8925 201.978 26.2422C201.735 25.6762 201.374 25.1683 200.92 24.7518C200.417 24.2998 199.857 23.9153 199.255 23.6079C198.599 23.2775 197.865 22.9534 197.053 22.6354C195.463 21.9623 194.042 21.2903 192.79 20.6197C191.615 20.0072 190.533 19.2292 189.578 18.3095C188.709 17.4657 188.024 16.4508 187.566 15.3288C187.078 14.0552 186.843 12.6982 186.877 11.3345C186.87 10.0557 187.161 8.79281 187.727 7.64574C188.295 6.49409 189.086 5.46691 190.055 4.62396C191.105 3.72843 192.308 3.02921 193.606 2.55976C195.067 2.03341 196.61 1.77222 198.163 1.78848V1.78103ZM219.994 38.3405C218.123 38.3405 216.692 37.7828 215.701 36.6675C214.71 35.5522 214.213 34.114 214.211 32.3528V11.7481H220.258V31.8312C220.258 32.6434 220.381 33.1912 220.631 33.4743C220.774 33.6237 220.949 33.7392 221.142 33.8127C221.335 33.8862 221.542 33.9157 221.749 33.8991H222.196C222.349 33.9 222.502 33.8812 222.65 33.8432C222.811 33.8425 222.971 33.8251 223.127 33.7911L223.764 37.6065C223.463 37.7684 223.142 37.8935 222.811 37.9791C222.419 38.1006 222.017 38.1891 221.611 38.2436C221.077 38.3178 220.539 38.3527 220.001 38.348L219.994 38.3405ZM217.352 0C218.47 0 219.349 0.335342 219.96 1.00975C220.583 1.73169 220.906 2.66518 220.862 3.61794C220.894 4.58719 220.56 5.53307 219.927 6.26713C219.312 6.97507 218.406 7.32903 217.203 7.32903C216.719 7.35455 216.235 7.27483 215.785 7.09537C215.335 6.9159 214.928 6.64096 214.595 6.28948C213.979 5.60007 213.65 4.70191 213.674 3.77816C213.635 2.79463 213.963 1.83162 214.595 1.07681C215.191 0.358937 216.11 0 217.352 0ZM225.087 16.0553V11.7481H229.856L230.918 5.55173L235.896 4.43393V11.7443H242.417L241.672 16.0367H235.896V31.7231C235.896 32.6397 236.146 33.2135 236.641 33.493C237.146 33.7636 237.712 33.9021 238.285 33.8954C238.783 33.8951 239.281 33.859 239.775 33.7873C240.222 33.7258 240.665 33.6375 241.101 33.5228C241.56 33.4185 242.003 33.2918 242.428 33.1502L243.434 37.1258L242.957 37.286C242.499 37.4708 242.026 37.619 241.545 37.7294C240.829 37.9139 240.104 38.0595 239.373 38.1654C238.47 38.2899 237.56 38.3497 236.649 38.3442C235.729 38.3529 234.811 38.2466 233.918 38.0275C233.139 37.8389 232.409 37.4885 231.775 36.9991C231.167 36.5081 230.685 35.8799 230.367 35.166C230.01 34.2919 229.839 33.3526 229.868 32.4087V16.0404L225.087 16.0553ZM244.205 16.0553V11.7481H248.974L250.033 5.55173L255.014 4.43393V11.7443H261.531L260.786 16.0367H255.011V31.7231C255.011 32.6397 255.26 33.2135 255.756 33.493C256.261 33.7636 256.826 33.9021 257.399 33.8954C257.898 33.8951 258.396 33.859 258.889 33.7873C259.331 33.7289 259.769 33.6443 260.201 33.534C260.648 33.432 261.089 33.3076 261.524 33.1614L262.533 37.137L262.056 37.2972C261.602 37.4811 261.133 37.6294 260.655 37.7406C259.939 37.9237 259.214 38.0692 258.483 38.1765C257.577 38.3006 256.663 38.3604 255.748 38.3554C254.831 38.3644 253.916 38.258 253.025 38.0387C252.244 37.851 251.511 37.5005 250.875 37.0103C250.268 36.5206 249.789 35.8917 249.477 35.1771C249.113 34.305 248.938 33.3649 248.967 32.4199V16.0404L244.205 16.0553ZM264.657 25.5939C264.619 23.4682 264.953 21.3522 265.645 19.3416C266.222 17.6595 267.141 16.1154 268.346 14.8071C269.475 13.5998 270.859 12.6581 272.396 12.0499C274 11.4262 275.709 11.1139 277.43 11.1295C278.805 11.0979 280.176 11.2943 281.488 11.7108C282.498 12.0414 283.427 12.5838 284.211 13.3018C284.912 13.9644 285.449 14.7808 285.78 15.6864C286.118 16.6433 286.286 17.6523 286.275 18.6672C286.273 19.9515 285.906 21.2087 285.217 22.2926C284.441 23.5124 283.402 24.5435 282.177 25.3107C280.694 26.2476 279.073 26.9455 277.374 27.3786C275.316 27.918 273.197 28.1959 271.07 28.2058C271.169 28.9861 271.34 29.7556 271.58 30.5047C271.787 31.2005 272.129 31.8487 272.586 32.4124C273.045 32.9796 273.634 33.4271 274.304 33.7165C275.144 34.0595 276.046 34.222 276.953 34.1935C277.789 34.1865 278.623 34.0979 279.442 33.9289C280.266 33.7655 281.08 33.5527 281.879 33.2918C282.761 33.0086 283.63 32.6906 284.487 32.3379L286.078 36.1012C285.114 36.5768 284.118 36.984 283.097 37.3196C282.057 37.6697 280.995 37.9522 279.919 38.1654C278.663 38.4198 277.385 38.5447 276.103 38.538C274.31 38.5837 272.525 38.2668 270.857 37.6065C269.477 37.0428 268.257 36.1469 267.306 34.9983C266.354 33.7965 265.668 32.4057 265.294 30.9183C264.852 29.1874 264.638 27.4063 264.657 25.6199V25.5939ZM276.953 15.2617C275.929 15.2201 274.919 15.506 274.069 16.0777C273.299 16.6346 272.672 17.3647 272.236 18.2089C271.759 19.1226 271.429 20.106 271.26 21.1227C271.063 22.1968 270.946 23.284 270.909 24.3755C272.374 24.3408 273.828 24.1166 275.235 23.7085C276.265 23.4122 277.239 22.9462 278.115 22.3299C278.784 21.8705 279.339 21.2654 279.74 20.56C280.058 19.9739 280.228 19.3191 280.236 18.6523C280.257 18.2013 280.189 17.7505 280.034 17.3263C279.879 16.9021 279.641 16.5131 279.334 16.182C279.022 15.8722 278.65 15.6304 278.24 15.472C277.83 15.3136 277.392 15.242 276.953 15.2617ZM303.128 17.2737C302.464 17.2809 301.81 17.4442 301.22 17.7506C300.58 18.0722 300.005 18.5107 299.525 19.0436C298.411 20.3112 297.807 21.9468 297.83 23.634V38.1654H291.786V24.7853C291.813 22.9987 291.672 21.2136 291.365 19.4534C291.148 18.2783 290.847 17.1202 290.463 15.9882C290.15 15.1069 289.723 14.2702 289.193 13.4993L293.958 11.5916C294.326 12.0461 294.663 12.524 294.968 13.0224C295.284 13.5881 295.566 14.1715 295.814 14.7699C296.127 15.5384 296.358 16.3377 296.503 17.1545C297.211 15.1052 298.236 13.6284 299.577 12.7243C300.925 11.8252 302.514 11.3562 304.134 11.3792C304.902 11.3723 305.668 11.4688 306.411 11.6661C307.119 11.8636 307.454 11.9604 307.417 11.9604L305.721 17.8438C305.528 17.7222 305.322 17.6223 305.107 17.5457C304.472 17.3234 303.8 17.226 303.128 17.2588V17.2737ZM318.651 11.1295C319.666 11.128 320.679 11.2342 321.672 11.4463C322.571 11.6343 323.456 11.8833 324.322 12.1915C325.238 12.5082 326.088 12.8435 326.863 13.1975L325.063 17.3333C324.355 17.0129 323.651 16.7297 322.943 16.4838C322.344 16.2727 321.68 16.0677 320.95 15.869C320.252 15.6812 319.533 15.5847 318.811 15.5821C318.069 15.5616 317.338 15.7654 316.713 16.1671C316.428 16.3569 316.198 16.6182 316.046 16.9249C315.893 17.2315 315.824 17.5728 315.845 17.9146C315.845 19.9266 317.31 21.499 320.242 22.6317C321.262 23.0174 322.258 23.4666 323.222 23.9768C324.048 24.4187 324.801 24.9827 325.458 25.6498C326.074 26.2763 326.553 27.0235 326.866 27.8444C327.204 28.7893 327.366 29.7883 327.343 30.7916C327.335 31.8176 327.116 32.8308 326.701 33.769C326.286 34.7072 325.683 35.5503 324.929 36.2465C324.084 37.0227 323.094 37.6241 322.015 38.0163C320.772 38.4798 319.452 38.706 318.125 38.6833C316.967 38.6902 315.812 38.5652 314.682 38.3107C313.651 38.071 312.632 37.7775 311.631 37.4314C310.896 37.1836 310.18 36.8822 309.488 36.5297L308.695 36.1571L310.655 31.7045L311.344 32.0771C311.907 32.4138 312.491 32.715 313.091 32.9788C313.835 33.3097 314.596 33.5996 315.372 33.8469C316.091 34.0993 316.845 34.2352 317.607 34.2494C318.849 34.2494 319.767 34.001 320.361 33.5042C320.653 33.2696 320.886 32.9704 321.042 32.6303C321.199 32.2902 321.274 31.9185 321.263 31.5443C321.257 30.6109 320.907 29.7124 320.279 29.0218C319.469 28.1677 318.46 27.5276 317.343 27.1588C314.61 26.1354 312.657 24.9704 311.482 23.6638C310.307 22.3572 309.717 20.6619 309.712 18.5778C309.712 17.5888 309.949 16.6142 310.401 15.7349C310.866 14.8292 311.498 14.0199 312.264 13.3502C313.104 12.6441 314.066 12.0984 315.103 11.7406C316.239 11.3315 317.436 11.1198 318.643 11.1146L318.651 11.1295Z" fill="#F95936"/>
</g>
<defs>
<filter id="filter0_d_46_564" x="0" y="0" width="331.345" height="63" filterUnits="userSpaceOnUse" color-interpolation-filters="sRGB">
<feFlood flood-opacity="0" result="BackgroundImageFix"/>
<feColorMatrix in="SourceAlpha" type="matrix" values="0 0 0 0 0 0 0 0 0 0 0 0 0 0 0 0 0 0 127 0" result="hardAlpha"/>
<feOffset dy="4"/>
<feGaussianBlur stdDeviation="2"/>
<feComposite in2="hardAlpha" operator="out"/>
<feColorMatrix type="matrix" values="0 0 0 0 0 0 0 0 0 0 0 0 0 0 0 0 0 0 0.25 0"/>
<feBlend mode="normal" in2="BackgroundImageFix" result="effect1_dropShadow_46_564"/>
<feBlend mode="normal" in="SourceGraphic" in2="effect1_dropShadow_46_564" result="shape"/>
</filter>
</defs>
</svg>
